<svg xmlns="http://www.w3.org/2000/svg" viewBox="0 0 332.14 93.87"><g id="Ebene_2" data-name="Ebene 2"><g id="Departement_2"><path d="M58.8,74.67V53.91H63v9.22l8.47-9.22H77.1L69.28,62l8.24,12.67H72.1l-5.71-9.74L63,68.4v6.27Z"/><path d="M83.13,64.22l-3.61-.65a5.58,5.58,0,0,1,2.09-3.23A7.67,7.67,0,0,1,86,59.29a9.54,9.54,0,0,1,4,.63,4,4,0,0,1,1.83,1.6,8.3,8.3,0,0,1,.53,3.56l0,4.65a15.89,15.89,0,0,0,.19,2.92,8.61,8.61,0,0,0,.71,2H89.29c-.11-.27-.23-.66-.39-1.18a4,4,0,0,0-.14-.46,7.09,7.09,0,0,1-2.18,1.48,6.23,6.23,0,0,1-2.47.5,5.16,5.16,0,0,1-3.67-1.26,4.19,4.19,0,0,1-1.33-3.19,4.24,4.24,0,0,1,.61-2.27,3.89,3.89,0,0,1,1.7-1.53,13.8,13.8,0,0,1,3.17-.93,21.8,21.8,0,0,0,3.86-1v-.4a2.1,2.1,0,0,0-.56-1.64,3.45,3.45,0,0,0-2.14-.48,2.37,2.37,0,0,0-2.62,1.88Zm5.32,3.23c-.51.17-1.31.37-2.42.61a7.13,7.13,0,0,0-2.17.69,1.68,1.68,0,0,0-.77,1.4,2,2,0,0,0,.62,1.45,2.18,2.18,0,0,0,1.58.61,3.47,3.47,0,0,0,2.06-.71,2.51,2.51,0,0,0,1-1.32,8.17,8.17,0,0,0,.15-1.94Z"/><path d="M110.45,74.67h-4V67a11.81,11.81,0,0,0-.26-3.15,2.22,2.22,0,0,0-.83-1.11,2.38,2.38,0,0,0-1.38-.39,3.13,3.13,0,0,0-1.85.56A2.9,2.9,0,0,0,101,64.4a13.24,13.24,0,0,0-.3,3.46v6.81h-4v-15h3.69v2.21a6,6,0,0,1,5-2.55,5.93,5.93,0,0,1,2.41.48A4.08,4.08,0,0,1,109.46,61a4.43,4.43,0,0,1,.78,1.67,12.89,12.89,0,0,1,.21,2.67Z"/><path d="M121.88,59.63V62.8h-2.72v6.06a15.26,15.26,0,0,0,.08,2.15.87.87,0,0,0,.35.5,1.16,1.16,0,0,0,.68.2,5.22,5.22,0,0,0,1.59-.38l.34,3.08a7.82,7.82,0,0,1-3.14.6,5,5,0,0,1-1.94-.36,2.82,2.82,0,0,1-1.27-.94,3.9,3.9,0,0,1-.56-1.55,20.34,20.34,0,0,1-.12-2.8V62.8h-1.83V59.63h1.83v-3l4-2.32v5.31Z"/><path d="M124.21,66.94a8.18,8.18,0,0,1,1-3.84A6.64,6.64,0,0,1,128,60.27a8.23,8.23,0,0,1,4-1,7.5,7.5,0,0,1,5.59,2.22,7.61,7.61,0,0,1,2.18,5.6,7.72,7.72,0,0,1-2.2,5.65A7.42,7.42,0,0,1,132,75a8.67,8.67,0,0,1-4-.94,6.35,6.35,0,0,1-2.85-2.74A9.1,9.1,0,0,1,124.21,66.94Zm4.08.21a5,5,0,0,0,1.06,3.43,3.48,3.48,0,0,0,5.24,0,5.09,5.09,0,0,0,1-3.46,5,5,0,0,0-1-3.4,3.48,3.48,0,0,0-5.24,0A5,5,0,0,0,128.29,67.15Z"/><path d="M157,74.67h-4V67a12,12,0,0,0-.25-3.15,2.28,2.28,0,0,0-.83-1.11,2.43,2.43,0,0,0-1.38-.39,3.19,3.19,0,0,0-1.86.56,2.83,2.83,0,0,0-1.12,1.5,12.69,12.69,0,0,0-.31,3.46v6.81h-4v-15H147v2.21a6,6,0,0,1,5-2.55,5.89,5.89,0,0,1,2.41.48A4,4,0,0,1,156,61a4.43,4.43,0,0,1,.78,1.67,12.11,12.11,0,0,1,.22,2.67Z"/><path d="M170.14,53.91h8.3a23.34,23.34,0,0,1,3.67.21,5.37,5.37,0,0,1,2.17.85,5.24,5.24,0,0,1,1.59,1.74,4.64,4.64,0,0,1,.64,2.43,4.77,4.77,0,0,1-.79,2.67,4.87,4.87,0,0,1-2.13,1.83,5.44,5.44,0,0,1,2.92,1.88,5,5,0,0,1,1,3.13,6.22,6.22,0,0,1-.66,2.76,5.52,5.52,0,0,1-1.8,2.13,5.92,5.92,0,0,1-2.81,1c-.7.07-2.38.12-5,.14h-7.07Zm4.19,3.46v4.8h2.75c1.63,0,2.65,0,3-.08a2.76,2.76,0,0,0,1.7-.74,2.19,2.19,0,0,0,.61-1.62,2.24,2.24,0,0,0-.53-1.56,2.33,2.33,0,0,0-1.58-.73c-.41,0-1.61-.07-3.58-.07Zm0,8.25v5.55h3.88a18.28,18.28,0,0,0,2.88-.13,2.62,2.62,0,0,0,1.52-.82,2.57,2.57,0,0,0,.59-1.77,2.63,2.63,0,0,0-.46-1.58,2.5,2.5,0,0,0-1.31-1,14.08,14.08,0,0,0-3.71-.3Z"/><path d="M194.51,64.22l-3.61-.65A5.58,5.58,0,0,1,193,60.34a7.67,7.67,0,0,1,4.42-1.05,9.54,9.54,0,0,1,4,.63,4,4,0,0,1,1.83,1.6,8.3,8.3,0,0,1,.53,3.56l0,4.65a15.89,15.89,0,0,0,.19,2.92,8.61,8.61,0,0,0,.71,2h-3.93c-.11-.27-.23-.66-.39-1.18a4,4,0,0,0-.14-.46A7.09,7.09,0,0,1,198,74.51a6.23,6.23,0,0,1-2.47.5,5.16,5.16,0,0,1-3.67-1.26,4.19,4.19,0,0,1-1.33-3.19,4.24,4.24,0,0,1,.61-2.27,3.89,3.89,0,0,1,1.7-1.53,13.8,13.8,0,0,1,3.17-.93,22,22,0,0,0,3.86-1v-.4a2.1,2.1,0,0,0-.56-1.64,3.45,3.45,0,0,0-2.14-.48,2.37,2.37,0,0,0-2.62,1.88Zm5.32,3.23c-.51.17-1.31.37-2.42.61a7.13,7.13,0,0,0-2.17.69,1.68,1.68,0,0,0-.77,1.4,2,2,0,0,0,.62,1.45,2.18,2.18,0,0,0,1.58.61,3.47,3.47,0,0,0,2.06-.71,2.51,2.51,0,0,0,1-1.32,8.17,8.17,0,0,0,.15-1.94Z"/><path d="M206.75,70.38l4-.61a2.92,2.92,0,0,0,1,1.76,3.51,3.51,0,0,0,2.18.6,3.91,3.91,0,0,0,2.32-.56,1.28,1.28,0,0,0,.53-1.06,1,1,0,0,0-.29-.75,3.07,3.07,0,0,0-1.33-.53c-3.21-.71-5.24-1.35-6.1-1.94a3.87,3.87,0,0,1-1.78-3.38,4.17,4.17,0,0,1,1.54-3.29,7.19,7.19,0,0,1,4.79-1.33,8.33,8.33,0,0,1,4.58,1,5.15,5.15,0,0,1,2.07,3l-3.75.69a2.32,2.32,0,0,0-.92-1.34,3.3,3.3,0,0,0-1.91-.47,4.4,4.4,0,0,0-2.26.44,1,1,0,0,0-.45.81.87.87,0,0,0,.4.72,15.11,15.11,0,0,0,3.71,1.12A11,11,0,0,1,219.55,67a3.65,3.65,0,0,1,1.25,3,4.54,4.54,0,0,1-1.73,3.55A7.64,7.64,0,0,1,214,75a8.37,8.37,0,0,1-4.86-1.25A5.74,5.74,0,0,1,206.75,70.38Z"/><path d="M233.49,69.88l4,.67A6.51,6.51,0,0,1,235,73.87,7.1,7.1,0,0,1,230.91,75a6.76,6.76,0,0,1-5.81-2.56,8.63,8.63,0,0,1-1.48-5.19,8.3,8.3,0,0,1,1.95-5.85,6.44,6.44,0,0,1,4.94-2.12,6.67,6.67,0,0,1,5.3,2.22c1.29,1.47,1.91,3.74,1.85,6.79h-10a4,4,0,0,0,1,2.75A3,3,0,0,0,231,72a2.43,2.43,0,0,0,1.57-.51A3.14,3.14,0,0,0,233.49,69.88Zm.22-4a3.83,3.83,0,0,0-.89-2.63,2.89,2.89,0,0,0-4.22.05,3.68,3.68,0,0,0-.83,2.58Z"/><path d="M241.4,74.67V53.91h4V74.67Z"/><path d="M249.5,69.13v-4h7.81v4Z"/><path d="M259.07,67.91l4.07-.39a5,5,0,0,0,1.5,3,4.46,4.46,0,0,0,3,1,4.71,4.71,0,0,0,3.06-.86,2.55,2.55,0,0,0,1-2,1.91,1.91,0,0,0-.43-1.26,3.55,3.55,0,0,0-1.51-.9c-.49-.17-1.61-.47-3.35-.9a11.26,11.26,0,0,1-4.73-2.06,5.46,5.46,0,0,1-1-7.14,5.64,5.64,0,0,1,2.6-2.1,10.38,10.38,0,0,1,4.08-.72q3.92,0,5.89,1.71a6.08,6.08,0,0,1,2.07,4.57l-4.19.19a3.54,3.54,0,0,0-1.16-2.3,4.19,4.19,0,0,0-2.65-.7,4.79,4.79,0,0,0-2.86.75,1.5,1.5,0,0,0-.67,1.28,1.56,1.56,0,0,0,.63,1.26,10.75,10.75,0,0,0,3.85,1.39,19.91,19.91,0,0,1,4.52,1.5,5.79,5.79,0,0,1,2.3,2.11,6.17,6.17,0,0,1,.82,3.3A6.09,6.09,0,0,1,275,72a6,6,0,0,1-2.8,2.32,11.85,11.85,0,0,1-4.52.76,9,9,0,0,1-6-1.82A7.9,7.9,0,0,1,259.07,67.91Z"/><path d="M286.83,59.63V62.8h-2.72v6.06a15.26,15.26,0,0,0,.08,2.15.87.87,0,0,0,.35.5,1.16,1.16,0,0,0,.68.2,5.34,5.34,0,0,0,1.6-.38l.34,3.08A7.9,7.9,0,0,1,284,75a5,5,0,0,1-1.94-.36,2.74,2.74,0,0,1-1.26-.94,3.62,3.62,0,0,1-.56-1.55,18.33,18.33,0,0,1-.13-2.8V62.8h-1.83V59.63h1.83v-3l4-2.32v5.31Z"/><path d="M293.06,64.22l-3.61-.65a5.58,5.58,0,0,1,2.09-3.23A7.67,7.67,0,0,1,296,59.29a9.54,9.54,0,0,1,4,.63,4,4,0,0,1,1.83,1.6,8.3,8.3,0,0,1,.53,3.56l0,4.65a15.89,15.89,0,0,0,.19,2.92,9.09,9.09,0,0,0,.71,2h-3.93c-.11-.27-.23-.66-.38-1.18-.07-.23-.12-.39-.15-.46a7,7,0,0,1-2.18,1.48A6.23,6.23,0,0,1,294,75a5.12,5.12,0,0,1-3.66-1.26A4.16,4.16,0,0,1,289,70.56a4.24,4.24,0,0,1,.61-2.27,3.89,3.89,0,0,1,1.7-1.53,13.8,13.8,0,0,1,3.17-.93,21.8,21.8,0,0,0,3.86-1v-.4a2.1,2.1,0,0,0-.56-1.64,3.45,3.45,0,0,0-2.14-.48,2.37,2.37,0,0,0-2.62,1.88Zm5.32,3.23c-.51.17-1.31.37-2.42.61a7.13,7.13,0,0,0-2.17.69,1.68,1.68,0,0,0-.77,1.4,2,2,0,0,0,.62,1.45,2.19,2.19,0,0,0,1.59.61,3.47,3.47,0,0,0,2-.71,2.51,2.51,0,0,0,1-1.32,8.17,8.17,0,0,0,.15-1.94Z"/><path d="M320.5,74.67h-3.7V72.46a6,6,0,0,1-2.17,1.92,5.6,5.6,0,0,1-2.53.63,5.73,5.73,0,0,1-4.44-2.09,8.5,8.5,0,0,1-1.85-5.83,8.39,8.39,0,0,1,1.8-5.81,5.86,5.86,0,0,1,4.55-2,5.63,5.63,0,0,1,4.36,2.1V53.91h4Zm-10.62-7.85a7,7,0,0,0,.66,3.49,3,3,0,0,0,2.69,1.56,2.92,2.92,0,0,0,2.34-1.17,5.42,5.42,0,0,0,1-3.49,5.91,5.91,0,0,0-.93-3.73,3,3,0,0,0-2.39-1.14,3,3,0,0,0-2.38,1.12A5.12,5.12,0,0,0,309.88,66.82Z"/><path d="M331.81,59.63V62.8h-2.72v6.06a15.26,15.26,0,0,0,.08,2.15.87.87,0,0,0,.35.5,1.16,1.16,0,0,0,.68.2,5.34,5.34,0,0,0,1.6-.38l.34,3.08A7.9,7.9,0,0,1,329,75a5,5,0,0,1-1.94-.36,2.82,2.82,0,0,1-1.27-.94,3.75,3.75,0,0,1-.55-1.55,18.33,18.33,0,0,1-.13-2.8V62.8h-1.83V59.63h1.83v-3l4-2.32v5.31Z"/><path d="M12.47,52.41a.9.9,0,1,0-.05,1.79h18.3a.9.9,0,1,0-.06-1.79Z"/><path d="M13.28,46a.9.9,0,1,0,0,1.79H29.65A.9.9,0,1,0,29.59,46Z"/><path d="M11.33,48.68a1.44,1.44,0,1,0,0,2.88H31.66a1.44,1.44,0,1,0,0-2.88Z"/><polygon points="13.2 55.05 29.59 55.05 34.22 80.49 26.46 74.65 21.38 80.5 16.29 74.66 8.52 80.45 13.2 55.05"/><path d="M10.73,36.54s2.07.45,2,3.28c0,0,.05,4.4-5.24,4.51,0,0-7.71.26-7.51-7.65,0,0-.46-9.39,12.13-9.8a15,15,0,0,1,13,7.29A23.92,23.92,0,0,1,28,45.26H15a20.16,20.16,0,0,0,.67-4.32c-.36-6.62-5.4-6.31-5.4-6.31-3.95-.2-4.16,3.13-4.16,3.13S6,39.91,7.77,40c0,0,1.12,0,1.12-.94,0,0,0-.69-.84-.69,0,0-.53,0-.61.3a2.06,2.06,0,0,1,2.28-2.26,4.22,4.22,0,0,1,1,.17"/><rect x="42.05" width="2.68" height="93.87"/></g></g></svg>