<?xml version="1.0" encoding="UTF-8"?>
<svg width="247px" height="50px" viewBox="0 0 247 50" version="1.1" xmlns="http://www.w3.org/2000/svg" xmlns:xlink="http://www.w3.org/1999/xlink">
    <title>bsgfm</title>
    <g id="Page-1" stroke="none" stroke-width="1" fill="none" fill-rule="evenodd">
        <g id="bsgfm" transform="translate(0.968839, 0.000000)" fill="#000000" fill-rule="nonzero">
            <path d="M33.7611613,19.91 L33.7611613,14.18 L35.9211613,14.18 C36.2119788,14.1760738 36.5027084,14.1927824 36.7911613,14.23 C37.0411076,14.2689452 37.2798025,14.3610133 37.4911613,14.5 C37.6926684,14.6412523 37.8517335,14.8348968 37.9511613,15.06 C38.0738913,15.3014237 38.135688,15.5692094 38.1311613,15.84 C38.1405974,16.2955525 37.9719822,16.7368221 37.6611613,17.07 C37.1950305,17.4636256 36.5874496,17.6480698 35.9811613,17.58 L34.5111613,17.58 L34.5111613,19.91 L33.7611613,19.91 Z M34.5111613,16.91 L36.0311613,16.91 C36.3851358,16.9326111 36.73667,16.8376969 37.0311613,16.64 C37.2411697,16.4403664 37.3542631,16.1594572 37.3411613,15.87 C37.3484538,15.6479659 37.2816041,15.4298248 37.1511613,15.25 C37.0393946,15.0869424 36.8724844,14.9697501 36.6811613,14.92 C36.4473173,14.875218 36.2089736,14.8584332 35.9711613,14.87 L34.5111613,14.87 L34.5111613,16.91 Z" id="Shape"></path>
            <path d="M39.0311613,19.91 L39.0311613,15.76 L39.6611613,15.76 L39.6611613,16.39 C39.7628891,16.1636235 39.9171602,15.9647852 40.1111613,15.81 C40.2399123,15.7106063 40.3985243,15.6577357 40.5611613,15.66 C40.8178892,15.6681663 41.067243,15.747821 41.2811613,15.89 L41.0411613,16.54 C40.8849101,16.4431546 40.704987,16.3912538 40.5211613,16.39 C40.3728861,16.3907174 40.2289089,16.4398803 40.1111613,16.53 C39.9862905,16.6257954 39.8952137,16.7589078 39.8511613,16.91 C39.7693572,17.1755645 39.7288841,17.4521309 39.7311613,17.73 L39.7311613,19.91 L39.0311613,19.91 Z" id="Path"></path>
            <path d="M44.4411613,19.39 C44.2202201,19.5938331 43.9622234,19.7533836 43.6811613,19.86 C43.4362189,19.9569197 43.1745431,20.0044971 42.9111613,20 C42.5319905,20.0270201 42.156703,19.9090725 41.8611613,19.67 C41.6170546,19.4519128 41.4816548,19.1371998 41.4911613,18.81 C41.4898333,18.6176875 41.5380479,18.4282729 41.6311613,18.26 C41.7148246,18.0952688 41.8386332,17.9542646 41.9911613,17.85 C42.1472025,17.7455316 42.3195638,17.6678001 42.5011613,17.62 C42.7050501,17.5712773 42.9122932,17.5378509 43.1211613,17.52 C43.5487895,17.4812448 43.9711307,17.397447 44.3811613,17.27 L44.3811613,17.09 C44.4078557,16.867108 44.3346455,16.6438171 44.1811613,16.48 C43.7161422,16.1958052 43.1370079,16.1730941 42.6511613,16.42 C42.4677696,16.5811654 42.3443957,16.7997135 42.3011613,17.04 L41.6111613,16.94 C41.6635148,16.684198 41.7691389,16.4422846 41.9211613,16.23 C42.0844517,16.0347383 42.2992628,15.8892211 42.5411613,15.81 C42.8432926,15.705338 43.1614615,15.6545663 43.4811613,15.66 C43.7764774,15.6530119 44.0707876,15.6969893 44.3511613,15.79 C44.5370336,15.8524542 44.7051137,15.9587906 44.8411613,16.1 C44.946546,16.2420683 45.018346,16.4061826 45.0511613,16.58 C45.0728824,16.7961223 45.0728824,17.0138777 45.0511613,17.23 L45.0511613,18.17 C45.026379,18.5829619 45.026379,18.9970381 45.0511613,19.41 C45.0825018,19.5856338 45.1433625,19.7546912 45.2311613,19.91 L44.5011613,19.91 C44.4479258,19.742134 44.427554,19.5655786 44.4411613,19.39 Z M44.3811613,17.82 C44.0105558,17.9575004 43.6242359,18.0482016 43.2311613,18.09 C43.0229961,18.1123144 42.8182242,18.1593112 42.6211613,18.23 C42.5056599,18.2747962 42.4075362,18.3553977 42.3411613,18.46 C42.2739486,18.5567441 42.2389558,18.6722201 42.2411613,18.79 C42.2355196,18.9705538 42.3129018,19.1437425 42.4511613,19.26 C42.6301095,19.3997004 42.8548131,19.4674682 43.0811613,19.45 C43.3328201,19.45441 43.5811847,19.3923188 43.8011613,19.27 C44.0024848,19.1608408 44.1662642,18.9935767 44.2711613,18.79 C44.3538735,18.5627958 44.3912448,18.321581 44.3811613,18.08 L44.3811613,17.82 Z M42.3111613,15 L42.3111613,14.19 L43.0311613,14.19 L43.0311613,15 L42.3111613,15 Z M43.7711613,15 L43.7711613,14.19 L44.5011613,14.19 L44.5011613,15 L43.7711613,15 Z" id="Shape"></path>
            <path d="M45.9311613,18.67 L46.6311613,18.56 C46.6470978,18.8077735 46.7625044,19.0385867 46.9511613,19.2 C47.1674257,19.3594216 47.4330476,19.4373374 47.7011613,19.42 C47.955735,19.4398347 48.2095218,19.3728632 48.4211613,19.23 C48.5623405,19.1140862 48.6462582,18.9426021 48.6511613,18.76 C48.6534772,18.6102533 48.5777126,18.4700888 48.4511613,18.39 C48.2222892,18.2798423 47.9803536,18.1991971 47.7311613,18.15 C47.3613543,18.0705635 46.9997817,17.956735 46.6511613,17.81 C46.4675778,17.7247388 46.31165,17.5896014 46.2011613,17.42 C46.1015264,17.2502964 46.0496929,17.0567848 46.0511613,16.86 C46.0482797,16.6826824 46.0895159,16.5074289 46.1711613,16.35 C46.2570131,16.1925646 46.3765154,16.0559905 46.5211613,15.95 C46.6576308,15.8563078 46.810168,15.7885135 46.9711613,15.75 C47.1654207,15.6896624 47.3677482,15.6593133 47.5711613,15.66 C47.8648912,15.653115 48.1571062,15.7040827 48.4311613,15.81 C48.6480784,15.8794098 48.8395012,16.0116656 48.9811613,16.19 C49.1049559,16.384243 49.1867098,16.6022534 49.2211613,16.83 L48.5311613,16.92 C48.5102272,16.7243705 48.4132596,16.5448008 48.2611613,16.42 C48.0773342,16.2909533 47.8554165,16.2275483 47.6311613,16.24 C47.3870607,16.2219047 47.1431609,16.2776532 46.9311613,16.4 C46.8083932,16.488121 46.7342926,16.6289123 46.7311613,16.78 C46.7318631,16.8664327 46.7598631,16.9504327 46.8111613,17.02 C46.8823346,17.1065723 46.975643,17.1722338 47.0811613,17.21 L47.7011613,17.39 C48.0424904,17.4741013 48.3768172,17.5844291 48.7011613,17.72 C48.8919092,17.7924909 49.0559149,17.9216018 49.1711613,18.09 C49.2903354,18.2667661 49.3498994,18.4769921 49.3411613,18.69 C49.3393744,18.926152 49.266166,19.1562355 49.1311613,19.35 C48.9872045,19.5656594 48.781599,19.7329317 48.5411613,19.83 C48.2623557,19.9456377 47.9629767,20.0034723 47.6611613,20 C47.2242245,20.031861 46.7897018,19.911749 46.4311613,19.66 C46.1488525,19.402388 45.9709322,19.0501059 45.9311613,18.67 L45.9311613,18.67 Z" id="Path"></path>
            <path d="M50.2511613,15 L50.2511613,14.19 L50.9511613,14.19 L50.9511613,15 L50.2511613,15 Z M50.2511613,19.92 L50.2511613,15.76 L50.9511613,15.76 L50.9511613,19.91 L50.2511613,19.92 Z" id="Shape"></path>
            <path d="M54.7411613,19.91 L54.7411613,19.38 C54.4968058,19.7830743 54.0520611,20.0207827 53.5811613,20 C53.2578448,20.0016694 52.9412482,19.9077342 52.6711613,19.73 C52.3949953,19.5498754 52.1736092,19.2973569 52.0311613,19 C51.8686575,18.649561 51.7899151,18.2661198 51.8011613,17.88 C51.7965352,17.4783314 51.8748341,17.0800282 52.0311613,16.71 C52.1476533,16.3895773 52.3652843,16.1157834 52.6511613,15.93 C52.9238243,15.7498016 53.2443612,15.655731 53.5711613,15.66 C53.8041499,15.6583444 54.0340609,15.7132485 54.2411613,15.82 C54.4266491,15.9236529 54.5897844,16.0629976 54.7211613,16.23 L54.7211613,14.18 L55.4211613,14.18 L55.4211613,19.91 L54.7411613,19.91 Z M52.5211613,17.84 C52.4957122,18.2544892 52.6159851,18.664832 52.8611613,19 C53.0499539,19.245247 53.3416647,19.3892561 53.6511613,19.3900172 C53.9537497,19.3910289 54.2405312,19.2549915 54.4311613,19.02 C54.6751325,18.6846486 54.792082,18.2735534 54.7611613,17.86 C54.7925777,17.4182901 54.676511,16.9786436 54.4311613,16.61 C54.2381093,16.3591218 53.9376709,16.2144663 53.6211613,16.22 C53.3168893,16.2214028 53.0298087,16.3612626 52.8411613,16.6 C52.5926656,16.9631469 52.4794249,17.4019545 52.5211613,17.84 Z" id="Shape"></path>
            <path d="M56.5411613,15 L56.5411613,14.19 L57.2411613,14.19 L57.2411613,15 L56.5411613,15 Z M56.5411613,19.92 L56.5411613,15.76 L57.2411613,15.76 L57.2411613,19.91 L56.5411613,19.92 Z" id="Shape"></path>
            <path d="M61.0311613,19.39 C60.8121806,19.5914412 60.557929,19.7507722 60.2811613,19.86 C60.0331018,19.9582253 59.7678967,20.0058263 59.5011613,20 C59.1224604,20.0230981 58.7485612,19.9055869 58.4511613,19.67 C58.210376,19.4495371 58.0756636,19.1364219 58.0811613,18.81 C58.0798333,18.6176875 58.1280479,18.4282729 58.2211613,18.26 C58.311822,18.097054 58.4383442,17.9568537 58.5911613,17.85 C58.7446537,17.7474414 58.9134068,17.669815 59.0911613,17.62 C59.2982924,17.5705915 59.5089114,17.53716 59.7211613,17.52 C60.1657614,17.4856061 60.6051416,17.4017549 61.0311613,17.27 C61.0311613,17.18 61.0311613,17.12 61.0311613,17.09 C61.0525766,16.8676622 60.9800631,16.6464961 60.8311613,16.48 C60.3624751,16.1959262 59.7805288,16.1732529 59.2911613,16.42 C59.1112963,16.5840015 58.988646,16.8012677 58.9411613,17.04 L58.2611613,16.94 C58.3058246,16.6835864 58.4084309,16.4407515 58.5611613,16.23 C58.7285982,16.0347921 58.9465706,15.8894772 59.1911613,15.81 C59.4930863,15.7045181 59.8114024,15.653723 60.1311613,15.66 C60.4231574,15.6537638 60.7140547,15.6977366 60.9911613,15.79 C61.1770336,15.8524542 61.3451137,15.9587906 61.4811613,16.1 C61.5898104,16.2413281 61.6650266,16.4054362 61.7011613,16.58 C61.7162258,16.7964048 61.7162258,17.0135952 61.7011613,17.23 L61.7011613,18.17 C61.6742988,18.5828969 61.6742988,18.9971031 61.7011613,19.41 C61.7325018,19.5856338 61.7933625,19.7546912 61.8811613,19.91 L61.1411613,19.91 C61.0755781,19.7440663 61.038392,19.5682775 61.0311613,19.39 L61.0311613,19.39 Z M61.0311613,17.82 C60.6609284,17.9587321 60.2744504,18.0494704 59.8811613,18.09 C59.6729961,18.1123144 59.4682242,18.1593112 59.2711613,18.23 C59.0430667,18.3228467 58.8931743,18.5437408 58.8911613,18.79 C58.8894479,18.9719179 58.970366,19.1447883 59.1111613,19.26 C59.2865808,19.3990481 59.5079548,19.4668885 59.7311613,19.45 C59.9828201,19.45441 60.2311847,19.3923188 60.4511613,19.27 C60.6524848,19.1608408 60.8162642,18.9935767 60.9211613,18.79 C61.0038735,18.5627958 61.0412448,18.321581 61.0311613,18.08 L61.0311613,17.82 Z" id="Shape"></path>
            <polygon id="Path" points="62.8111613 19.91 62.8111613 14.18 63.5111613 14.18 63.5111613 19.91"></polygon>
            <path d="M67.3311613,19.91 L67.3311613,19.38 C67.082,19.7830649 66.6345919,20.020153 66.1611613,20 C65.8378448,20.0016694 65.5212482,19.9077342 65.2511613,19.73 C64.9718033,19.5362787 64.7505382,19.2700692 64.6111613,18.96 C64.4532885,18.6080508 64.3747664,18.2256827 64.3811613,17.84 C64.3756077,17.4531406 64.4469902,17.0690345 64.5911613,16.71 C64.8315839,16.0701683 65.4477221,15.6500741 66.1311613,15.66 C66.3641499,15.6583444 66.5940609,15.7132485 66.8011613,15.82 C66.988608,15.9208154 67.1522808,16.0606193 67.2811613,16.23 L67.2811613,14.18 L68.0311613,14.18 L68.0311613,19.91 L67.3311613,19.91 Z M65.1011613,17.84 C65.0757122,18.2544892 65.1959851,18.664832 65.4411613,19 C65.6299539,19.245247 65.9216647,19.3892561 66.2311613,19.3900172 C66.5337497,19.3910289 66.8205312,19.2549915 67.0111613,19.02 C67.2551325,18.6846486 67.372082,18.2735534 67.3411613,17.86 C67.371832,17.4305674 67.2631118,17.002701 67.0311613,16.64 C66.8381093,16.3891218 66.5376709,16.2444663 66.2211613,16.25 C65.9168893,16.2514028 65.6298087,16.3912626 65.4411613,16.63 C65.1923687,16.9823833 65.072323,17.4096047 65.1011613,17.84 Z" id="Shape"></path>
            <path d="M71.9511613,18.57 L72.6811613,18.66 C72.5878057,19.0564362 72.3620476,19.4091834 72.0411613,19.66 C71.2186223,20.1957428 70.1382644,20.1094785 69.4111613,19.45 C69.0375593,19.0152118 68.84752,18.4522653 68.8811613,17.88 C68.8450316,17.2874646 69.038405,16.7037634 69.4211613,16.25 C69.7836068,15.8656378 70.2930866,15.6545675 70.8211613,15.67 C71.3358261,15.6531237 71.8323251,15.8612152 72.1811613,16.24 C72.5514901,16.6839767 72.7375849,17.2529974 72.7011613,17.83 L72.7011613,18 L69.6111613,18 C69.6168573,18.3675399 69.7513354,18.7214295 69.9911613,19 C70.2179501,19.2365405 70.533543,19.3671307 70.8611613,19.36 C71.0969121,19.3658035 71.3282873,19.2956898 71.5211613,19.16 C71.7167228,19.0072931 71.8656682,18.8029262 71.9511613,18.57 Z M69.6511613,17.43 L71.9611613,17.43 C71.9539074,17.1499441 71.8633917,16.8783971 71.7011613,16.65 C71.4951731,16.4099123 71.1993811,16.2652805 70.8833999,16.2501436 C70.5674188,16.2350068 70.259156,16.3507019 70.0311613,16.57 C69.7965115,16.7956682 69.6600223,17.1045647 69.6511613,17.43 L69.6511613,17.43 Z" id="Shape"></path>
            <path d="M73.6011613,21.5 L73.6011613,15.76 L74.2411613,15.76 L74.2411613,16.3 C74.3748547,16.1053487 74.548772,15.9416619 74.7511613,15.82 C74.9645413,15.710838 75.2015148,15.6558877 75.4411613,15.66 C76.1418481,15.6315319 76.7822095,16.0544121 77.0311613,16.71 C77.3203722,17.4286612 77.3203722,18.2313388 77.0311613,18.95 C76.8969109,19.2718704 76.6663714,19.5443262 76.3711613,19.73 C76.0956103,19.9038924 75.7769836,19.9974024 75.4511613,20 C75.2317753,20.0048292 75.0148318,19.953176 74.8211613,19.85 C74.6436012,19.7602532 74.4868817,19.6341962 74.3611613,19.48 L74.3611613,21.48 L73.6011613,21.5 Z M74.2311613,17.86 C74.2083218,18.2664703 74.3247231,18.6685838 74.5611613,19 C74.7498087,19.2387374 75.0368893,19.3785972 75.3411613,19.3800843 C75.6541693,19.3823716 75.9502299,19.238042 76.1411613,18.99 C76.3959977,18.6329238 76.5164234,18.1972661 76.4811613,17.76 C76.5132089,17.3369963 76.3964857,16.9160854 76.1511613,16.57 C75.9645254,16.3275073 75.677137,16.1838131 75.3711613,16.18 C75.0563912,16.18782 74.7636872,16.3434348 74.5811613,16.6 C74.3166559,16.9641901 74.1923851,17.411565 74.2311613,17.86 Z" id="Shape"></path>
            <path d="M80.7811613,19.39 C80.5621806,19.5914412 80.307929,19.7507722 80.0311613,19.86 C79.7862189,19.9569197 79.5245431,20.0044971 79.2611613,20 C78.8989011,20.0144643 78.5436608,19.897235 78.2611613,19.67 C78.0170546,19.4519128 77.8816548,19.1371998 77.8911613,18.81 C77.8898333,18.6176875 77.9380479,18.4282729 78.0311613,18.26 C78.1148246,18.0952688 78.2386332,17.9542646 78.3911613,17.85 C78.5472025,17.7455316 78.7195638,17.6678001 78.9011613,17.62 C79.1046964,17.5695268 79.3120786,17.536078 79.5211613,17.52 C79.9487895,17.4812448 80.3711307,17.397447 80.7811613,17.27 L80.7811613,17.09 C80.8025766,16.8676622 80.7300631,16.6464961 80.5811613,16.48 C80.3493295,16.3126873 80.0664543,16.2313607 79.7811613,16.25 C79.5258687,16.2265537 79.2698301,16.2861791 79.0511613,16.42 C78.8623839,16.5767303 78.7378158,16.7973938 78.7011613,17.04 L78.0111613,16.94 C78.0591566,16.6828383 78.1651791,16.4400125 78.3211613,16.23 C78.4844517,16.0347383 78.6992628,15.8892211 78.9411613,15.81 C79.2430863,15.7045181 79.5614024,15.653723 79.8811613,15.66 C80.1731574,15.6537638 80.4640547,15.6977366 80.7411613,15.79 C80.9294873,15.8471987 81.0988118,15.9543224 81.2311613,16.1 C81.3438088,16.2388815 81.4194901,16.4040043 81.4511613,16.58 C81.4676763,16.796352 81.4676763,17.013648 81.4511613,17.23 L81.4511613,18.17 C81.426379,18.5829619 81.426379,18.9970381 81.4511613,19.41 C81.4825018,19.5856338 81.5433625,19.7546912 81.6311613,19.91 L80.8911613,19.91 C80.8300539,19.7427506 80.7930172,19.567668 80.7811613,19.39 L80.7811613,19.39 Z M80.7811613,17.82 C80.4105558,17.9575004 80.0242359,18.0482016 79.6311613,18.09 C79.4197928,18.1126345 79.2117469,18.1596127 79.0111613,18.23 C78.7887157,18.3279969 78.6440553,18.5469423 78.6411613,18.79 C78.6355196,18.9705538 78.7129018,19.1437425 78.8511613,19.26 C79.0265808,19.3990481 79.2479548,19.4668885 79.4711613,19.45 C79.7261412,19.4557052 79.9780619,19.3935878 80.2011613,19.27 C80.3995429,19.1602461 80.5599447,18.9928703 80.6611613,18.79 C80.7529446,18.5650541 80.7939202,18.322615 80.7811613,18.08 L80.7811613,17.82 Z" id="Shape"></path>
            <path d="M82.5511613,19.91 L82.5511613,15.76 L83.1811613,15.76 L83.1811613,16.39 C83.286286,16.1656831 83.4399993,15.9675638 83.6311613,15.81 C83.761317,15.7132717 83.9189998,15.6607107 84.0811613,15.66 C84.3380725,15.6670947 84.5877149,15.7468416 84.8011613,15.89 L84.5611613,16.54 C84.4078084,16.4449021 84.2315811,16.3930705 84.0511613,16.39 C83.8998182,16.39071 83.7526618,16.4397621 83.6311613,16.53 C83.5062905,16.6257954 83.4152137,16.7589078 83.3711613,16.91 C83.2893572,17.1755645 83.2488841,17.4521309 83.2511613,17.73 L83.2511613,19.91 L82.5511613,19.91 Z" id="Path"></path>
            <path d="M86.7911613,19.28 L86.8911613,19.9 C86.7169186,19.937509 86.5393794,19.9576078 86.3611613,19.96 C86.1574268,19.9716903 85.9541429,19.9303445 85.7711613,19.84 C85.6398929,19.7676709 85.5348799,19.655657 85.4711613,19.52 C85.3931038,19.250676 85.3626469,18.9697957 85.3811613,18.69 L85.3811613,16.31 L84.8711613,16.31 L84.8711613,15.76 L85.3811613,15.76 L85.3811613,14.76 L86.0811613,14.34 L86.0811613,15.79 L86.7911613,15.79 L86.7911613,16.34 L86.0811613,16.34 L86.0811613,18.76 C86.0629655,18.8893633 86.0629655,19.0206367 86.0811613,19.15 C86.1039788,19.2065114 86.146653,19.2527418 86.2011613,19.28 C86.2735567,19.3230777 86.3570111,19.3439413 86.4411613,19.34 L86.7911613,19.28 Z" id="Path"></path>
            <path d="M90.3511613,18.57 L91.0811613,18.66 C90.9834876,19.0545946 90.7585666,19.4060336 90.4411613,19.66 C90.0916115,19.8998335 89.6748965,20.0223968 89.2511613,20.01 C88.7132994,20.0370166 88.1894558,19.8332996 87.8111613,19.45 C87.4301609,19.018939 87.2359278,18.4542242 87.2711613,17.88 C87.2350316,17.2874646 87.428405,16.7037634 87.8111613,16.25 C88.1736068,15.8656378 88.6830866,15.6545675 89.2111613,15.67 C89.7260738,15.6517726 90.2231147,15.8600912 90.5711613,16.24 C90.9450848,16.682482 91.1348109,17.2516603 91.1011613,17.83 L91.1011613,18 L88.0311613,18 C88.0437478,18.3679666 88.1813021,18.7206698 88.4211613,19 C88.8272593,19.4123891 89.4685311,19.4794502 89.9511613,19.16 C90.1331665,19.0011393 90.2709663,18.7978845 90.3511613,18.57 L90.3511613,18.57 Z M88.0311613,17.43 L90.3511613,17.43 C90.3461596,17.1479454 90.2516045,16.8747864 90.0811613,16.65 C89.8723841,16.383357 89.5497031,16.2312889 89.2111613,16.24 C88.9071552,16.2333151 88.6139435,16.3527717 88.4011613,16.57 C88.1710786,16.7979123 88.0384318,17.1062266 88.0311613,17.43 L88.0311613,17.43 Z" id="Shape"></path>
            <path d="M92.0311613,19.91 L92.0311613,15.76 L92.6611613,15.76 L92.6611613,16.34 C92.7905777,16.1355756 92.9694159,15.967055 93.1811613,15.85 C93.4074627,15.7242801 93.6622858,15.6588525 93.9211613,15.66 C94.1854865,15.6506088 94.4466093,15.7202416 94.6711613,15.86 C94.8684604,15.9825332 95.0169561,16.1699207 95.0911613,16.39 C95.3606686,15.9394243 95.8461412,15.6625532 96.3711613,15.66 C96.7397317,15.6240456 97.1054575,15.7520497 97.3711613,16.01 C97.6034674,16.289716 97.7213573,16.6469583 97.7011613,17.01 L97.7011613,19.86 L97.0011613,19.86 L97.0011613,17.29 C97.0131961,17.0874425 96.9895016,16.8843471 96.9311613,16.69 C96.8933252,16.5625387 96.8072083,16.4548926 96.6911613,16.39 C96.5633317,16.3072795 96.4133525,16.2654248 96.2611613,16.27 C95.991904,16.265779 95.7323244,16.3703319 95.5411613,16.56 C95.3231441,16.8221963 95.2187594,17.1605468 95.2511613,17.5 L95.2511613,19.91 L94.5511613,19.91 L94.5511613,17.21 C94.5694142,16.963253 94.5061782,16.7173348 94.3711613,16.51 C94.23816,16.3390568 94.0266728,16.2484194 93.8111613,16.27 C93.6166941,16.2723587 93.4265471,16.3276742 93.2611613,16.43 C93.0899958,16.5353294 92.9622678,16.6985374 92.9011613,16.89 C92.8096377,17.1670871 92.7689834,17.458443 92.7811613,17.75 L92.7811613,19.91 L92.0311613,19.91 Z" id="Path"></path>
            <path d="M101.531161,18.57 L102.251161,18.66 C102.161186,19.0553583 101.938927,19.4081498 101.621161,19.66 C101.271611,19.8998335 100.854896,20.0223968 100.431161,20.01 C99.9055243,20.0230118 99.3982243,19.8164685 99.0311613,19.44 C98.6501609,19.008939 98.4559278,18.4442242 98.4911613,17.87 C98.4550316,17.2774646 98.648405,16.6937634 99.0311613,16.24 C99.3936063,15.8556378 99.9030863,15.6445675 100.431161,15.66 C100.945826,15.6431237 101.442325,15.8512152 101.791161,16.23 C102.165085,16.672482 102.354811,17.2416603 102.321161,17.82 C102.321161,17.87 102.321161,17.93 102.321161,18.01 L99.1811613,18.01 C99.1852263,18.3796693 99.3238783,18.7351858 99.5711613,19.01 C99.7941493,19.2460305 100.106526,19.3767931 100.431161,19.37 C100.666912,19.3758035 100.898287,19.3056898 101.091161,19.17 C101.288903,19.0130027 101.440861,18.8057879 101.531161,18.57 Z M99.2211613,17.43 L101.531161,17.43 C101.523907,17.1499441 101.433391,16.8783971 101.271161,16.65 C101.064841,16.4035184 100.764779,16.2546357 100.443702,16.2394368 C100.122626,16.2242379 99.8098423,16.3441102 99.5811613,16.57 C99.3538603,16.7989233 99.2247223,17.1074182 99.2211613,17.43 L99.2211613,17.43 Z" id="Shape"></path>
            <path d="M103.171161,19.91 L103.171161,15.76 L103.801161,15.76 L103.801161,16.35 C104.087821,15.902361 104.589983,15.6398672 105.121161,15.66 C105.358298,15.6591603 105.593104,15.7068021 105.811161,15.8 C105.996593,15.8720222 106.159024,15.9929813 106.281161,16.15 C106.392286,16.3047967 106.467448,16.4824518 106.501161,16.67 C106.52283,16.8994896 106.52283,17.1305104 106.501161,17.36 L106.501161,19.91 L105.801161,19.91 L105.801161,17.38 C105.811392,17.1629182 105.780865,16.945841 105.711161,16.74 C105.655558,16.5972326 105.553371,16.4774266 105.421161,16.4 C105.271705,16.3152977 105.102949,16.2705257 104.931161,16.27 C104.646997,16.2654716 104.371738,16.3691406 104.161161,16.56 C103.903289,16.8570828 103.783377,17.2495223 103.831161,17.64 L103.831161,19.91 L103.171161,19.91 Z" id="Path"></path>
            <path d="M109.181161,19.28 L109.291161,19.9 C109.113552,19.9375838 108.932688,19.9576798 108.751161,19.96 C108.547525,19.9703498 108.344576,19.929072 108.161161,19.84 C108.029893,19.7676709 107.92488,19.655657 107.861161,19.52 C107.793365,19.2488515 107.766401,18.9691056 107.781161,18.69 L107.781161,16.31 L107.261161,16.31 L107.261161,15.76 L107.781161,15.76 L107.781161,14.76 L108.481161,14.34 L108.481161,15.79 L109.181161,15.79 L109.181161,16.34 L108.481161,16.34 L108.481161,18.76 C108.464741,18.8894815 108.464741,19.0205185 108.481161,19.15 C108.511305,19.204773 108.556388,19.2498561 108.611161,19.28 C108.682229,19.3262098 108.766708,19.3473295 108.851161,19.34 L109.181161,19.28 Z" id="Path"></path>
            <path d="M114.851161,19.91 L114.851161,19.38 C114.606805,19.7830743 114.162061,20.0207827 113.691161,20 C113.367673,20.0028785 113.050732,19.908841 112.781161,19.73 C112.498804,19.5368861 112.274152,19.2707603 112.131161,18.96 C111.973288,18.6080508 111.894766,18.2256827 111.901161,17.84 C111.895607,17.4531406 111.96699,17.0690345 112.111161,16.71 C112.352816,16.0666638 112.974082,15.6458059 113.661161,15.66 C113.894014,15.6595152 114.123652,15.7143541 114.331161,15.82 C114.513829,15.9236358 114.67369,16.0630892 114.801161,16.23 L114.801161,14.18 L115.501161,14.18 L115.501161,19.91 L114.851161,19.91 Z M112.631161,17.84 C112.600791,18.262838 112.71736,18.6831925 112.961161,19.03 C113.152092,19.278042 113.448153,19.4223716 113.761161,19.4200843 C114.063749,19.4210289 114.350531,19.2849915 114.541161,19.05 C114.777743,18.7114928 114.890726,18.3019271 114.861161,17.89 C114.892577,17.4482901 114.776511,17.0086436 114.531161,16.64 C114.338109,16.3891218 114.037671,16.2444663 113.721161,16.25 C113.416889,16.2514028 113.129808,16.3912626 112.941161,16.63 C112.703683,16.9865447 112.594377,17.4131899 112.631161,17.84 L112.631161,17.84 Z" id="Shape"></path>
            <path d="M119.481161,18.57 L120.211161,18.66 C120.113487,19.0545946 119.888566,19.4060336 119.571161,19.66 C119.221611,19.8998335 118.804896,20.0223968 118.381161,20.01 C117.843299,20.0370166 117.319456,19.8332996 116.941161,19.45 C116.562799,19.0179373 116.372082,18.4529821 116.411161,17.88 C116.371217,17.2886742 116.56108,16.7047532 116.941161,16.25 C117.303606,15.8656378 117.813086,15.6545675 118.341161,15.67 C118.856074,15.6517726 119.353114,15.8600912 119.701161,16.24 C120.075085,16.682482 120.264811,17.2516603 120.231161,17.83 L120.231161,18 L117.131161,18 C117.143748,18.3679666 117.281302,18.7206698 117.521161,19 C117.927259,19.4123891 118.568531,19.4794502 119.051161,19.16 C119.244153,19.0048249 119.392531,18.8012357 119.481161,18.57 L119.481161,18.57 Z M117.171161,17.43 L119.491161,17.43 C119.486159,17.1479454 119.391604,16.8747864 119.221161,16.65 C119.012384,16.383357 118.689703,16.2312889 118.351161,16.24 C118.047155,16.2333151 117.753943,16.3527717 117.541161,16.57 C117.311078,16.7979123 117.178431,17.1062266 117.171161,17.43 Z" id="Shape"></path>
            <path d="M120.841161,18.67 L121.531161,18.56 C121.557873,18.8069098 121.675505,19.0350458 121.861161,19.2 C122.077425,19.3594216 122.343047,19.4373374 122.611161,19.42 C122.865735,19.4398347 123.119521,19.3728632 123.331161,19.23 C123.47234,19.1140862 123.556258,18.9426021 123.561161,18.76 C123.563425,18.6077135 123.483069,18.4661348 123.351161,18.39 C123.126904,18.2771394 122.887901,18.1963496 122.641161,18.15 C122.271354,18.0705635 121.909781,17.956735 121.561161,17.81 C121.375037,17.7287139 121.218076,17.5926811 121.111161,17.42 C121.011526,17.2502964 120.959693,17.0567848 120.961161,16.86 C120.958279,16.6826824 120.999516,16.5074289 121.081161,16.35 C121.167013,16.1925646 121.286515,16.0559905 121.431161,15.95 C121.56763,15.8563078 121.720168,15.7885135 121.881161,15.75 C122.07542,15.6896624 122.277748,15.6593133 122.481161,15.66 C122.774891,15.653115 123.067106,15.7040827 123.341161,15.81 C123.558078,15.8794098 123.749501,16.0116656 123.891161,16.19 C124.014956,16.384243 124.096709,16.6022534 124.131161,16.83 L123.441161,16.92 C123.420227,16.7243705 123.323259,16.5448008 123.171161,16.42 C122.9846,16.2887653 122.75878,16.2252534 122.531161,16.24 C122.29035,16.2233139 122.050053,16.2790351 121.841161,16.4 C121.715834,16.4858687 121.640987,16.6280785 121.641161,16.78 C121.636971,16.8671763 121.665504,16.9527727 121.721161,17.02 C121.792334,17.1065723 121.885643,17.1722338 121.991161,17.21 L122.611161,17.39 C122.95249,17.4741013 123.286817,17.5844291 123.611161,17.72 C123.801909,17.7924909 123.965915,17.9216018 124.081161,18.09 C124.196813,18.267954 124.252849,18.4780887 124.241161,18.69 C124.242945,18.9251882 124.173195,19.1553627 124.041161,19.35 C123.897204,19.5656594 123.691599,19.7329317 123.451161,19.83 C123.172355,19.9456377 122.872976,20.0034723 122.571161,20 C122.134224,20.031861 121.699701,19.911749 121.341161,19.66 C121.058852,19.402388 120.880932,19.0501059 120.841161,18.67 L120.841161,18.67 Z" id="Path"></path>
            <polygon id="Path" points="127.471161 19.91 127.471161 14.18 128.221161 14.18 128.221161 17 131.031161 14.18 132.031161 14.18 129.631161 16.5 132.141161 19.91 131.141161 19.91 129.141161 17.01 128.201161 17.92 128.201161 19.92"></polygon>
            <path d="M135.481161,19.39 C135.26218,19.5914412 135.007929,19.7507722 134.731161,19.86 C134.483102,19.9582253 134.217896,20.0058263 133.951161,20 C133.589406,20.0109238 133.235361,19.8940889 132.951161,19.67 C132.712985,19.4485027 132.5818,19.1351175 132.591161,18.81 C132.583732,18.6169935 132.632358,18.4259656 132.731161,18.26 C132.814824,18.0952688 132.938633,17.9542646 133.091161,17.85 C133.244653,17.7474414 133.413407,17.669815 133.591161,17.62 C133.798292,17.5705915 134.008911,17.53716 134.221161,17.52 C134.645702,17.4825275 135.064865,17.3986949 135.471161,17.27 C135.474693,17.210052 135.474693,17.149948 135.471161,17.09 C135.492576,16.8676622 135.420063,16.6464961 135.271161,16.48 C135.039329,16.3126873 134.756454,16.2313607 134.471161,16.25 C134.215868,16.2265537 133.95983,16.2861791 133.741161,16.42 C133.552384,16.5767303 133.427815,16.7973938 133.391161,17.04 L132.701161,16.94 C132.744772,16.6815119 132.851225,16.4376983 133.011161,16.23 C133.174451,16.0347383 133.389262,15.8892211 133.631161,15.81 C133.933086,15.7045181 134.251402,15.653723 134.571161,15.66 C134.863157,15.6537638 135.154054,15.6977366 135.431161,15.79 C135.618291,15.8497851 135.786986,15.9565108 135.921161,16.1 C136.02981,16.2413281 136.105026,16.4054362 136.141161,16.58 C136.156225,16.7964048 136.156225,17.0135952 136.141161,17.23 L136.141161,18.17 C136.130926,18.5839802 136.147628,18.9981879 136.191161,19.41 C136.222502,19.5856338 136.283362,19.7546912 136.371161,19.91 L135.631161,19.91 C135.551812,19.7465123 135.501077,19.5706317 135.481161,19.39 Z M135.421161,17.82 C135.054417,17.9588572 134.671227,18.0496126 134.281161,18.09 C134.069793,18.1126345 133.861747,18.1596127 133.661161,18.23 C133.431376,18.3190978 133.28299,18.5436816 133.291161,18.79 C133.285519,18.9705538 133.362901,19.1437425 133.501161,19.26 C133.67658,19.3990481 133.897955,19.4668885 134.121161,19.45 C134.375881,19.4533898 134.627216,19.3914168 134.851161,19.27 C135.049543,19.1602461 135.209944,18.9928703 135.311161,18.79 C135.398906,18.5641172 135.436441,18.3218444 135.421161,18.08 L135.421161,17.82 Z" id="Shape"></path>
            <path d="M137.261161,19.91 L137.261161,15.76 L137.891161,15.76 L137.891161,16.35 C138.174933,15.8992195 138.679052,15.6357027 139.211161,15.66 C139.448298,15.6591603 139.683104,15.7068021 139.901161,15.8 C140.086593,15.8720222 140.249024,15.9929813 140.371161,16.15 C140.478325,16.3069893 140.553116,16.4837679 140.591161,16.67 C140.607645,16.8997047 140.607645,17.1302953 140.591161,17.36 L140.591161,19.91 L139.881161,19.91 L139.881161,17.38 C139.89369,17.163575 139.866578,16.9466818 139.801161,16.74 C139.745558,16.5972326 139.643371,16.4774266 139.511161,16.4 C139.361705,16.3152977 139.192949,16.2705257 139.021161,16.27 C138.736997,16.2654716 138.461738,16.3691406 138.251161,16.56 C137.993289,16.8570828 137.873377,17.2495223 137.921161,17.64 L137.921161,19.91 L137.261161,19.91 Z" id="Path"></path>
            <path d="M143.271161,19.28 L143.371161,19.9 C143.197007,19.9380469 143.019413,19.9581518 142.841161,19.96 C142.637525,19.9703498 142.434576,19.929072 142.251161,19.84 C142.119893,19.7676709 142.01488,19.655657 141.951161,19.52 C141.883365,19.2488515 141.856401,18.9691056 141.871161,18.69 L141.871161,16.31 L141.351161,16.31 L141.351161,15.76 L141.871161,15.76 L141.871161,14.76 L142.571161,14.34 L142.571161,15.79 L143.271161,15.79 L143.271161,16.34 L142.571161,16.34 L142.571161,18.76 C142.554741,18.8894815 142.554741,19.0205185 142.571161,19.15 C142.60006,19.2023996 142.641237,19.2470081 142.691161,19.28 C142.763556,19.3230777 142.847011,19.3439413 142.931161,19.34 L143.271161,19.28 Z" id="Path"></path>
            <path d="M143.731161,17.83 C143.677171,17.1958091 143.912343,16.5711339 144.371161,16.13 C144.734177,15.8158617 145.201238,15.6482903 145.681161,15.66 C146.204956,15.6409838 146.71152,15.8487117 147.071161,16.23 C147.456043,16.6473291 147.654594,17.2032729 147.621161,17.77 C147.643139,18.2031538 147.560834,18.635256 147.381161,19.03 C147.223658,19.3335785 146.980183,19.5840096 146.681161,19.75 C146.375397,19.9192754 146.030612,20.0054716 145.681161,20 C145.153364,20.0196818 144.641632,19.8164407 144.271161,19.44 C143.884907,18.9961052 143.69068,18.4170233 143.731161,17.83 L143.731161,17.83 Z M144.451161,17.83 C144.421622,18.2588716 144.545692,18.6842559 144.801161,19.03 C145.020827,19.2858465 145.344074,19.429104 145.681161,19.42 C146.017337,19.4280047 146.338388,19.280395 146.551161,19.02 C146.806202,18.670622 146.926899,18.2410844 146.891161,17.81 C146.920741,17.3919586 146.800178,16.9770815 146.551161,16.64 C146.332057,16.3891516 146.014208,16.2466679 145.681161,16.25 C145.344074,16.240896 145.020827,16.3841535 144.801161,16.64 C144.543948,16.9810488 144.41955,17.404003 144.451161,17.83 L144.451161,17.83 Z" id="Shape"></path>
            <path d="M148.471161,19.91 L148.471161,15.76 L149.111161,15.76 L149.111161,16.35 C149.394933,15.8992195 149.899052,15.6357027 150.431161,15.66 C150.668298,15.6591603 150.903104,15.7068021 151.121161,15.8 C151.3052,15.8745198 151.46703,15.9950318 151.591161,16.15 C151.694185,16.3092157 151.768635,16.4851886 151.811161,16.67 C151.826177,16.8997549 151.826177,17.1302451 151.811161,17.36 L151.811161,19.91 L151.111161,19.91 L151.111161,17.38 C151.119295,17.1637435 151.092278,16.9476002 151.031161,16.74 C150.972413,16.5991379 150.870993,16.4802315 150.741161,16.4 C150.591705,16.3152977 150.422949,16.2705257 150.251161,16.27 C149.964243,16.26687 149.686346,16.3701906 149.471161,16.56 C149.221229,16.8610589 149.105578,17.2513813 149.151161,17.64 L149.151161,19.91 L148.471161,19.91 Z" id="Path"></path>
            <path d="M152.671161,18.67 L153.371161,18.56 C153.397873,18.8069098 153.515505,19.0350458 153.701161,19.2 C154.149304,19.4738495 154.713018,19.4738495 155.161161,19.2 C155.308297,19.087836 155.396576,18.9149559 155.401161,18.73 C155.403425,18.5777135 155.323069,18.4361348 155.191161,18.36 C154.962289,18.2498423 154.720353,18.1691971 154.471161,18.12 C154.104482,18.0409957 153.746188,17.9271453 153.401161,17.78 C153.021423,17.619371 152.779201,17.2421407 152.791161,16.83 C152.788178,16.6514418 152.833066,16.4753424 152.921161,16.32 C153.003304,16.1630186 153.119464,16.0263602 153.261161,15.92 C153.39763,15.8263078 153.550168,15.7585135 153.711161,15.72 C153.90862,15.6586479 154.114398,15.6282872 154.321161,15.63 C154.614756,15.6248854 154.906634,15.6757943 155.181161,15.78 C155.393912,15.8521935 155.581379,15.9841145 155.721161,16.16 C155.853564,16.3498323 155.936095,16.5699164 155.961161,16.8 L155.281161,16.89 C155.251872,16.6947825 155.152303,16.5169797 155.001161,16.39 C154.817334,16.2609533 154.595416,16.1975483 154.371161,16.21 C154.13035,16.1933139 153.890053,16.2490351 153.681161,16.37 C153.553345,16.4548087 153.474957,16.596654 153.471161,16.75 C153.4707,16.8383324 153.502732,16.923751 153.561161,16.99 C153.628132,17.0809812 153.722911,17.1476775 153.831161,17.18 C154.034477,17.2509919 154.241438,17.3110774 154.451161,17.36 C154.791634,17.4470513 155.125749,17.557309 155.451161,17.69 C155.638234,17.7642326 155.798555,17.8931863 155.911161,18.06 C156.030335,18.2367661 156.089899,18.4469921 156.081161,18.66 C156.079374,18.896152 156.006166,19.1262355 155.871161,19.32 C155.729632,19.5378545 155.523254,19.7057554 155.281161,19.8 C155.005619,19.914843 154.709666,19.9726728 154.411161,19.97 C153.971671,19.9962404 153.535804,19.8767284 153.171161,19.63 C152.895262,19.3799294 152.717912,19.0394183 152.671161,18.67 L152.671161,18.67 Z" id="Path"></path>
            <path d="M159.301161,19.91 L159.301161,14.18 L161.451161,14.18 C161.808905,14.1675351 162.165626,14.2252898 162.501161,14.35 C162.758591,14.4617223 162.975157,14.6503444 163.121161,14.89 C163.267735,15.112973 163.347535,15.3731899 163.351161,15.64 C163.349854,15.8872456 163.280671,16.1293839 163.151161,16.34 C163.002644,16.5650866 162.795072,16.7449824 162.551161,16.86 C162.867318,16.9416392 163.1482,17.1242129 163.351161,17.38 C163.53494,17.6321394 163.629898,17.9381145 163.621161,18.25 C163.625486,18.5068179 163.567135,18.7608183 163.451161,18.99 C163.358703,19.202398 163.214265,19.388104 163.031161,19.53 C162.84561,19.6643944 162.634671,19.7596574 162.411161,19.81 C162.106139,19.8795886 161.794005,19.9131513 161.481161,19.91 L159.301161,19.91 Z M160.061161,16.59 L161.301161,16.59 C161.543106,16.5957938 161.784863,16.5722896 162.021161,16.52 C162.194421,16.4775466 162.346877,16.3747278 162.451161,16.23 C162.557103,16.0855078 162.610071,15.9089479 162.601161,15.73 C162.607124,15.5528899 162.558228,15.3782619 162.461161,15.23 C162.371323,15.0885914 162.232446,14.9853237 162.071161,14.94 C161.786619,14.8710226 161.493511,14.8440702 161.201161,14.86 L160.031161,14.86 L160.061161,16.59 Z M160.061161,19.23 L161.481161,19.23 C161.654168,19.2450505 161.828154,19.2450505 162.001161,19.23 C162.155447,19.2060166 162.304354,19.1552528 162.441161,19.08 C162.559981,18.9957287 162.658955,18.8865157 162.731161,18.76 C162.805,18.6108537 162.842684,18.4464167 162.841161,18.28 C162.844571,18.081593 162.788875,17.8866572 162.681161,17.72 C162.569465,17.5612374 162.407343,17.4449325 162.221161,17.39 C161.948534,17.3108569 161.664749,17.277073 161.381161,17.29 L160.031161,17.29 L160.061161,19.23 Z" id="Shape"></path>
            <path d="M167.321161,19.39 C167.10022,19.5938331 166.842223,19.7533836 166.561161,19.86 C166.316219,19.9569197 166.054543,20.0044971 165.791161,20 C165.428901,20.0144643 165.07366,19.897235 164.791161,19.67 C164.547054,19.4519128 164.411655,19.1371998 164.421161,18.81 C164.419833,18.6176875 164.468048,18.4282729 164.561161,18.26 C164.644824,18.0952688 164.768633,17.9542646 164.921161,17.85 C165.077202,17.7455316 165.249563,17.6678001 165.431161,17.62 C165.63505,17.5712773 165.842293,17.5378509 166.051161,17.52 C166.478789,17.4812448 166.90113,17.397447 167.311161,17.27 L167.311161,17.09 C167.337855,16.867108 167.264645,16.6438171 167.111161,16.48 C166.646142,16.1958052 166.067008,16.1730941 165.581161,16.42 C165.397769,16.5811654 165.274395,16.7997135 165.231161,17.04 L164.541161,16.94 C164.589156,16.6828383 164.695179,16.4400125 164.851161,16.23 C165.014451,16.0347383 165.229262,15.8892211 165.471161,15.81 C165.773292,15.705338 166.091461,15.6545663 166.411161,15.66 C166.706477,15.6530119 167.000787,15.6969893 167.281161,15.79 C167.465472,15.849675 167.630955,15.9565495 167.761161,16.1 C167.873809,16.2388815 167.94949,16.4040043 167.981161,16.58 C168.002882,16.7961223 168.002882,17.0138777 167.981161,17.23 L167.981161,18.17 C167.956379,18.5829619 167.956379,18.9970381 167.981161,19.41 C168.012502,19.5856338 168.073362,19.7546912 168.161161,19.91 L167.431161,19.91 C167.3609,19.7455095 167.32353,19.5688522 167.321161,19.39 Z M167.261161,17.82 C166.890556,17.9575004 166.504236,18.0482016 166.111161,18.09 C165.902996,18.1123144 165.698224,18.1593112 165.501161,18.23 C165.38566,18.2747962 165.287536,18.3553977 165.221161,18.46 C165.153948,18.5567441 165.118956,18.6722201 165.121161,18.79 C165.115519,18.9705538 165.192901,19.1437425 165.331161,19.26 C165.510109,19.3997004 165.734813,19.4674682 165.961161,19.45 C166.21282,19.45441 166.461184,19.3923188 166.681161,19.27 C166.882001,19.1634694 167.043269,18.9951895 167.141161,18.79 C167.232944,18.5650541 167.27392,18.322615 167.261161,18.08 L167.261161,17.82 Z" id="Shape"></path>
            <path d="M168.811161,18.67 L169.501161,18.56 C169.527873,18.8069098 169.645505,19.0350458 169.831161,19.2 C170.047425,19.3594216 170.313047,19.4373374 170.581161,19.42 C170.835735,19.4398347 171.089521,19.3728632 171.301161,19.23 C171.44234,19.1140862 171.526258,18.9426021 171.531161,18.76 C171.533477,18.6102533 171.457712,18.4700888 171.331161,18.39 C171.102289,18.2798423 170.860353,18.1991971 170.611161,18.15 C170.241354,18.0705635 169.879781,17.956735 169.531161,17.81 C169.345037,17.7287139 169.188076,17.5926811 169.081161,17.42 C168.981526,17.2502964 168.929693,17.0567848 168.931161,16.86 C168.928279,16.6826824 168.969516,16.5074289 169.051161,16.35 C169.137013,16.1925646 169.256515,16.0559905 169.401161,15.95 C169.53763,15.8563078 169.690168,15.7885135 169.851161,15.75 C170.04542,15.6896624 170.247748,15.6593133 170.451161,15.66 C170.744891,15.653115 171.037106,15.7040827 171.311161,15.81 C171.528078,15.8794098 171.719501,16.0116656 171.861161,16.19 C171.984956,16.384243 172.066709,16.6022534 172.101161,16.83 L171.411161,16.92 C171.390227,16.7243705 171.293259,16.5448008 171.141161,16.42 C170.9546,16.2887653 170.72878,16.2252534 170.501161,16.24 C170.26035,16.2233139 170.020053,16.2790351 169.811161,16.4 C169.688393,16.488121 169.614292,16.6289123 169.611161,16.78 C169.611863,16.8664327 169.639863,16.9504327 169.691161,17.02 C169.762334,17.1065723 169.855643,17.1722338 169.961161,17.21 L170.581161,17.39 C170.92249,17.4741013 171.256817,17.5844291 171.581161,17.72 C171.771909,17.7924909 171.935915,17.9216018 172.051161,18.09 C172.166813,18.267954 172.222849,18.4780887 172.211161,18.69 C172.212945,18.9251882 172.143195,19.1553627 172.011161,19.35 C171.867204,19.5656594 171.661599,19.7329317 171.421161,19.83 C171.142355,19.9456377 170.842976,20.0034723 170.541161,20 C170.104224,20.031861 169.669701,19.911749 169.311161,19.66 C169.028852,19.402388 168.850932,19.0501059 168.811161,18.67 L168.811161,18.67 Z" id="Path"></path>
            <path d="M175.961161,18.57 L176.691161,18.66 C176.593487,19.0545946 176.368566,19.4060336 176.051161,19.66 C175.228622,20.1957428 174.148264,20.1094785 173.421161,19.45 C173.047559,19.0152118 172.85752,18.4522653 172.891161,17.88 C172.855031,17.2874646 173.048405,16.7037634 173.431161,16.25 C173.792857,15.864552 174.302849,15.6532696 174.831161,15.67 C175.342876,15.6533724 175.836207,15.8616679 176.181161,16.24 C176.55879,16.6803921 176.749029,17.2511087 176.711161,17.83 L176.711161,18 L173.611161,18 C173.623748,18.3679666 173.761302,18.7206698 174.001161,19 C174.226498,19.2386572 174.543075,19.3696547 174.871161,19.36 C175.106912,19.3658035 175.338287,19.2956898 175.531161,19.16 C175.726723,19.0072931 175.875668,18.8029262 175.961161,18.57 L175.961161,18.57 Z M173.651161,17.43 L175.971161,17.43 C175.966159,17.1479454 175.871604,16.8747864 175.701161,16.65 C175.492384,16.383357 175.169703,16.2312889 174.831161,16.24 C174.527155,16.2333151 174.233943,16.3527717 174.021161,16.57 C173.794485,16.8002185 173.662448,17.1071143 173.651161,17.43 L173.651161,17.43 Z" id="Shape"></path>
            <polygon id="Path" points="177.591161 19.91 177.591161 14.18 178.291161 14.18 178.291161 19.91"></polygon>
            <polygon id="Path" points="179.141161 18.19 179.141161 17.48 181.301161 17.48 181.301161 18.19"></polygon>
            <path d="M181.941161,18.07 L182.661161,18 C182.679644,18.2517135 182.758539,18.495261 182.891161,18.71 C183.040185,18.9073808 183.240927,19.0596682 183.471161,19.15 C183.748463,19.2705654 184.048906,19.3286056 184.351161,19.32 C184.609576,19.3249542 184.866843,19.2843331 185.111161,19.2 C185.30771,19.1281659 185.480695,19.0036169 185.611161,18.84 C185.717095,18.6987927 185.773349,18.5265126 185.771161,18.35 C185.775239,18.1793184 185.718532,18.0127415 185.611161,17.88 C185.475388,17.7222329 185.299012,17.6046492 185.101161,17.54 C184.941161,17.48 184.601161,17.39 184.101161,17.26 C183.718798,17.1869412 183.346275,17.069479 182.991161,16.91 C182.745149,16.7849004 182.535176,16.5990229 182.381161,16.37 C182.248886,16.1569237 182.179553,15.9107898 182.181161,15.66 C182.179437,15.3707484 182.266716,15.087965 182.431161,14.85 C182.603543,14.5914739 182.851484,14.3924226 183.141161,14.28 C183.478047,14.1447646 183.838159,14.0768191 184.201161,14.08 C184.584871,14.0733359 184.965928,14.1447841 185.321161,14.29 C185.624823,14.4117259 185.885747,14.620465 186.071161,14.89 C186.239809,15.1611714 186.336204,15.4710135 186.351161,15.79 L185.621161,15.85 C185.606594,15.5332059 185.461854,15.2364884 185.221161,15.03 C184.932588,14.8189479 184.577372,14.7194875 184.221161,14.75 C183.869438,14.7214925 183.51809,14.8093295 183.221161,15 C183.029396,15.1447386 182.915033,15.369775 182.911161,15.61 C182.904513,15.8043503 182.98523,15.9914683 183.131161,16.12 C183.483865,16.3308289 183.874631,16.4701454 184.281161,16.53 C184.710002,16.6165648 185.131318,16.7369408 185.541161,16.89 C185.839852,17.0106946 186.09697,17.2156942 186.281161,17.48 C186.44387,17.7182717 186.527804,18.0015497 186.521161,18.29 C186.518411,18.5956153 186.428186,18.8940492 186.261161,19.15 C186.074597,19.4256461 185.814872,19.6438148 185.511161,19.78 C185.161316,19.9323973 184.782685,20.0074413 184.401161,20 C183.957441,20.0148618 183.515283,19.9400352 183.101161,19.78 C182.76482,19.6423562 182.478669,19.4050601 182.281161,19.1 C182.075113,18.7945403 181.957453,18.4380975 181.941161,18.07 Z" id="Path"></path>
            <path d="M189.031161,19.28 L189.131161,19.9 C188.957007,19.9380469 188.779413,19.9581518 188.601161,19.96 C188.397525,19.9703498 188.194576,19.929072 188.011161,19.84 C187.879893,19.7676709 187.77488,19.655657 187.711161,19.52 C187.63803,19.2497969 187.610984,18.9691966 187.631161,18.69 L187.631161,16.31 L187.111161,16.31 L187.111161,15.76 L187.631161,15.76 L187.631161,14.76 L188.331161,14.34 L188.331161,15.79 L189.031161,15.79 L189.031161,16.34 L188.331161,16.34 L188.331161,18.76 C188.314741,18.8894815 188.314741,19.0205185 188.331161,19.15 C188.36006,19.2023996 188.401237,19.2470081 188.451161,19.28 C188.523556,19.3230777 188.607011,19.3439413 188.691161,19.34 L189.031161,19.28 Z" id="Path"></path>
            <path d="M192.441161,19.39 C192.22218,19.5914412 191.967929,19.7507722 191.691161,19.86 C191.443102,19.9582253 191.177896,20.0058263 190.911161,20 C190.549406,20.0109238 190.195361,19.8940889 189.911161,19.67 C189.670376,19.4495371 189.535663,19.1364219 189.541161,18.81 C189.529715,18.4115534 189.721914,18.0346931 190.051161,17.81 C190.203682,17.7057154 190.372728,17.627954 190.551161,17.58 C190.758292,17.5305915 190.968911,17.49716 191.181161,17.48 C191.605384,17.4403345 192.024315,17.3565483 192.431161,17.23 L192.431161,17.05 C192.457855,16.827108 192.384645,16.6038171 192.231161,16.44 C192.000878,16.2695252 191.716821,16.1878586 191.431161,16.21 C191.175968,16.1879723 190.920367,16.2474957 190.701161,16.38 C190.517769,16.5411654 190.394395,16.7597135 190.351161,17 L189.661161,16.9 C189.713514,16.644198 189.819139,16.4022846 189.971161,16.19 C190.136524,15.9970454 190.350636,15.8520014 190.591161,15.77 C190.912575,15.6595077 191.251474,15.6086729 191.591161,15.62 C191.883157,15.6137638 192.174054,15.6577366 192.451161,15.75 C192.637033,15.8124542 192.805113,15.9187906 192.941161,16.06 C193.045837,16.2036889 193.120644,16.3669049 193.161161,16.54 C193.176225,16.7564048 193.176225,16.9735952 193.161161,17.19 L193.161161,18.13 C193.150926,18.5439802 193.167628,18.9581879 193.211161,19.37 C193.243625,19.5439388 193.300875,19.7123207 193.381161,19.87 L192.651161,19.87 C192.5551,19.7227131 192.484137,19.5605116 192.441161,19.39 Z M192.381161,17.82 C192.010556,17.9575004 191.624236,18.0482016 191.231161,18.09 C191.022996,18.1123144 190.818224,18.1593112 190.621161,18.23 C190.393066,18.3228467 190.243174,18.5437408 190.241161,18.79 C190.23479,18.9729 190.316628,19.1477358 190.461161,19.26 C190.63658,19.3990481 190.857955,19.4668885 191.081161,19.45 C191.33282,19.45441 191.581184,19.3923188 191.801161,19.27 C192.002485,19.1608408 192.166264,18.9935767 192.271161,18.79 C192.353873,18.5627958 192.391244,18.321581 192.381161,18.08 L192.381161,17.82 Z" id="Shape"></path>
            <path d="M196.901161,19.91 L196.901161,19.38 C196.656805,19.7830743 196.212061,20.0207827 195.741161,20 C195.417845,20.0016694 195.101248,19.9077342 194.831161,19.73 C194.551803,19.5362787 194.330538,19.2700692 194.191161,18.96 C194.033288,18.6080508 193.954766,18.2256827 193.961161,17.84 C193.955607,17.4531406 194.02699,17.0690345 194.171161,16.71 C194.287653,16.3895773 194.505284,16.1157834 194.791161,15.93 C195.063824,15.7498016 195.384361,15.655731 195.711161,15.66 C195.94415,15.6583444 196.174061,15.7132485 196.381161,15.82 C196.568608,15.9208154 196.73228,16.0606193 196.861161,16.23 L196.861161,14.18 L197.561161,14.18 L197.561161,19.91 L196.901161,19.91 Z M194.681161,17.84 C194.658586,18.2556986 194.782432,18.6661603 195.031161,19 C195.219954,19.245247 195.511664,19.3892561 195.821161,19.3900172 C196.123749,19.3910289 196.410531,19.2549915 196.601161,19.02 C196.845132,18.6846486 196.962082,18.2735534 196.931161,17.86 C196.962577,17.4182901 196.846511,16.9786436 196.601161,16.61 C196.408109,16.3591218 196.107671,16.2144663 195.791161,16.22 C195.486889,16.2214028 195.199808,16.3612626 195.011161,16.6 C194.759143,16.9618416 194.642335,17.4007565 194.681161,17.84 L194.681161,17.84 Z" id="Shape"></path>
            <path d="M200.231161,19.28 L200.331161,19.9 C200.156918,19.937509 199.979379,19.9576078 199.801161,19.96 C199.597427,19.9716903 199.394143,19.9303445 199.211161,19.84 C199.079893,19.7676709 198.97488,19.655657 198.911161,19.52 C198.833103,19.250676 198.802647,18.9697957 198.821161,18.69 L198.821161,16.31 L198.311161,16.31 L198.311161,15.76 L198.821161,15.76 L198.821161,14.76 L199.521161,14.34 L199.521161,15.79 L200.231161,15.79 L200.231161,16.34 L199.521161,16.34 L199.521161,18.76 C199.497715,18.8889429 199.497715,19.0210571 199.521161,19.15 C199.543978,19.2065114 199.586653,19.2527418 199.641161,19.28 C199.713556,19.3230777 199.797011,19.3439413 199.881161,19.34 L200.231161,19.28 Z" id="Path"></path>
            <path d="M37.3611613,36.55 L37.3611613,35.23 L40.7911613,35.23 L40.7911613,38.36 C40.3715412,38.7401924 39.877887,39.0295759 39.3411613,39.21 C38.7305921,39.4545749 38.0788935,39.5801627 37.4211613,39.58 C36.6711593,39.5994754 35.9293674,39.4200653 35.2711613,39.06 C34.662733,38.7295059 34.1783528,38.2100257 33.8911613,37.58 C33.5762423,36.925056 33.4154674,36.2067002 33.4211613,35.48 C33.4104431,34.7213899 33.5891744,33.9720933 33.9411613,33.3 C34.2793989,32.6649097 34.8072213,32.1510694 35.4511613,31.83 C36.0376332,31.5515592 36.6823265,31.4178196 37.3311613,31.44 C38.1434334,31.3911476 38.9498605,31.6050261 39.6311613,32.05 C40.182777,32.4658912 40.5604811,33.0716432 40.6911613,33.75 L39.1111613,34.05 C39.012765,33.6802127 38.7903613,33.3554326 38.4811613,33.13 C38.1430605,32.8996817 37.7399434,32.7840046 37.3311613,32.8 C36.7117197,32.7717669 36.1102513,33.0123542 35.6811613,33.46 C35.2217311,34.0203821 34.9992672,34.7380074 35.0611613,35.46 C34.9986915,36.2144139 35.2237339,36.9645552 35.6911613,37.56 C36.1010548,38.0273079 36.7000438,38.2845424 37.3211613,38.26 C37.6634584,38.2599185 38.0026871,38.195465 38.3211613,38.07 C38.6308128,37.9551917 38.920893,37.7932865 39.1811613,37.59 L39.1811613,36.59 L37.3611613,36.55 Z" id="Path"></path>
            <polygon id="Path" points="42.3411613 39.45 42.3411613 31.57 43.8511613 31.57 43.8511613 39.45"></polygon>
            <path d="M48.8011613,37.63 L50.3111613,37.88 C50.1513212,38.3897037 49.8279829,38.8325367 49.3911613,39.14 C48.9259505,39.4455583 48.377412,39.5992888 47.8211613,39.58 C46.9664084,39.6373753 46.1399627,39.2617181 45.6211613,38.58 C45.2221144,37.9919023 45.0255281,37.2898081 45.0611613,36.58 C45.0136124,35.7724318 45.2785812,34.9775252 45.8011613,34.36 C46.2748828,33.8279121 46.9589881,33.5315884 47.6711613,33.55 C48.4322842,33.5150927 49.1680601,33.8277974 49.6711613,34.4 C50.2289357,35.1456037 50.4859437,36.0736882 50.3911613,37 L46.6011613,37 C46.6065319,37.3658329 46.7371205,37.718775 46.9711613,38 C47.1954658,38.2412756 47.5117788,38.3757995 47.8411613,38.37 C48.0563979,38.3728942 48.2668233,38.3062595 48.4411613,38.18 C48.6100147,38.0337481 48.7346929,37.8432675 48.8011613,37.63 Z M48.8911613,36.11 C48.9046774,35.7461947 48.7836292,35.3901708 48.5511613,35.11 C48.3448603,34.8870736 48.0548985,34.7603378 47.7511613,34.7603378 C47.4474241,34.7603378 47.1574623,34.8870736 46.9511613,35.11 C46.7188063,35.3891987 46.6040616,35.7477758 46.6311613,36.11 L48.8911613,36.11 Z" id="Shape"></path>
            <path d="M51.7111613,33 L51.7111613,31.6 L53.2211613,31.6 L53.2211613,33 L51.7111613,33 Z M51.7111613,39.48 L51.7111613,33.74 L53.2211613,33.74 L53.2211613,39.45 L51.7111613,39.48 Z" id="Shape"></path>
            <path d="M59.8411613,35.43 L58.3611613,35.7 C58.3395809,35.4343976 58.2223184,35.1856591 58.0311613,35 C57.8332713,34.8412939 57.584617,34.7595932 57.3311613,34.77 C56.9903295,34.7563451 56.6621453,34.9001561 56.4411613,35.16 C56.1812929,35.5411536 56.0611763,36.0004232 56.1011613,36.46 C56.0535474,36.964295 56.1730114,37.4702603 56.4411613,37.9 C56.6635633,38.1783688 57.0051457,38.3343086 57.3611613,38.32 C57.617949,38.3297018 57.8686163,38.2401778 58.0611613,38.07 C58.2765088,37.8381457 58.4130173,37.5441274 58.4511613,37.23 L59.9311613,37.48 C59.8285598,38.0969219 59.5094757,38.6570918 59.0311613,39.06 C58.5237025,39.4268257 57.9065922,39.6101956 57.2811613,39.58 C56.5325946,39.6124118 55.8055152,39.3252155 55.2811613,38.79 C54.2960572,37.4924577 54.2960572,35.6975423 55.2811613,34.4 C55.8076296,33.8679791 56.533234,33.5813653 57.2811613,33.61 C57.8683756,33.5786576 58.4501734,33.7363739 58.9411613,34.06 C59.3860246,34.4030793 59.7029318,34.8854825 59.8411613,35.43 L59.8411613,35.43 Z" id="Path"></path>
            <path d="M62.5911613,31.57 L62.5911613,34.47 C63.2280603,33.6555621 64.339631,33.3828347 65.2811613,33.81 C65.5310594,33.9142996 65.7485575,34.0834648 65.9111613,34.3 C66.0538563,34.5004616 66.152673,34.7287623 66.2011613,34.97 C66.2634061,35.3433007 66.2901921,35.7216533 66.2811613,36.1 L66.2811613,39.45 L64.7711613,39.45 L64.7711613,36.45 C64.7921183,36.0709999 64.7618452,35.6909048 64.6811613,35.32 C64.6258573,35.1610379 64.5206192,35.0242284 64.3811613,34.93 C64.2151957,34.8311965 64.0241678,34.7825713 63.8311613,34.79 C63.5954507,34.7866553 63.3634608,34.8489809 63.1611613,34.97 C62.9564081,35.0957218 62.8037658,35.2909619 62.7311613,35.52 C62.6246313,35.8731111 62.5773244,36.2414289 62.5911613,36.61 L62.5911613,39.47 L61.0811613,39.47 L61.0811613,31.57 L62.5911613,31.57 Z" id="Path"></path>
            <path d="M67.3711613,37.82 L68.8911613,37.59 C68.9337628,37.8539029 69.0727228,38.0926291 69.2811613,38.26 C69.52498,38.4259134 69.8167229,38.5067578 70.1111613,38.49 C70.4200491,38.5079415 70.7270563,38.4311897 70.9911613,38.27 C71.1196628,38.1777647 71.194474,38.0281424 71.1911613,37.87 C71.1928381,37.7628393 71.1534855,37.6590914 71.0811613,37.58 C70.9273291,37.4796808 70.7531339,37.4147846 70.5711613,37.39 C69.7691119,37.2576449 68.9908227,37.0083228 68.2611613,36.65 C67.8267842,36.3711151 67.569097,35.8860569 67.5811613,35.37 C67.5769568,34.8851709 67.7941965,34.4249172 68.1711613,34.12 C68.7072302,33.726808 69.3695175,33.5452131 70.0311613,33.61 C70.6367955,33.5673722 71.2416627,33.7029459 71.7711613,34 C72.1626512,34.2641085 72.4437217,34.6625881 72.5611613,35.12 L71.1311613,35.39 C71.082608,35.184748 70.9619504,35.0037615 70.7911613,34.88 C70.5635565,34.7403647 70.2972176,34.6772845 70.0311613,34.7 C69.737646,34.678404 69.4437924,34.7371747 69.1811613,34.87 C69.0703677,34.9290899 69.0011613,35.0444339 69.0011613,35.17 C69.0073702,35.2833381 69.0666684,35.3871099 69.1611613,35.45 C69.6099744,35.653202 70.0843112,35.7944938 70.5711613,35.87 C71.1727472,35.9702065 71.7457203,36.1987137 72.2511613,36.54 C72.5688405,36.8232605 72.7415672,37.2348645 72.7211613,37.66 C72.7095297,38.1890249 72.4550398,38.6832515 72.0311613,39 C71.4738194,39.4165896 70.7852694,39.6188955 70.0911613,39.57 C69.439798,39.6041378 68.7937601,39.4365171 68.2411613,39.09 C67.8057024,38.7872127 67.4962126,38.3354287 67.3711613,37.82 L67.3711613,37.82 Z" id="Path"></path>
            <path d="M76.7411613,33.74 L76.7411613,35 L75.7411613,35 L75.7411613,37.3 C75.7217824,37.5696523 75.7217824,37.8403477 75.7411613,38.11 C75.7584995,38.1876724 75.8050458,38.2557016 75.8711613,38.3 C75.9434761,38.3533425 76.0313128,38.3814503 76.1211613,38.38 C76.3314681,38.3645645 76.5376794,38.3138569 76.7311613,38.23 L76.8611613,39.4 C76.4842742,39.5568309 76.0793449,39.6350945 75.6711613,39.63 C75.4178546,39.6306163 75.1667365,39.5831075 74.9311613,39.49 C74.7413332,39.4209774 74.5749188,39.2996336 74.4511613,39.14 C74.3409664,38.9600421 74.2694487,38.7591114 74.2411613,38.55 C74.2162527,38.1937682 74.2162527,37.8362318 74.2411613,37.48 L74.2411613,35 L73.5511613,35 L73.5511613,33.74 L74.2411613,33.74 L74.2411613,32.61 L75.7611613,31.73 L75.7611613,33.73 L76.7411613,33.74 Z" id="Path"></path>
            <path d="M81.1911613,37.63 L82.6911613,37.88 C82.535484,38.3917928 82.2112404,38.8358656 81.7711613,39.14 C81.3101638,39.4466179 80.7644346,39.6005415 80.2111613,39.58 C79.3560743,39.6392186 78.5287935,39.2631819 78.0111613,38.58 C77.6044879,37.9950567 77.4039594,37.2914478 77.4411613,36.58 C77.3936124,35.7724318 77.6585812,34.9775252 78.1811613,34.36 C78.6626706,33.8576388 79.3357613,33.5847642 80.0311613,33.61 C80.7922842,33.5750927 81.5280601,33.8877974 82.0311613,34.46 C82.574578,35.2004825 82.8240002,36.1162184 82.7311613,37.03 L79.0311613,37.03 C79.0278613,37.3973982 79.1595192,37.7532303 79.4011613,38.03 C79.6254658,38.2712756 79.9417788,38.4057995 80.2711613,38.4 C80.4829878,38.4007544 80.6895821,38.334224 80.8611613,38.21 C81.0208953,38.0495389 81.1348284,37.8492928 81.1911613,37.63 L81.1911613,37.63 Z M81.2711613,36.11 C81.2895939,35.745492 81.1679551,35.387731 80.9311613,35.11 C80.7347507,34.8861876 80.448815,34.761549 80.1511613,34.77 C79.8380684,34.7629756 79.537894,34.8947595 79.3311613,35.13 C79.1014462,35.4101911 78.9902143,35.7690037 79.0211613,36.13 L81.2711613,36.11 Z" id="Shape"></path>
            <polygon id="Path" points="84.1011613 39.45 84.1011613 31.57 85.6111613 31.57 85.6111613 39.45"></polygon>
            <polygon id="Path" points="87.2611613 39.45 87.2611613 31.57 88.7711613 31.57 88.7711613 39.45"></polygon>
            <path d="M94.1611613,39.45 L94.1611613,38.59 C93.9591648,38.8970455 93.6797716,39.145395 93.3511613,39.31 C93.0190007,39.4878548 92.6479406,39.5806198 92.2711613,39.5800092 C91.9213764,39.5779694 91.5776388,39.4885977 91.2711613,39.32 C90.9798105,39.166066 90.7477058,38.9198942 90.6111613,38.62 C90.462879,38.2136132 90.3949542,37.7822907 90.4111613,37.35 L90.4111613,33.74 L91.9211613,33.74 L91.9211613,36.36 C91.9012103,36.8547515 91.9279957,37.3502818 92.0011613,37.84 C92.0557152,38.0102055 92.1602525,38.1600421 92.3011613,38.27 C92.4678185,38.3777142 92.6627543,38.4334101 92.8611613,38.43 C93.1103817,38.4325367 93.3544929,38.3593034 93.5611613,38.22 C93.7496207,38.0902712 93.8929388,37.9050063 93.9711613,37.69 C94.0601766,37.1816849 94.0803578,36.6637 94.0311613,36.15 L94.0311613,33.74 L95.5411613,33.74 L95.5411613,39.45 L94.1611613,39.45 Z" id="Path"></path>
            <path d="M102.421161,39.45 L100.911161,39.45 L100.911161,36.54 C100.935087,36.1372796 100.901414,35.7332056 100.811161,35.34 C100.755688,35.170303 100.646976,35.0230157 100.501161,34.92 C100.343959,34.8170458 100.159001,34.764699 99.9711613,34.77 C99.7219413,34.7674633 99.4778293,34.8406966 99.2711613,34.98 C99.0709813,35.1195647 98.9203874,35.3191896 98.8411613,35.55 C98.7510819,35.9805283 98.7141395,36.4204785 98.7311613,36.86 L98.7311613,39.45 L97.2211613,39.45 L97.2211613,33.74 L98.6211613,33.74 L98.6211613,34.58 C99.0464933,33.9591766 99.7486343,33.585697 100.501161,33.58 C100.813731,33.5758463 101.12371,33.6371609 101.411161,33.76 C101.656728,33.8575076 101.873505,34.0157893 102.041161,34.22 C102.183485,34.4095484 102.28248,34.6280198 102.331161,34.86 C102.400199,35.1886616 102.430406,35.524293 102.421161,35.86 L102.421161,39.45 Z" id="Path"></path>
            <path d="M103.911161,39.82 L105.631161,40.03 C105.642787,40.1901303 105.714173,40.3400421 105.831161,40.45 C106.036717,40.570161 106.273592,40.6258964 106.511161,40.61 C106.815327,40.6299801 107.11927,40.5678099 107.391161,40.43 C107.534394,40.3444276 107.641167,40.2091819 107.691161,40.05 C107.750663,39.8251174 107.774287,39.5922507 107.761161,39.36 L107.761161,38.52 C107.392531,39.1021463 106.750196,39.4535414 106.061161,39.45 C105.320598,39.460935 104.629036,39.080956 104.241161,38.45 C103.869133,37.8806862 103.68387,37.2095425 103.711161,36.53 C103.658426,35.739306 103.904698,34.9576589 104.401161,34.34 C104.836073,33.8477459 105.464377,33.5701228 106.121161,33.58 C106.82019,33.5795097 107.473183,33.9285231 107.861161,34.51 L107.861161,33.71 L109.271161,33.71 L109.271161,38.83 C109.292879,39.3384788 109.238957,39.8473638 109.111161,40.34 C109.021144,40.6376688 108.859805,40.9088556 108.641161,41.13 C108.409803,41.333295 108.136744,41.4834771 107.841161,41.57 C107.428553,41.68822 107.000198,41.742186 106.571161,41.73 C105.849259,41.7981399 105.125068,41.6258808 104.511161,41.24 C104.121471,40.9389118 103.895632,40.4724243 103.901161,39.98 C103.901479,39.9265209 103.904817,39.8731025 103.911161,39.82 Z M105.261161,36.48 C105.21694,36.9507682 105.340943,37.4219789 105.611161,37.81 C105.81889,38.0791306 106.141219,38.2347378 106.481161,38.23 C106.839244,38.2301051 107.179288,38.0728699 107.411161,37.8 C107.686883,37.4325357 107.821708,36.9783882 107.791161,36.52 C107.830076,36.0513601 107.702613,35.5839944 107.431161,35.2 C107.203738,34.9213332 106.860777,34.76276 106.501161,34.77 C106.154918,34.7620861 105.825167,34.917699 105.611161,35.19 C105.350006,35.5671364 105.226435,36.0225857 105.261161,36.48 L105.261161,36.48 Z" id="Shape"></path>
            <path d="M115.591161,39.45 L113.291161,33.74 L114.871161,33.74 L115.951161,36.65 L116.261161,37.65 C116.341161,37.4 116.391161,37.24 116.421161,37.16 C116.451161,37.08 116.521161,36.84 116.581161,36.67 L117.661161,33.76 L119.211161,33.76 L116.951161,39.47 L115.591161,39.45 Z" id="Path"></path>
            <path d="M119.891161,36.52 C119.888334,36.009788 120.015681,35.5072849 120.261161,35.06 C120.481217,34.6122007 120.829251,34.2398042 121.261161,33.99 C121.726767,33.7348514 122.250262,33.6039777 122.781161,33.61 C123.57608,33.5816642 124.345997,33.8903576 124.901161,34.46 C125.452592,35.0249979 125.748873,35.7909937 125.721161,36.58 C125.748625,37.3797585 125.448899,38.1561568 124.891161,38.73 C124.338007,39.2903206 123.578321,39.5978123 122.791161,39.58 C122.269652,39.5809542 121.755432,39.4575414 121.291161,39.22 C120.83569,39.0074442 120.458073,38.6577995 120.211161,38.22 C119.959277,37.6905413 119.84902,37.1048046 119.891161,36.52 Z M121.431161,36.6 C121.403283,37.0690116 121.549253,37.5318439 121.841161,37.9 C122.09011,38.1924192 122.457199,38.3576097 122.841161,38.35 C123.226011,38.3620206 123.594925,38.1960092 123.841161,37.9 C124.132533,37.52429 124.274969,37.0542495 124.241161,36.58 C124.272606,36.1183227 124.129887,35.6616239 123.841161,35.3 C123.59597,35.0014768 123.227386,34.8319284 122.841161,34.84 C122.455856,34.8362879 122.089064,35.005012 121.841161,35.3 C121.546678,35.666784 121.400386,36.1306345 121.431161,36.6 Z" id="Shape"></path>
            <path d="M132.241161,39.45 L130.731161,39.45 L130.731161,36.54 C130.751197,36.1378135 130.720964,35.7346985 130.641161,35.34 C130.581785,35.1695794 130.469709,35.0224797 130.321161,34.92 C130.167601,34.8172332 129.985863,34.7648086 129.801161,34.77 C129.551669,34.7655171 129.306985,34.8389223 129.101161,34.98 C128.900981,35.1195647 128.750387,35.3191896 128.671161,35.55 C128.571105,35.9790699 128.530724,36.4198926 128.551161,36.86 L128.551161,39.45 L127.031161,39.45 L127.031161,33.74 L128.441161,33.74 L128.441161,34.58 C129.074048,33.6995562 130.230633,33.3720645 131.231161,33.79 C131.709177,33.9704283 132.058095,34.3876132 132.151161,34.89 C132.215952,35.2191813 132.242793,35.5547048 132.231161,35.89 L132.241161,39.45 Z" id="Path"></path>
            <polygon id="Path" points="137.031161 39.45 137.031161 31.57 142.431161 31.57 142.431161 32.91 138.621161 32.91 138.621161 34.77 141.911161 34.77 141.911161 36.1 138.621161 36.1 138.621161 39.45"></polygon>
            <path d="M145.291161,39.45 L143.781161,39.45 L143.781161,33.74 L145.181161,33.74 L145.181161,34.55 C145.343924,34.2579451 145.565205,34.0026206 145.831161,33.8 C146.025327,33.6760909 146.250827,33.6101757 146.481161,33.61 C146.834767,33.6132296 147.18069,33.7135471 147.481161,33.9 L147.031161,35.22 C146.8249,35.0673892 146.577535,34.9802888 146.321161,34.97 C146.127456,34.9663814 145.93786,35.026069 145.781161,35.14 C145.608354,35.312006 145.490091,35.5311401 145.441161,35.77 C145.3263,36.4031417 145.282695,37.0471539 145.311161,37.69 L145.291161,39.45 Z" id="Path"></path>
            <path d="M149.351161,35.48 L148.031161,35.24 C148.140337,34.7493047 148.420327,34.3133706 148.821161,34.01 C149.329849,33.7148815 149.91406,33.5757838 150.501161,33.61 C151.012556,33.5820877 151.524005,33.6639194 152.001161,33.85 C152.290321,33.9786374 152.534187,34.1911487 152.701161,34.46 C152.863822,34.8904626 152.93203,35.3508664 152.901161,35.81 L152.901161,37.57 C152.895516,37.9412592 152.918921,38.3123912 152.971161,38.68 C153.029831,38.9466014 153.120487,39.2051404 153.241161,39.45 L151.751161,39.45 C151.694689,39.3032283 151.647921,39.1529045 151.611161,39 L151.551161,38.82 C151.315649,39.0593357 151.03756,39.2526416 150.731161,39.39 C150.433025,39.513401 150.11382,39.5779212 149.791161,39.58 C149.28279,39.6086104 148.78355,39.4362109 148.401161,39.1 C148.064778,38.7889771 147.8789,38.3479723 147.891161,37.89 C147.854362,37.5860903 147.902836,37.2779351 148.031161,37 C148.184249,36.7454325 148.410869,36.5432176 148.681161,36.42 C149.064465,36.2522699 149.467787,36.1346344 149.881161,36.07 C150.376897,35.9857077 150.865114,35.8619815 151.341161,35.7 L151.341161,35.55 C151.361881,35.3199267 151.285781,35.0916264 151.131161,34.92 C150.888072,34.7731302 150.603574,34.7099084 150.321161,34.74 C150.099203,34.7216911 149.877485,34.7780005 149.691161,34.9 C149.521607,35.0543601 149.403024,35.2566489 149.351161,35.48 Z M151.351161,36.71 C151.161161,36.77 150.851161,36.85 150.441161,36.94 C150.15362,36.9871005 149.874185,37.0746341 149.611161,37.2 C149.431944,37.317053 149.323112,37.5159529 149.321161,37.73 C149.317309,37.9395239 149.404933,38.1403292 149.561161,38.28 C149.718825,38.4393132 149.937404,38.523102 150.161161,38.51 C150.443339,38.5056943 150.716708,38.4110663 150.941161,38.24 C151.109112,38.117992 151.234929,37.9467402 151.301161,37.75 C151.341728,37.5055318 151.358474,37.2577034 151.351161,37.01 L151.351161,36.71 Z" id="Shape"></path>
            <path d="M158.201161,39.45 L158.201161,38.59 C157.995691,38.8977512 157.7129,39.1460553 157.381161,39.31 C157.052134,39.4866448 156.684607,39.5793851 156.311161,39.5801377 C155.960808,39.5824197 155.615967,39.4927609 155.311161,39.32 C155.015378,39.1719583 154.781563,38.9239727 154.651161,38.62 C154.493927,38.2157885 154.422415,37.7833107 154.441161,37.35 L154.441161,33.74 L155.951161,33.74 L155.951161,36.36 C155.93121,36.8547515 155.957995,37.3502818 156.031161,37.84 C156.085374,38.0130359 156.194124,38.1638834 156.341161,38.27 C156.507818,38.3777142 156.702754,38.4334101 156.901161,38.43 C157.147069,38.4311401 157.387582,38.3579406 157.591161,38.22 C157.779869,38.0880917 157.925866,37.9038583 158.011161,37.69 C158.109451,37.1829352 158.146383,36.6658871 158.121161,36.15 L158.121161,33.74 L159.631161,33.74 L159.631161,39.45 L158.201161,39.45 Z" id="Path"></path>
            <path d="M164.561161,37.63 L166.071161,37.88 C165.915484,38.3917928 165.59124,38.8358656 165.151161,39.14 C164.689597,39.4453834 164.144272,39.5991929 163.591161,39.58 C162.736074,39.6392186 161.908793,39.2631819 161.391161,38.58 C160.984488,37.9950567 160.783959,37.2914478 160.821161,36.58 C160.773612,35.7724318 161.038581,34.9775252 161.561161,34.36 C162.038794,33.8274692 162.726056,33.5313614 163.441161,33.55 C164.20202,33.516557 164.937189,33.8290039 165.441161,34.4 C165.984578,35.1404825 166.234,36.0562184 166.141161,36.97 L162.361161,36.97 C162.359557,37.3353436 162.487057,37.6895112 162.721161,37.97 C162.947624,38.2081812 163.26251,38.342098 163.591161,38.34 C163.806398,38.3428942 164.016823,38.2762595 164.191161,38.15 C164.359171,38.0132419 164.487026,37.8335534 164.561161,37.63 Z M164.651161,36.11 C164.669594,35.745492 164.547955,35.387731 164.311161,35.11 C164.11475,34.8861876 163.828815,34.761549 163.531161,34.77 C163.218068,34.7629756 162.917894,34.8947595 162.711161,35.13 C162.482443,35.4111811 162.368173,35.7682729 162.391161,36.13 L164.651161,36.11 Z" id="Shape"></path>
            <path d="M172.671161,39.45 L171.161161,39.45 L171.161161,36.54 C171.185087,36.1372796 171.151414,35.7332056 171.061161,35.34 C171.005688,35.170303 170.896976,35.0230157 170.751161,34.92 C170.593959,34.8170458 170.409001,34.764699 170.221161,34.77 C169.971941,34.7674633 169.727829,34.8406966 169.521161,34.98 C169.320981,35.1195647 169.170387,35.3191896 169.091161,35.55 C169.001082,35.9805283 168.964139,36.4204785 168.981161,36.86 L168.981161,39.45 L167.471161,39.45 L167.471161,33.74 L168.871161,33.74 L168.871161,34.58 C169.296493,33.9591766 169.998634,33.585697 170.751161,33.58 C171.063731,33.5758463 171.37371,33.6371609 171.661161,33.76 C171.906728,33.8575076 172.123505,34.0157893 172.291161,34.22 C172.433485,34.4095484 172.53248,34.6280198 172.581161,34.86 C172.650199,35.1886616 172.680406,35.524293 172.671161,35.86 L172.671161,39.45 Z" id="Path"></path>
            <path d="M181.211161,39.45 L181.211161,38.59 C181.005691,38.8977512 180.7229,39.1460553 180.391161,39.31 C180.062134,39.4866448 179.694607,39.5793851 179.321161,39.58 C178.971431,39.5775491 178.627795,39.4882037 178.321161,39.32 C178.02981,39.166066 177.797705,38.9198942 177.661161,38.62 C177.512879,38.2136132 177.444954,37.7822907 177.461161,37.35 L177.461161,33.74 L178.971161,33.74 L178.971161,36.36 C178.95121,36.8547515 178.977995,37.3502818 179.051161,37.84 C179.105374,38.0130359 179.214124,38.1638834 179.361161,38.27 C179.523385,38.379253 179.715647,38.4351838 179.911161,38.43 C180.160381,38.4325367 180.404493,38.3593034 180.611161,38.22 C180.799869,38.0880917 180.945866,37.9038583 181.031161,37.69 C181.129451,37.1829352 181.166383,36.6658871 181.141161,36.15 L181.141161,33.74 L182.651161,33.74 L182.651161,39.45 L181.211161,39.45 Z" id="Path"></path>
            <path d="M189.461161,39.45 L187.951161,39.45 L187.951161,36.54 C187.975087,36.1372796 187.941414,35.7332056 187.851161,35.34 C187.795688,35.170303 187.686976,35.0230157 187.541161,34.92 C187.383959,34.8170458 187.199001,34.764699 187.011161,34.77 C186.761941,34.7674633 186.517829,34.8406966 186.311161,34.98 C186.110981,35.1195647 185.960387,35.3191896 185.881161,35.55 C185.791082,35.9805283 185.754139,36.4204785 185.771161,36.86 L185.771161,39.45 L184.261161,39.45 L184.261161,33.74 L185.661161,33.74 L185.661161,34.58 C186.087658,33.9604819 186.789065,33.5873932 187.541161,33.58 C187.853731,33.5758463 188.16371,33.6371609 188.451161,33.76 C188.696728,33.8575076 188.913505,34.0157893 189.081161,34.22 C189.223485,34.4095484 189.32248,34.6280198 189.371161,34.86 C189.440199,35.1886616 189.470406,35.524293 189.461161,35.86 L189.461161,39.45 Z" id="Path"></path>
            <path d="M196.321161,39.45 L194.921161,39.45 L194.921161,38.61 C194.708253,38.9174561 194.423285,39.1680903 194.091161,39.34 C193.783324,39.5028463 193.439376,39.5853937 193.091161,39.58 C192.439763,39.5777253 191.823512,39.2842727 191.411161,38.78 C190.90894,38.1571826 190.659095,37.3683834 190.711161,36.57 C190.656984,35.7776935 190.899356,34.9935482 191.391161,34.37 C191.828354,33.875063 192.460906,33.5971788 193.121161,33.61 C193.763337,33.6155809 194.36906,33.9092644 194.771161,34.41 L194.771161,31.57 L196.281161,31.57 L196.321161,39.45 Z M192.321161,36.45 C192.29151,36.9040626 192.377526,37.3582264 192.571161,37.77 C192.771871,38.1343983 193.155144,38.3605293 193.571161,38.36 C193.92128,38.3647988 194.252388,38.2011049 194.461161,37.92 C194.731575,37.5351443 194.862142,37.0693377 194.831161,36.6 C194.875287,36.0995681 194.748373,35.5989659 194.471161,35.18 C194.253974,34.8994787 193.915781,34.7396732 193.561161,34.75 C193.211047,34.7475217 192.879211,34.9060652 192.661161,35.18 C192.386673,35.5514953 192.255309,36.0094926 192.291161,36.47 L192.321161,36.45 Z" id="Shape"></path>
            <polygon id="Path" points="201.031161 39.45 201.031161 31.57 203.411161 31.57 204.841161 36.94 206.251161 31.57 208.641161 31.57 208.641161 39.45 207.161161 39.45 207.161161 33.25 205.601161 39.45 204.071161 39.45 202.511161 33.25 202.511161 39.45"></polygon>
            <path d="M211.451161,35.48 L210.081161,35.24 C210.198461,34.7502078 210.480994,34.3158133 210.881161,34.01 C211.385152,33.7122942 211.966985,33.5729331 212.551161,33.61 C213.065857,33.5812707 213.580736,33.6631059 214.061161,33.85 C214.349437,33.9759473 214.590818,34.1893422 214.751161,34.46 C214.918605,34.8892062 214.986972,35.3506819 214.951161,35.81 L214.951161,37.57 C214.940077,37.9413693 214.963511,38.3129653 215.021161,38.68 C215.079831,38.9466014 215.170487,39.2051404 215.291161,39.45 L213.801161,39.45 C213.761161,39.35 213.711161,39.2 213.651161,39 C213.637787,38.9391337 213.621095,38.8790441 213.601161,38.82 C213.363786,39.061681 213.081955,39.2552273 212.771161,39.39 C212.47356,39.5151476 212.154005,39.5797385 211.831161,39.58 C211.32279,39.6086104 210.82355,39.4362109 210.441161,39.1 C210.110622,38.7857007 209.928906,38.3459497 209.941161,37.89 C209.93267,37.5870787 210.012591,37.2882423 210.171161,37.03 C210.323015,36.7781002 210.545576,36.5764039 210.811161,36.45 C211.194465,36.2822699 211.597787,36.1646344 212.011161,36.1 C212.510367,36.0166555 213.001983,35.8929156 213.481161,35.73 L213.481161,35.58 C213.501881,35.3499267 213.425781,35.1216264 213.271161,34.95 C213.027006,34.8058106 212.743405,34.7427881 212.461161,34.77 C212.239203,34.7516911 212.017485,34.8080005 211.831161,34.93 C211.649005,35.0680438 211.515836,35.2607874 211.451161,35.48 Z M210.801161,32.73 L210.801161,31.44 L212.101161,31.44 L212.101161,32.73 L210.801161,32.73 Z M213.471161,36.73 C213.281161,36.79 212.971161,36.87 212.551161,36.96 C212.266757,37.0068248 211.990585,37.0943915 211.731161,37.22 C211.549135,37.3344319 211.43939,37.5350003 211.441161,37.75 C211.433418,37.9581992 211.517511,38.1592922 211.671161,38.3 C211.830897,38.4561106 212.048004,38.5393352 212.271161,38.53 C212.553971,38.5293579 212.828476,38.434337 213.051161,38.26 C213.219112,38.137992 213.344929,37.9667402 213.411161,37.77 C213.461724,37.5267691 213.481878,37.2781995 213.471161,37.03 L213.471161,36.73 Z M213.111161,32.73 L213.111161,31.44 L214.411161,31.44 L214.411161,32.73 L213.111161,32.73 Z" id="Shape"></path>
            <path d="M221.731161,39.45 L220.221161,39.45 L220.221161,36.54 C220.245087,36.1372796 220.211414,35.7332056 220.121161,35.34 C220.065688,35.170303 219.956976,35.0230157 219.811161,34.92 C219.657051,34.8184212 219.475695,34.7661071 219.291161,34.77 C219.038631,34.7660608 218.790919,34.8393277 218.581161,34.98 C218.380981,35.1195647 218.230387,35.3191896 218.151161,35.55 C218.061082,35.9805283 218.024139,36.4204785 218.041161,36.86 L218.041161,39.45 L216.531161,39.45 L216.531161,33.74 L217.931161,33.74 L217.931161,34.58 C218.357658,33.9604819 219.059065,33.5873932 219.811161,33.58 C220.123731,33.5758463 220.43371,33.6371609 220.721161,33.76 C220.966728,33.8575076 221.183505,34.0157893 221.351161,34.22 C221.492476,34.4114098 221.594441,34.6289363 221.651161,34.86 C221.711285,35.1898085 221.738086,35.5248276 221.731161,35.86 L221.731161,39.45 Z" id="Path"></path>
            <path d="M228.551161,39.45 L227.031161,39.45 L227.031161,36.54 C227.055087,36.1372796 227.021414,35.7332056 226.931161,35.34 C226.875688,35.170303 226.766976,35.0230157 226.621161,34.92 C226.463959,34.8170458 226.279001,34.764699 226.091161,34.77 C225.841941,34.7674633 225.597829,34.8406966 225.391161,34.98 C225.190981,35.1195647 225.040387,35.3191896 224.961161,35.55 C224.871082,35.9805283 224.834139,36.4204785 224.851161,36.86 L224.851161,39.45 L223.341161,39.45 L223.341161,33.74 L224.741161,33.74 L224.741161,34.58 C225.166493,33.9591766 225.868634,33.585697 226.621161,33.58 C226.933731,33.5758463 227.24371,33.6371609 227.531161,33.76 C227.776728,33.8575076 227.993505,34.0157893 228.161161,34.22 C228.303485,34.4095484 228.40248,34.6280198 228.451161,34.86 C228.520199,35.1886616 228.550406,35.524293 228.541161,35.86 L228.551161,39.45 Z" id="Path"></path>
            <path d="M233.481161,37.63 L234.981161,37.88 C234.828798,38.3907022 234.508062,38.8347981 234.071161,39.14 C233.60595,39.4455583 233.057412,39.5992888 232.501161,39.58 C231.646408,39.6373753 230.819962,39.2617181 230.301161,38.58 C229.897323,37.994137 229.700273,37.2903863 229.741161,36.58 C229.688329,35.7717419 229.953941,34.9749073 230.481161,34.36 C230.954883,33.8279121 231.638988,33.5315884 232.351161,33.55 C233.112284,33.5150927 233.84806,33.8277974 234.351161,34.4 C234.899325,35.1490817 235.142394,36.0784606 235.031161,37 L231.251161,37 C231.252355,37.3666002 231.38345,37.7209113 231.621161,38 C231.845466,38.2412756 232.161779,38.3757995 232.491161,38.37 C232.706398,38.3728942 232.916823,38.3062595 233.091161,38.18 C233.271052,38.0377061 233.406395,37.8468377 233.481161,37.63 L233.481161,37.63 Z M233.571161,36.11 C233.584677,35.7461947 233.463629,35.3901708 233.231161,35.11 C233.032503,34.8834304 232.742271,34.7585202 232.441161,34.77 C232.129819,34.7572467 231.830326,34.8903547 231.631161,35.13 C231.398806,35.4091987 231.284061,35.7677758 231.311161,36.13 L233.571161,36.11 Z" id="Shape"></path>
            <path d="M237.841161,39.45 L236.331161,39.45 L236.331161,33.74 L237.731161,33.74 L237.731161,34.55 C237.893924,34.2579451 238.115205,34.0026206 238.381161,33.8 C238.575327,33.6760909 238.800827,33.6101757 239.031161,33.61 C239.385072,33.6111324 239.731554,33.7116123 240.031161,33.9 L239.571161,35.22 C239.364327,35.0684733 239.117303,34.9814931 238.861161,34.97 C238.667456,34.9663814 238.47786,35.026069 238.321161,35.14 C238.144695,35.3107173 238.022882,35.52998 237.971161,35.77 C237.866706,36.4043372 237.826502,37.0475932 237.851161,37.69 L237.841161,39.45 Z" id="Path"></path>
            <path d="M245.961161,39.45 L244.451161,39.45 L244.451161,36.54 C244.471197,36.1378135 244.440964,35.7346985 244.361161,35.34 C244.301785,35.1695794 244.189709,35.0224797 244.041161,34.92 C243.887601,34.8172332 243.705863,34.7648086 243.521161,34.77 C243.268804,34.7673158 243.021456,34.8404751 242.811161,34.98 C242.613715,35.1201017 242.466485,35.3199134 242.391161,35.55 C242.291105,35.9790699 242.250724,36.4198926 242.271161,36.86 L242.271161,39.45 L240.761161,39.45 L240.761161,33.74 L242.161161,33.74 L242.161161,34.58 C242.797484,33.6979562 243.957652,33.3706232 244.961161,33.79 C245.202276,33.8904284 245.415139,34.0483588 245.581161,34.25 C245.722476,34.4414098 245.824441,34.6589363 245.881161,34.89 C245.941285,35.2198085 245.968086,35.5548276 245.961161,35.89 L245.961161,39.45 Z" id="Path"></path>
            <path d="M6.62116128,27.68 C6.43500709,27.6529189 6.25019185,27.7370736 6.14840217,27.8952685 C6.04661248,28.0534634 6.04661248,28.2565366 6.14840217,28.4147315 C6.25019185,28.5729264 6.43500709,28.6570811 6.62116128,28.63 L16.2911613,28.63 C16.4773155,28.6570811 16.6621307,28.5729264 16.7639204,28.4147315 C16.8657101,28.2565366 16.8657101,28.0534634 16.7639204,27.8952685 C16.6621307,27.7370736 16.4773155,27.6529189 16.2911613,27.68 L6.62116128,27.68 Z" id="Path"></path>
            <path d="M7.03116128,24.31 C6.75501891,24.31 6.53116128,24.5338576 6.53116128,24.81 C6.53116128,25.0861424 6.75501891,25.31 7.03116128,25.31 L15.7111613,25.31 C15.9873037,25.31 16.2111613,25.0861424 16.2111613,24.81 C16.2111613,24.5338576 15.9873037,24.31 15.7111613,24.31 L7.03116128,24.31 Z" id="Path"></path>
            <path d="M6.03116128,25.71 C5.61142487,25.71 5.27116128,26.0502636 5.27116128,26.47 C5.27116128,26.8897364 5.61142487,27.23 6.03116128,27.23 L16.7711613,27.23 C17.1908977,27.23 17.5311613,26.8897364 17.5311613,26.47 C17.5311613,26.0502636 17.1908977,25.71 16.7711613,25.71 L6.03116128,25.71 Z" id="Path"></path>
            <polygon id="Path" points="7.01116128 29.07 15.6711613 29.07 18.1211613 42.52 14.0211613 39.44 11.3311613 42.53 8.64116128 39.44 4.54116128 42.51"></polygon>
            <path d="M5.70116128,19.29 C6.42526099,19.52517 6.87628225,20.245961 6.77116128,21 C6.77116128,21 6.77116128,23.33 4.00116128,23.39 C4.00116128,23.39 -0.0788387218,23.53 0.00116127816,19.39 C0.00116127816,19.39 -0.238838722,14.39 6.41116128,14.2 C9.22265398,14.1519726 11.8488139,15.5982636 13.3111613,18 C14.2870152,19.8010722 14.8119891,21.8117566 14.8411613,23.86 L7.96116128,23.86 C8.16876639,23.1164437 8.28957096,22.3513481 8.32116128,21.58 C8.13116128,18.08 5.47116128,18.24 5.47116128,18.24 C4.95589181,18.1451336 4.42445743,18.2707803 4.00622799,18.5863535 C3.58799855,18.9019266 3.32133813,19.3784786 3.27116128,19.9 C3.27116128,19.9 3.18116128,21.04 4.13116128,21.06 C4.13116128,21.06 4.73116128,21.06 4.73116128,20.56 C4.73116128,20.56 4.73116128,20.2 4.28116128,20.2 C4.28116128,20.2 4.00116128,20.2 3.96116128,20.36 C3.92931782,20.0312147 4.04691346,19.705524 4.28145481,19.472921 C4.51599616,19.240318 4.84265153,19.1254292 5.17116128,19.16 C5.3505229,19.1710921 5.5281923,19.2012624 5.70116128,19.25" id="Path"></path>
            <rect id="Rectangle" x="25.2211613" y="0" width="1.42" height="49.62"></rect>
        </g>
    </g>
</svg>