<?xml version="1.0" encoding="UTF-8"?>
<svg width="654px" height="295px" viewBox="0 0 654 295" version="1.1" xmlns="http://www.w3.org/2000/svg" xmlns:xlink="http://www.w3.org/1999/xlink">
    <title>Group</title>
    <g id="Page-1" stroke="none" stroke-width="1" fill="none" fill-rule="evenodd">
        <g id="Group" transform="translate(0.000000, 0.000003)" fill="#000000" fill-rule="nonzero">
            <path d="M188.218753,228.862458 L188.218753,240.674958 L196.156253,240.674958 L196.156253,294.206209 L240.187503,294.206209 L240.187503,282.393709 L208.531253,282.393709 L208.531253,267.393709 L232.250003,267.393709 L232.250003,255.612458 L208.531253,255.612458 L208.531253,240.674958 L240.187503,240.674958 L240.187503,228.862458 L188.218753,228.862458 Z M0,228.987458 L0,294.299959 L44.0312506,294.299959 L44.0312506,282.487458 L12.3750002,282.487458 L12.3750002,228.987458 L0,228.987458 Z M56.3437508,228.987458 L56.3437508,279.112459 C56.3437508,281.075249 57.0423008,282.785469 58.4687508,284.206209 L66.4062509,292.143709 C67.8269949,293.564449 69.562751,294.299959 71.531251,294.299959 L90.9687513,294.299959 C92.9315463,294.299959 94.6730073,293.564449 96.0937513,292.143709 L104.031251,284.206209 C105.451991,282.785469 106.156251,281.075249 106.156251,279.112459 L106.156251,228.987458 L93.7812513,228.987458 L93.7812513,277.174959 C93.7812513,277.574369 93.6149083,277.966299 93.3125013,278.268709 L89.5312512,282.018709 C89.1889032,282.355349 88.8882592,282.487458 88.4375012,282.487458 L74.031251,282.487458 C73.580493,282.487458 73.285555,282.355349 72.937501,282.018709 L69.187501,278.268709 C68.885094,277.966299 68.687501,277.574369 68.687501,277.174959 L68.687501,228.987458 L56.3437508,228.987458 Z M124.312502,228.987458 L124.312502,240.768708 L160.156252,240.768708 L160.156252,246.706208 C160.156252,247.293908 159.757822,247.795918 159.250002,248.081208 C159.244002,248.087208 126.906252,266.612459 126.906252,266.612459 C124.367172,268.067439 122.775812,270.287829 122.718752,273.174959 L122.718752,294.299959 L172.531252,294.299959 L172.531252,282.487458 L135.093752,282.487458 L135.093752,276.581209 C135.093752,275.987809 135.492182,275.465959 136.000002,275.174959 C136.006002,275.174959 168.343752,256.737458 168.343752,256.737458 C170.899952,255.282478 172.468492,253.093338 172.531252,250.206208 L172.531252,228.987458 L124.312502,228.987458 Z M254.437504,228.987458 L254.437504,240.768708 L262.406254,240.768708 L262.406254,294.299959 L274.781254,294.299959 L274.781254,268.831209 L281.468754,268.831209 C282.033624,268.831209 282.473144,269.093499 282.781254,269.549959 C282.792654,269.578459 302.000004,294.299959 302.000004,294.299959 L305.718754,294.299959 L315.906254,294.299959 L315.906254,282.518709 L307.937504,282.518709 C303.646744,277.041139 297.643704,269.327609 297.250004,268.831209 L298.781254,268.831209 C300.681284,268.831209 302.329524,268.157939 303.687504,266.799959 L310.093754,260.393709 C311.537324,258.955849 312.250004,257.291278 312.250004,255.299958 L312.250004,242.518708 C312.250004,240.521678 311.537324,238.862818 310.093754,237.424958 L303.687504,231.018708 C302.329524,229.660728 300.681284,228.987458 298.781254,228.987458 L254.437504,228.987458 Z M332.437505,228.987458 L332.437505,294.299959 L344.531255,294.299959 L344.531255,245.737458 C345.894945,248.932708 365.187505,294.299959 365.187505,294.299959 L382.281255,294.299959 L382.281255,228.987458 L370.187505,228.987458 L370.187505,277.549959 C368.829525,274.354709 349.531255,228.987458 349.531255,228.987458 L332.437505,228.987458 Z M274.781254,240.768708 L296.187504,240.768708 C296.638264,240.768708 296.901954,240.895108 297.250004,241.237458 L299.375004,243.362458 C299.717354,243.704808 299.875004,244.005448 299.875004,244.456208 L299.875004,253.362458 C299.875004,253.818918 299.717354,254.119568 299.375004,254.456208 L297.250004,256.581208 C296.901954,256.917848 296.638264,257.049958 296.187504,257.049958 L274.781254,257.049958 L274.781254,240.768708 Z" id="path66" transform="translate(191.140628, 261.581209) scale(-1, -1) rotate(-180.000000) translate(-191.140628, -261.581209) "></path>
            <path d="M2.41033149e-09,130.893709 L2.41033149e-09,196.23746 L12.3750002,196.23746 L12.3750002,169.424959 L37.4687505,169.424959 L37.4687505,196.23746 L49.8437507,196.23746 L49.8437507,130.893709 L37.4687505,130.893709 L37.4687505,157.612459 L12.3750002,157.612459 L12.3750002,130.893709 L2.41033149e-09,130.893709 Z M84.4062512,130.893709 C82.4377511,130.893709 80.7019951,131.623509 79.2812511,133.049959 L71.343751,140.987459 C69.917301,142.408199 69.218751,144.112709 69.218751,146.081209 L69.218751,181.018709 C69.218751,182.987209 69.917301,184.722969 71.343751,186.14371 L79.2812511,194.08121 C80.7019951,195.50766 82.4377511,196.23746 84.4062512,196.23746 L109.656252,196.23746 C111.624752,196.23746 113.360512,195.50766 114.781252,194.08121 L122.718751,186.14371 C124.139492,184.722969 124.843752,182.987209 124.843752,181.018709 L124.843752,146.081209 C124.843752,144.112709 124.139492,142.408199 122.718751,140.987459 L114.781252,133.049959 C113.360512,131.623509 111.619042,130.893709 109.656252,130.893709 L84.4062512,130.893709 Z M156.593752,130.893709 C154.630962,130.893709 152.889492,131.623509 151.468752,133.049959 L143.531252,140.987459 C142.110512,142.408199 141.406252,144.112709 141.406252,146.081209 L141.406252,181.049959 C141.406252,183.018459 142.110512,184.722969 143.531252,186.14371 L151.468752,194.08121 C152.889492,195.50195 154.630962,196.23746 156.593752,196.23746 L177.593752,196.23746 C179.562252,196.23746 181.298013,195.50195 182.718753,194.08121 L191.406252,185.393709 L183.000003,177.112459 L176.156252,183.956209 C175.813902,184.298559 175.513262,184.424959 175.062502,184.424959 L159.093752,184.424959 C158.648702,184.424959 158.373602,184.298559 158.031252,183.956209 L154.250002,180.174959 C153.947592,179.872549 153.781252,179.506159 153.781252,179.112459 L153.781252,148.018709 C153.781252,147.625009 153.947592,147.258619 154.250002,146.956209 L158.031252,143.174959 C158.373602,142.832609 158.648702,142.706209 159.093752,142.706209 L175.062502,142.706209 C175.513262,142.706209 175.813902,142.832609 176.156252,143.174959 L183.000003,150.018709 L191.406252,141.737459 L182.718753,133.049959 C181.298013,131.623509 179.562252,130.893709 177.593752,130.893709 L156.593752,130.893709 Z M206.531253,130.893709 L206.531253,196.23746 L218.906253,196.23746 L218.906253,169.424959 L244.000003,169.424959 L244.000003,196.23746 L256.375004,196.23746 L256.375004,130.893709 L244.000003,130.893709 L244.000003,157.612459 L218.906253,157.612459 L218.906253,130.893709 L206.531253,130.893709 Z M289.500004,130.893709 C287.531504,130.893709 285.826994,131.629219 284.406254,133.049959 L276.468754,140.987459 C275.048014,142.413909 274.312504,144.118419 274.312504,146.081209 L274.312504,158.768709 C274.409504,162.711419 277.412454,166.198389 281.343754,166.706209 L314.500004,171.331209 C315.315934,171.411109 316.000004,172.146249 316.000004,172.893709 L316.000004,179.112459 C316.000004,179.511869 315.833664,179.866849 315.531254,180.174959 L311.750004,183.956209 C311.407654,184.298559 311.107014,184.424959 310.656254,184.424959 L288.687504,184.424959 C288.236744,184.424959 287.961644,184.298559 287.625004,183.956209 L280.843754,177.206209 L272.562504,185.58121 L281.062504,194.08121 C282.483244,195.50766 284.219004,196.20621 286.187504,196.20621 L313.187504,196.20621 C315.150294,196.20621 316.860514,195.50766 318.281254,194.08121 L326.218755,186.14371 C327.645205,184.717259 328.317945,182.987209 328.375005,181.018709 L328.375005,168.362459 C328.375005,164.425459 325.306305,160.927069 321.375004,160.424959 L288.125004,155.768709 C287.337604,155.688809 286.687504,154.987899 286.687504,154.206209 L286.687504,148.018709 C286.687504,147.625009 286.853844,147.227369 287.156254,146.924959 L290.937504,143.174959 C291.279854,142.826909 291.580494,142.706209 292.031254,142.706209 L310.656254,142.706209 C311.101304,142.706209 311.407654,142.826909 311.750004,143.174959 L318.500004,149.924959 L326.781255,141.549959 L318.281254,133.049959 C316.860514,131.629219 315.156004,130.893709 313.187504,130.893709 L289.500004,130.893709 Z M358.687505,130.893709 C356.719005,130.893709 355.014495,131.623509 353.593755,133.049959 L345.656255,140.987459 C344.229805,142.408199 343.500005,144.112709 343.500005,146.081209 L343.500005,181.049959 C343.500005,183.018459 344.229805,184.722969 345.656255,186.14371 L353.593755,194.08121 C355.014495,195.50195 356.719005,196.23746 358.687505,196.23746 L379.687505,196.23746 C381.650295,196.23746 383.391765,195.50195 384.812505,194.08121 L393.500005,185.393709 L385.125005,177.112459 L378.281255,183.956209 C377.938905,184.298559 377.643965,184.424959 377.187505,184.424959 L361.218755,184.424959 C360.773705,184.424959 360.473055,184.298559 360.125005,183.956209 L356.343755,180.174959 C356.035645,179.872549 355.875005,179.506159 355.875005,179.112459 L355.875005,148.018709 C355.875005,147.625009 356.035645,147.258619 356.343755,146.956209 L360.125005,143.174959 C360.473055,142.832609 360.773705,142.706209 361.218755,142.706209 L377.187505,142.706209 C377.638265,142.706209 377.938905,142.832609 378.281255,143.174959 L385.125005,150.018709 L393.500005,141.737459 L384.812505,133.049959 C383.391765,131.623509 381.650295,130.893709 379.687505,130.893709 L358.687505,130.893709 Z M408.625006,130.893709 L408.625006,196.23746 L421.000006,196.23746 L421.000006,169.424959 L446.093756,169.424959 L446.093756,196.23746 L458.468756,196.23746 L458.468756,130.893709 L446.093756,130.893709 L446.093756,157.612459 L421.000006,157.612459 L421.000006,130.893709 L408.625006,130.893709 Z M479.250007,130.893709 L479.250007,181.018709 C479.250007,182.987209 479.979807,184.722969 481.406257,186.14371 L489.343757,194.08121 C490.758797,195.50195 492.474717,196.23746 494.437507,196.23746 L513.906257,196.23746 C515.874757,196.23746 517.584967,195.50195 519.000007,194.08121 C519.000007,194.08121 526.937507,186.14942 526.937507,186.14371 C528.358247,184.722969 529.093757,182.987209 529.093757,181.018709 L529.093757,130.893709 L516.718757,130.893709 L516.718757,179.112459 C516.718757,179.506159 516.552417,179.872549 516.250007,180.174959 L512.468757,183.956209 C512.120707,184.298559 511.825767,184.424959 511.375007,184.424959 L496.968757,184.424959 C496.517997,184.424959 496.217357,184.298559 495.875007,183.956209 L492.093757,180.174959 C491.797057,179.872549 491.625007,179.506159 491.625007,179.112459 L491.625007,130.893709 L479.250007,130.893709 Z M549.875008,130.893709 L549.875008,196.23746 L593.906258,196.23746 L593.906258,184.424959 L562.250008,184.424959 L562.250008,130.893709 L549.875008,130.893709 Z M601.093758,130.893709 L601.093758,142.706209 L609.031258,142.706209 L609.031258,196.23746 L653.062509,196.23746 L653.062509,184.424959 L621.406259,184.424959 L621.406259,169.424959 L645.125009,169.424959 L645.125009,157.612459 L621.406259,157.612459 L621.406259,142.706209 L653.062509,142.706209 L653.062509,130.893709 L601.093758,130.893709 Z M86.9062512,142.706209 L107.156251,142.706209 C107.601301,142.706209 107.907652,142.838319 108.250002,143.174959 L112.000002,146.956209 C112.302412,147.258619 112.468752,147.625009 112.468752,148.018709 L112.468752,179.112459 C112.468752,179.506159 112.302412,179.872549 112.000002,180.174959 L108.250002,183.956209 C107.907652,184.298559 107.601301,184.424959 107.156251,184.424959 L86.9062512,184.424959 C86.4554932,184.424959 86.1860992,184.298559 85.8437512,183.956209 L82.0625011,180.174959 C81.7600941,179.872549 81.5937511,179.506159 81.5937511,179.112459 L81.5937511,148.018709 C81.5937511,147.625009 81.7600941,147.258619 82.0625011,146.956209 L85.8437512,143.174959 C86.1860992,142.838319 86.4554932,142.706209 86.9062512,142.706209 Z" id="path98" transform="translate(326.531255, 163.565584) scale(-1, -1) rotate(-180.000000) translate(-326.531255, -163.565584) "></path>
            <g id="g176" transform="translate(184.594561, 18.053146) scale(1, -1) translate(-184.594561, -18.053146) translate(2.916231, 0.000000)">
                <path d="M13.9449715,9.06651382 L13.9449715,10.6413142 C13.9449715,11.1034839 13.7509744,11.2575404 13.2146293,11.2575404 L3.57182986,11.2575404 L3.57182986,34.0693228 C3.57182986,34.6456085 3.34359792,34.8738404 2.80725286,34.8738404 L0.730342208,34.8738404 C0.233937738,34.8738404 -5.06776709e-15,34.5657273 -5.06776709e-15,34.0693228 L-5.06776709e-15,9.26051097 C-5.06776709e-15,8.64428473 0.268172529,8.41605279 0.770282797,8.41605279 L13.2945105,8.41605279 C13.7509744,8.41605279 13.9449715,8.56440355 13.9449715,9.06651382 M33.7612097,9.26051097 L33.7612097,26.1953209 C33.7612097,26.731666 33.5329778,26.9656037 33.0308675,26.9656037 L31.2278352,26.9656037 C30.7257249,26.9656037 30.497493,26.731666 30.497493,26.1953209 L30.497493,13.1005134 C29.2650405,11.9479421 27.1139545,10.8296056 25.4250381,10.8296056 C22.3553185,10.8296056 21.7390923,12.7524596 21.7390923,15.4798313 L21.7390923,26.1953209 C21.7390923,26.731666 21.4709198,26.9656037 20.9745153,26.9656037 L19.2456583,26.9656037 C18.7435481,26.9656037 18.4753755,26.731666 18.4753755,26.1953209 L18.4753755,14.9777211 C18.4753755,10.8752519 20.0901165,8.02805849 24.5064046,8.02805849 C26.731666,8.02805849 28.8085766,8.83828188 30.5773742,10.3332011 L30.611609,9.146395 C30.611609,8.67851952 30.8797815,8.41605279 31.3419512,8.41605279 L32.9909269,8.41605279 C33.5329778,8.41605279 33.7612097,8.67851952 33.7612097,9.26051097 M53.7315045,9.64279946 C53.7315045,9.75691543 53.6915639,9.91097199 53.6573291,10.0650286 L53.3092754,11.1377187 C53.2351,11.411597 53.120984,11.525713 52.9269869,11.525713 C52.8471057,11.525713 52.7329897,11.4857724 52.6188738,11.4458318 C51.3864213,10.9094867 49.9656775,10.5271982 48.3167017,10.5271982 C44.2085268,10.5271982 42.5196104,13.9050309 42.5196104,17.8249145 C42.5196104,22.1213808 44.824753,24.8487525 48.4707583,24.8487525 C49.9656775,24.8487525 51.2723053,24.4265234 52.4648172,23.8901783 C52.5789332,23.8160029 52.7329897,23.7760623 52.8128709,23.7760623 C53.0411029,23.7760623 53.1552188,23.9700595 53.2351,24.238232 L53.5432131,25.4649787 C53.5774479,25.5790947 53.6173885,25.6589759 53.6173885,25.7730918 C53.6173885,26.0070296 53.5032725,26.1553803 53.2351,26.2694963 C51.8885316,26.9656037 49.9656775,27.3878328 48.3167017,27.3878328 C42.559551,27.3878328 39.1360719,23.3138927 39.1360719,17.670858 C39.1360719,11.9479421 42.0574407,8.02805849 48.0884698,8.02805849 C49.8515615,8.02805849 51.620359,8.3761122 53.2693348,9.146395 C53.6173885,9.29474576 53.7315045,9.41456752 53.7315045,9.64279946 M73.5876833,18.2813784 L73.5876833,18.9375452 C73.5876833,21.436685 72.9315164,23.6961812 71.3966566,25.2766874 C70.1299694,26.5776094 68.3668776,27.3878328 66.175851,27.3878328 C60.6469323,27.3878328 57.229159,23.1997767 57.229159,17.7107985 C57.229159,11.9080015 60.3787597,8.02805849 66.289967,8.02805849 C68.0587645,8.02805849 70.5179637,8.3761122 72.1669394,9.146395 C72.4750525,9.29474576 72.6291091,9.41456753 72.6291091,9.64279946 C72.6291091,9.68274005 72.6291091,9.75691543 72.5891685,9.83679661 L72.1669394,11.2575404 C72.092764,11.525713 71.8987669,11.5998884 71.7047697,11.5998884 C71.5906538,11.5998884 71.4765378,11.5599478 71.3224812,11.525713 C70.055794,11.0236027 68.2869964,10.7154896 66.7121961,10.7154896 C62.8322531,10.7154896 60.7610482,13.562683 60.6469323,17.2086883 L72.435112,17.2086883 C73.4336267,17.2086883 73.5876833,17.4026854 73.5876833,18.2813784 M70.3639071,19.4339497 L60.7211076,19.4339497 C61.0292208,22.2811431 62.8322531,24.8487525 66.0217944,24.8487525 C68.9431633,24.8487525 70.3639071,22.5892563 70.3639071,19.9760005 L70.3639071,19.4339497 Z M87.8350621,26.61755 L87.8350621,26.8115472 C87.8350621,27.0397791 87.7608867,27.2337762 87.526949,27.2737168 C87.1446605,27.3478922 86.6824908,27.3878328 86.4143183,27.3878328 C84.3773482,27.3878328 82.9223696,26.2352615 81.9980302,24.9685742 L81.9580897,26.2694963 C81.9580897,26.7716066 81.6899171,26.9656037 81.1935127,26.9656037 L79.5388311,26.9656037 C79.0823672,26.9656037 78.8084889,26.7716066 78.8084889,26.1953209 L78.8084889,9.22057038 C78.8084889,8.67851952 79.0424266,8.41605279 79.5388311,8.41605279 L81.3475692,8.41605279 C81.8439737,8.41605279 82.0779114,8.72416591 82.0779114,9.22057038 L82.0779114,22.3153779 C83.0707204,23.7361218 84.5713454,24.6205205 85.9179138,24.6205205 C86.3002023,24.6205205 86.6824908,24.5805799 87.0305445,24.5064046 L87.1446605,24.5064046 C87.3785982,24.5064046 87.526949,24.6205205 87.5668896,24.8886931 L87.8350621,26.61755 L87.8350621,26.61755 Z M107.845297,9.22057038 L107.845297,20.5123456 C107.845297,24.6946959 106.156381,27.3878328 101.740093,27.3878328 C99.5091258,27.3878328 97.209689,26.5776094 95.4408915,25.0826902 L95.4009509,26.2694963 C95.4009509,26.7716066 95.1327784,26.9656037 94.6706087,26.9656037 L92.9816924,26.9656037 C92.4453473,26.9656037 92.2513501,26.731666 92.2513501,26.1953209 L92.2513501,9.18062979 C92.2513501,8.67851952 92.5195227,8.41605279 92.9816924,8.41605279 L94.7847247,8.41605279 C95.2868349,8.41605279 95.5150669,8.67851952 95.5150669,9.22057038 L95.5150669,22.4294939 C96.8616353,23.6619464 99.052662,24.6604611 100.815754,24.6604611 C103.891179,24.6604611 104.581581,22.7033722 104.581581,19.9760005 L104.581581,9.22057038 C104.581581,8.67851952 104.809813,8.41605279 105.311923,8.41605279 L107.114955,8.41605279 C107.657006,8.41605279 107.845297,8.67851952 107.845297,9.22057038 M129.658565,18.2813784 L129.658565,18.9375452 C129.658565,21.436685 129.008104,23.6961812 127.467538,25.2766874 C126.200851,26.5776094 124.437759,27.3878328 122.246733,27.3878328 C116.717814,27.3878328 113.300041,23.1997767 113.300041,17.7107985 C113.300041,11.9080015 116.449642,8.02805849 122.360849,8.02805849 C124.129646,8.02805849 126.588846,8.3761122 128.237821,9.146395 C128.545934,9.29474576 128.699991,9.41456752 128.699991,9.64279946 C128.699991,9.68274005 128.699991,9.75691543 128.66005,9.83679661 L128.237821,11.2575404 C128.163646,11.525713 127.969649,11.5998884 127.775652,11.5998884 C127.661536,11.5998884 127.54742,11.5599478 127.393363,11.525713 C126.126676,11.0236027 124.357878,10.7154896 122.783078,10.7154896 C118.908841,10.7154896 116.83193,13.562683 116.717814,17.2086883 L128.505994,17.2086883 C129.504509,17.2086883 129.658565,17.4026854 129.658565,18.2813784 M126.434789,19.4339497 L116.791989,19.4339497 C117.100103,22.2811431 118.908841,24.8487525 122.092676,24.8487525 C125.014045,24.8487525 126.434789,22.5892563 126.434789,19.9760005 L126.434789,19.4339497 L126.434789,19.4339497 Z M166.56367,19.9760005 L166.56367,34.1092634 C166.56367,34.6056679 166.375378,34.8738404 165.839033,34.8738404 L163.762123,34.8738404 C163.265718,34.8738404 162.997546,34.6056679 162.997546,34.1092634 L162.997546,20.586521 C162.997546,15.6338879 162.227263,11.0236027 156.082118,11.0236027 C149.708741,11.0236027 149.052574,15.3999502 149.052574,20.5522862 L149.052574,34.1092634 C149.052574,34.6056679 148.864283,34.8738404 148.322232,34.8738404 L146.211087,34.8738404 C145.714682,34.8738404 145.480744,34.6056679 145.480744,34.1092634 L145.480744,20.2042325 C145.480744,12.7125191 147.711712,8.02805849 156.042177,8.02805849 C163.648007,8.02805849 166.56367,12.9464568 166.56367,19.9760005 M188.918988,9.22057038 L188.918988,20.5123456 C188.918988,24.6946959 187.230072,27.3878328 182.813784,27.3878328 C180.588523,27.3878328 178.277674,26.5776094 176.514582,25.0826902 L176.474642,26.2694963 C176.474642,26.7716066 176.206469,26.9656037 175.7443,26.9656037 L174.055383,26.9656037 C173.519038,26.9656037 173.325041,26.731666 173.325041,26.1953209 L173.325041,9.18062979 C173.325041,8.67851952 173.593214,8.41605279 174.055383,8.41605279 L175.858416,8.41605279 C176.360526,8.41605279 176.588758,8.67851952 176.588758,9.22057038 L176.588758,22.4294939 C177.935326,23.6619464 180.120647,24.6604611 181.889445,24.6604611 C184.96487,24.6604611 185.655272,22.7033722 185.655272,19.9760005 L185.655272,9.22057038 C185.655272,8.67851952 185.883504,8.41605279 186.385614,8.41605279 L188.188646,8.41605279 C188.724991,8.41605279 188.918988,8.67851952 188.918988,9.22057038 M199.366305,31.4960077 C199.366305,32.6086384 198.407731,33.3389806 197.369276,33.3389806 C196.330821,33.3389806 195.406481,32.6086384 195.406481,31.4960077 C195.406481,30.383377 196.330821,29.6530348 197.369276,29.6530348 C198.367791,29.6530348 199.366305,30.383377 199.366305,31.4960077 M199.018252,9.22057038 L199.018252,26.1953209 C199.018252,26.731666 198.79002,26.9656037 198.287909,26.9656037 L196.524818,26.9656037 C196.022707,26.9656037 195.754535,26.731666 195.754535,26.1953209 L195.754535,9.22057038 C195.754535,8.67851952 196.022707,8.41605279 196.524818,8.41605279 L198.287909,8.41605279 C198.79002,8.41605279 199.018252,8.67851952 199.018252,9.22057038 M220.181058,26.5776094 C220.181058,26.8514877 219.987061,26.9656037 219.564832,26.9656037 L217.80174,26.9656037 C217.265395,26.9656037 216.991517,26.8115472 216.83746,26.3493775 L213.385452,15.9020604 C212.923283,14.5212572 212.461113,13.0206322 212.232881,12.2161146 L212.19294,12.2161146 C211.924768,13.1005134 211.462598,14.4813166 210.960488,16.0161764 L207.50848,26.4292587 C207.394364,26.8115472 207.160426,26.9656037 206.58414,26.9656037 L204.472995,26.9656037 C204.090707,26.9656037 203.896709,26.8115472 203.896709,26.5433746 C203.896709,26.4634934 203.896709,26.3493775 203.93665,26.2694963 L210.230146,9.02657323 C210.389908,8.60434414 210.652375,8.41605279 211.154485,8.41605279 L212.843401,8.41605279 C213.265631,8.41605279 213.533803,8.56440355 213.7278,9.02657323 L220.106883,26.2694963 C220.146824,26.3893181 220.181058,26.503434 220.181058,26.5776094 M240.037237,18.2813784 L240.037237,18.9375452 C240.037237,21.436685 239.386776,23.6961812 237.84621,25.2766874 C236.579523,26.5776094 234.816431,27.3878328 232.625405,27.3878328 C227.09078,27.3878328 223.673007,23.1997767 223.673007,17.7107985 C223.673007,11.9080015 226.822608,8.02805849 232.739521,8.02805849 C234.508318,8.02805849 236.961812,8.3761122 238.616493,9.146395 C238.924606,9.29474576 239.078663,9.41456753 239.078663,9.64279946 C239.078663,9.68274005 239.078663,9.75691543 239.038722,9.83679661 L238.616493,11.2575404 C238.542318,11.525713 238.348321,11.5998884 238.154324,11.5998884 C238.040208,11.5998884 237.926092,11.5599478 237.772035,11.525713 C236.505348,11.0236027 234.73655,10.7154896 233.16175,10.7154896 C229.281807,10.7154896 227.210602,13.562683 227.09078,17.2086883 L238.884666,17.2086883 C239.883181,17.2086883 240.037237,17.4026854 240.037237,18.2813784 M236.813461,19.4339497 L227.170661,19.4339497 C227.478775,22.2811431 229.281807,24.8487525 232.471348,24.8487525 C235.387011,24.8487525 236.813461,22.5892563 236.813461,19.9760005 L236.813461,19.4339497 L236.813461,19.4339497 Z M254.284616,26.61755 L254.284616,26.8115472 C254.284616,27.0397791 254.210441,27.2337762 253.976503,27.2737168 C253.594214,27.3478922 253.132045,27.3878328 252.863872,27.3878328 C250.826902,27.3878328 249.366218,26.2352615 248.447584,24.9685742 L248.407643,26.2694963 C248.407643,26.7716066 248.139471,26.9656037 247.643066,26.9656037 L245.988385,26.9656037 C245.526215,26.9656037 245.258043,26.7716066 245.258043,26.1953209 L245.258043,9.22057038 C245.258043,8.67851952 245.49198,8.41605279 245.988385,8.41605279 L247.791417,8.41605279 C248.293528,8.41605279 248.521759,8.72416591 248.521759,9.22057038 L248.521759,22.3153779 C249.52598,23.7361218 251.020899,24.6205205 252.361762,24.6205205 C252.749756,24.6205205 253.132045,24.5805799 253.480098,24.5064046 L253.594214,24.5064046 C253.822446,24.5064046 253.976503,24.6205205 254.016443,24.8886931 L254.284616,26.61755 Z M270.03262,13.7509744 C270.03262,16.2101735 268.303763,17.7450333 266.192617,18.6294321 L263.197073,19.8961194 C261.582332,20.586521 260.812049,21.2027472 260.812049,22.5093751 C260.812049,23.8160029 261.930386,24.8886931 263.96165,24.8886931 C265.188397,24.8886931 266.997135,24.4265234 267.99565,23.9700595 C268.109766,23.9301189 268.223882,23.8901783 268.303763,23.8901783 C268.492054,23.8901783 268.651817,24.0042943 268.725992,24.2781726 L269.148221,25.6190353 C269.188162,25.7331512 269.222396,25.8472672 269.222396,25.9271484 C269.222396,26.0812049 269.10828,26.1953209 268.880049,26.3094369 C267.151192,27.1196603 265.536451,27.3878328 263.887475,27.3878328 C260.503936,27.3878328 257.434217,25.6589759 257.434217,22.2811431 C257.434217,19.8561788 259.123133,18.321319 261.388335,17.4369202 L263.96165,16.4384055 C265.730448,15.7480039 266.843078,14.9434863 266.843078,13.4428613 C266.843078,11.6398289 265.348159,10.5671388 263.117192,10.5671388 C261.810564,10.5671388 259.967591,11.1034839 258.546847,11.7197101 C258.472672,11.7539449 258.392791,11.7539449 258.318615,11.7539449 C258.124618,11.7539449 257.970562,11.5998884 257.896386,11.3716564 L257.394276,9.99085317 C257.360041,9.91097199 257.360041,9.83679661 257.360041,9.75691543 C257.360041,9.56291829 257.474157,9.37462694 257.74233,9.26051097 C259.009017,8.67851952 261.040281,8.02805849 263.003076,8.02805849 C267.07131,8.02805849 270.03262,10.2190851 270.03262,13.7509744 M279.053487,31.4960077 C279.053487,32.6086384 278.094913,33.3389806 277.056458,33.3389806 C276.023708,33.3389806 275.099369,32.6086384 275.099369,31.4960077 C275.099369,30.383377 276.023708,29.6530348 277.056458,29.6530348 C278.060678,29.6530348 279.053487,30.383377 279.053487,31.4960077 M278.711139,9.22057038 L278.711139,26.1953209 C278.711139,26.731666 278.482907,26.9656037 277.980797,26.9656037 L276.217705,26.9656037 C275.715595,26.9656037 275.447423,26.731666 275.447423,26.1953209 L275.447423,9.22057038 C275.447423,8.67851952 275.715595,8.41605279 276.217705,8.41605279 L277.980797,8.41605279 C278.482907,8.41605279 278.711139,8.67851952 278.711139,9.22057038 M295.879887,9.33468635 C295.879887,9.37462694 295.839946,9.41456753 295.839946,9.48874291 L295.531833,10.7154896 C295.457658,10.9893679 295.263661,11.1034839 295.069664,11.1034839 C294.995488,11.1034839 294.915607,11.1034839 294.841432,11.0635433 C294.225205,10.8752519 293.306572,10.6013736 292.422173,10.6013736 C291.423658,10.6013736 290.733257,10.9094867 290.311028,11.3716564 C289.734742,12.0278232 289.654861,13.0206322 289.654861,14.2873194 L289.654861,24.6604611 L294.15103,24.6604611 C294.533319,24.6604611 294.727316,24.7745771 294.727316,25.1568656 L294.727316,26.4634934 C294.727316,26.8857225 294.533319,26.9656037 294.185265,26.9656037 L289.654861,26.9656037 L289.654861,31.6900049 C289.654861,32.112234 289.46657,32.3804065 289.078575,32.3804065 L288.924519,32.3804065 L287.041605,32.112234 C286.545201,32.0323528 286.391144,31.8782962 286.391144,31.3419512 L286.391144,26.9656037 L284.200117,26.9656037 C283.85777,26.9656037 283.703713,26.8115472 283.703713,26.4292587 L283.703713,25.2367468 C283.703713,24.7346365 283.777888,24.6604611 284.279999,24.6604611 L286.391144,24.6604611 L286.391144,14.5954326 C286.391144,12.2161146 286.471025,10.6812548 287.583656,9.44880232 C288.462349,8.49022817 290.117031,8.02805849 291.766006,8.02805849 C293.07834,8.02805849 294.459143,8.33617161 295.337836,8.72416591 C295.645949,8.83828188 295.879887,9.02657323 295.879887,9.33468635 M315.964298,26.5776094 C315.964298,26.8115472 315.810241,26.9656037 315.467893,26.9656037 L313.351042,26.9656037 C312.888872,26.9656037 312.700581,26.8115472 312.546524,26.3893181 L307.708007,12.1019986 L302.715434,26.4634934 C302.601318,26.8115472 302.36738,26.9656037 301.985091,26.9656037 L299.451717,26.9656037 C299.143604,26.9656037 299.023782,26.8115472 299.023782,26.5776094 C299.023782,26.503434 299.023782,26.3893181 299.069428,26.3094369 L305.93921,8.10793967 L304.940695,5.64874052 C304.136177,3.65171104 302.86949,2.80725286 300.758345,2.80725286 C300.37035,2.80725286 299.834005,2.88142824 299.411776,2.92136883 L299.25772,2.92136883 C298.909666,2.92136883 298.721375,2.76731227 298.681434,2.38502377 L298.487437,0.924339357 L298.487437,0.730342208 C298.487437,0.462169678 298.567318,0.233937738 298.909666,0.154056559 C299.491657,0.0399405895 300.062237,0 300.638523,0 C304.786638,0 306.709493,1.61474098 308.398409,6.15085078 L315.890122,26.2352615 C315.924357,26.3493775 315.964298,26.4634934 315.964298,26.5776094 M346.764198,17.7107985 C346.764198,23.2739521 344.076767,27.3878328 338.119913,27.3878328 C332.402703,27.3878328 329.293043,23.1598361 329.293043,17.7450333 C329.293043,12.2560552 331.940534,8.02805849 337.891681,8.02805849 C343.620303,8.02805849 346.764198,12.29029 346.764198,17.7107985 M343.38066,17.670858 C343.38066,14.0990281 341.965622,10.5671388 337.931622,10.5671388 C333.863388,10.5671388 332.670876,14.2873194 332.670876,17.8249145 C332.670876,21.2027472 333.937563,24.8487525 338.085679,24.8487525 C342.079737,24.8487525 343.38066,21.2426878 343.38066,17.670858 M363.35666,34.8738404 C363.35666,35.1077782 363.282485,35.2960695 362.89449,35.4501261 C361.935916,35.8381204 360.549407,36.1062929 359.402542,36.1062929 C355.830712,36.1062929 353.793742,34.1092634 353.337278,30.7656655 C353.257397,30.0752639 353.177516,29.0767492 353.177516,27.6902401 L353.177516,26.9656037 L350.946548,26.9656037 C350.569966,26.9656037 350.415909,26.8115472 350.415909,26.4292587 L350.415909,25.2367468 C350.415909,24.7346365 350.490084,24.6604611 350.912314,24.6604611 L353.177516,24.6604611 L353.177516,9.22057038 C353.177516,8.67851952 353.411453,8.41605279 353.907858,8.41605279 L355.716596,8.41605279 C356.252941,8.41605279 356.446938,8.72416591 356.446938,9.26051097 L356.446938,24.6604611 L361.205574,24.6604611 C361.593568,24.6604611 361.747625,24.8145177 361.747625,25.1968062 L361.747625,26.503434 C361.747625,26.8857225 361.553628,26.9656037 361.165633,26.9656037 L356.446938,26.9656037 L356.446938,28.768636 C356.446938,31.7641802 357.17728,33.4930372 359.78483,33.4930372 C360.663523,33.4930372 361.707684,33.2248647 362.323911,32.9909269 C362.438027,32.9566921 362.552142,32.9167515 362.666258,32.9167515 C362.85455,32.9167515 362.968666,33.0308675 363.048547,33.29904 L363.316719,34.4915519 C363.35666,34.6456085 363.35666,34.7597245 363.35666,34.8738404" id="path178"></path>
            </g>
            <g id="g180" transform="translate(219.965951, 66.614052) scale(1, -1) translate(-219.965951, -66.614052) translate(0.306974, 48.831931)">
                <path d="M22.6976664,8.67851952 C22.6976664,8.79263549 22.6577258,8.90675146 22.6234911,9.06080802 L13.1347481,34.2519084 C13.0206322,34.5600215 12.7866944,34.7197839 12.4443465,34.7197839 L10.4073765,34.7197839 C10.0650286,34.7197839 9.83109082,34.4858461 9.71697485,34.177733 L0.0741753805,9.02086743 C0.0399405895,8.86681087 -2.85100105e-14,8.7526949 -2.85100105e-14,8.63857893 C-2.85100105e-14,8.41034699 0.11411597,8.25629043 0.422229089,8.25629043 L2.68743109,8.25629043 C3.22948195,8.25629043 3.37783271,8.41034699 3.57182986,8.90675146 L6.22502616,16.0903518 L16.1702329,16.0903518 L18.7036075,8.94669205 C18.8976046,8.3704064 19.085896,8.25629043 19.7420628,8.25629043 L22.1213808,8.25629043 C22.5436099,8.25629043 22.6976664,8.41034699 22.6976664,8.67851952 M15.2458936,18.7378423 L7.14365972,18.7378423 L10.2932605,27.4563024 C10.7953708,28.8770462 11.0578375,29.647329 11.2518346,30.2635552 L11.2917752,30.2635552 C11.4458318,29.7272102 11.7140043,28.8770462 12.176174,27.5361836 L15.2458936,18.7378423 Z M43.4781846,17.7050927 C43.4781846,22.6577258 41.0532202,27.2280704 35.6041826,27.2280704 C33.413156,27.2280704 31.1080134,26.2295557 29.8812667,24.7688713 L29.8812667,26.1154397 C29.8812667,26.6517848 29.5731536,26.8058414 28.996868,26.8058414 L27.5361836,26.8058414 C27.0397791,26.8058414 26.8058414,26.6517848 26.8058414,26.1154397 L26.8058414,0.804517588 C26.8058414,0.268172529 27.0397791,0 27.5361836,0 L29.2250999,0 C29.7272102,0 30.0695581,0.154056559 30.0695581,0.730342208 L30.0695581,10.0193822 C31.2221294,8.59863834 33.2590995,7.86829613 35.142013,7.86829613 C40.7108723,7.86829613 43.4781846,12.5926973 43.4781846,17.7050927 M40.0604113,17.6252116 C40.0604113,14.2074383 38.6739022,10.4416113 34.7197839,10.4416113 C32.8368704,10.4416113 30.8797815,11.6341231 30.0695581,13.1290423 L30.0695581,22.1556156 C31.033838,23.5421246 33.1449835,24.6148147 34.9480158,24.6148147 C38.9420748,24.6148147 40.0604113,20.9688095 40.0604113,17.6252116 M65.4055682,17.7050927 C65.4055682,22.6577258 62.9863096,27.2280704 57.5315663,27.2280704 C55.3405397,27.2280704 53.0353971,26.2295557 51.8086504,24.7688713 L51.8086504,26.1154397 C51.8086504,26.6517848 51.5005373,26.8058414 50.9242516,26.8058414 L49.469273,26.8058414 C48.9671627,26.8058414 48.7389308,26.6517848 48.7389308,26.1154397 L48.7389308,0.804517588 C48.7389308,0.268172529 48.9671627,0 49.469273,0 L51.1581894,0 C51.6545938,0 52.0026475,0.154056559 52.0026475,0.730342208 L52.0026475,10.0193822 C53.1552188,8.59863834 55.1864831,7.86829613 57.0693966,7.86829613 C62.6382559,7.86829613 65.4055682,12.5926973 65.4055682,17.7050927 M61.9877949,17.6252116 C61.9877949,14.2074383 60.6012859,10.4416113 56.6471675,10.4416113 C54.7699598,10.4416113 52.8071651,11.6341231 52.0026475,13.1290423 L52.0026475,22.1556156 C52.9612217,23.5421246 55.0723671,24.6148147 56.8753994,24.6148147 C60.8751642,24.6148147 61.9877949,20.9688095 61.9877949,17.6252116 M73.9699718,9.06080802 L73.9699718,34.9080752 C73.9699718,35.4101855 73.736034,35.5642421 73.3936861,35.5642421 L73.199689,35.5642421 L71.2825407,35.2903637 C70.820371,35.2161883 70.706255,35.0621318 70.706255,34.5257867 L70.706255,9.02086743 C70.706255,8.48452237 70.934487,8.25629043 71.3966566,8.25629043 L73.2795701,8.25629043 C73.736034,8.25629043 73.9699718,8.52446296 73.9699718,9.06080802 M84.297467,31.3362454 C84.297467,32.4545819 83.3388929,33.1792183 82.3004376,33.1792183 C81.2619822,33.1792183 80.3433487,32.4545819 80.3433487,31.3362454 C80.3433487,30.2236147 81.2619822,29.4932724 82.3004376,29.4932724 C83.2989523,29.4932724 84.297467,30.2236147 84.297467,31.3362454 M83.9551191,9.06080802 L83.9551191,26.0355586 C83.9551191,26.5719036 83.7268872,26.8058414 83.2247769,26.8058414 L81.4559794,26.8058414 C80.9595749,26.8058414 80.6914024,26.5719036 80.6914024,26.0355586 L80.6914024,9.06080802 C80.6914024,8.52446296 80.9595749,8.25629043 81.4559794,8.25629043 L83.2247769,8.25629043 C83.7268872,8.25629043 83.9551191,8.52446296 83.9551191,9.06080802 M106.002325,18.1273218 L106.002325,18.7777829 C106.002325,21.2769226 105.346158,23.5421246 103.811298,25.116925 C102.544611,26.4235529 100.775813,27.2280704 98.5847865,27.2280704 C93.0558677,27.2280704 89.6380944,23.0400143 89.6380944,17.5510362 C89.6380944,11.7482391 92.7876952,7.86829613 98.7046083,7.86829613 C100.4677,7.86829613 102.926899,8.21634984 104.575875,8.98663264 C104.883988,9.1406892 105.038045,9.25480517 105.038045,9.48303711 C105.038045,9.5229777 105.038045,9.59715308 104.998104,9.67703426 L104.575875,11.0977781 C104.5017,11.3659506 104.307702,11.4458318 104.119411,11.4458318 C104.005295,11.4458318 103.885473,11.4058912 103.731417,11.3659506 C102.464729,10.8638403 100.701638,10.561433 99.1268373,10.561433 C95.2468944,10.561433 93.1699837,13.4029207 93.0558677,17.0489259 L104.849753,17.0489259 C105.848268,17.0489259 106.002325,17.2429231 106.002325,18.1273218 M102.772843,19.2798931 L93.1357489,19.2798931 C93.4381562,22.1213808 95.2468944,24.6946959 98.4364357,24.6946959 C101.352099,24.6946959 102.772843,22.4294939 102.772843,19.8162382 L102.772843,19.2798931 L102.772843,19.2798931 Z M126.663021,9.06080802 L126.663021,34.9080752 C126.663021,35.3702449 126.469024,35.5642421 126.086735,35.5642421 L125.892738,35.5642421 L124.009825,35.2903637 C123.51342,35.2161883 123.393598,34.9879564 123.393598,34.4858461 L123.393598,25.116925 C122.280968,26.4577876 120.169822,27.268011 118.40673,27.268011 C113.334276,27.268011 110.030618,23.0799549 110.030618,17.4369202 C110.030618,12.4044059 112.409936,7.86829613 117.944561,7.86829613 C120.129882,7.86829613 122.360849,8.90675146 123.587596,10.3674359 L123.627536,8.98663264 C123.627536,8.48452237 123.855768,8.25629043 124.432054,8.25629043 L126.086735,8.25629043 C126.429083,8.25629043 126.663021,8.56440355 126.663021,9.06080802 M123.393598,13.0149264 C122.435024,11.6341231 120.363819,10.4815518 118.555081,10.4815518 C115.217189,10.4815518 113.414157,13.5170366 113.414157,17.585271 C113.414157,21.8132677 115.40548,24.6547553 118.863194,24.6547553 C120.746108,24.6547553 122.589081,23.4280086 123.393598,21.9673242 L123.393598,13.0149264 Z M158.495671,15.4398907 C158.495671,19.0117206 156.270409,20.9288689 153.274865,22.5436099 L149.16669,24.7289307 C147.551949,25.5733889 146.171146,26.6917254 146.171146,28.6887549 C146.171146,31.26207 148.66458,32.2605847 150.815666,32.2605847 C152.356232,32.2605847 154.159264,31.798415 155.694124,31.1422482 C155.84818,31.0680728 156.002237,31.0281322 156.156293,31.0281322 C156.384525,31.0281322 156.578522,31.1422482 156.692638,31.4503613 L157.268924,33.0251617 C157.308865,33.1449835 157.343099,33.2590995 157.343099,33.3732154 C157.343099,33.6813285 157.114867,33.8696199 156.732579,34.0236765 C154.73555,34.8681346 152.892577,35.1762478 150.627375,35.1762478 C146.593375,35.1762478 142.4852,32.7969298 142.4852,28.3806417 C142.4852,25.6133295 144.174116,23.5421246 146.707491,22.1556156 L151.585949,19.5480657 C153.468862,18.5495509 154.963781,17.3170984 154.963781,15.1717182 C154.963781,12.1362334 152.202175,10.9037809 149.588919,10.9037809 C147.785887,10.9037809 145.863033,11.4058912 144.134176,12.0164116 C143.945885,12.0962928 143.786122,12.0962928 143.672006,12.0962928 C143.403834,12.0962928 143.249777,11.9821768 143.135661,11.6341231 L142.633551,9.9052662 C142.599316,9.79115023 142.599316,9.67703426 142.599316,9.56291829 C142.599316,9.25480517 142.753373,9.06080802 143.135661,8.94669205 C145.246807,8.25629043 147.512009,7.86829613 149.588919,7.86829613 C154.31332,7.86829613 158.495671,10.4073765 158.495671,15.4398907 M177.359041,9.48303711 C177.359041,9.59715308 177.3191,9.75120964 177.279159,9.9052662 L176.931106,10.9836621 C176.85693,11.2518346 176.742814,11.3659506 176.548817,11.3659506 C176.468936,11.3659506 176.360526,11.3317158 176.240704,11.2917752 C175.013957,10.7497244 173.593214,10.3674359 171.938532,10.3674359 C167.830357,10.3674359 166.141441,13.7452686 166.141441,17.6651522 C166.141441,21.9673242 168.446583,24.6946959 172.098294,24.6946959 C173.593214,24.6946959 174.899841,24.2724668 176.086648,23.730416 C176.206469,23.6562406 176.360526,23.6163 176.434701,23.6163 C176.662933,23.6163 176.777049,23.8102971 176.85693,24.0784697 L177.165043,25.3109221 C177.199278,25.4250381 177.239219,25.4992135 177.239219,25.6133295 C177.239219,25.8472672 177.125103,26.0013238 176.85693,26.1154397 C175.510362,26.8058414 173.593214,27.2280704 171.938532,27.2280704 C166.181381,27.2280704 162.763608,23.1541303 162.763608,17.5110956 C162.763608,11.7881797 165.679271,7.86829613 171.7103,7.86829613 C173.473392,7.86829613 175.242189,8.21634984 176.896871,8.98663264 C177.239219,9.1406892 177.359041,9.25480517 177.359041,9.48303711 M186.265792,31.3362454 C186.265792,32.4545819 185.307218,33.1792183 184.268763,33.1792183 C183.230307,33.1792183 182.311674,32.4545819 182.311674,31.3362454 C182.311674,30.2236147 183.230307,29.4932724 184.268763,29.4932724 C185.267277,29.4932724 186.265792,30.2236147 186.265792,31.3362454 M185.917738,9.06080802 L185.917738,26.0355586 C185.917738,26.5719036 185.689506,26.8058414 185.187396,26.8058414 L183.424304,26.8058414 C182.922194,26.8058414 182.654022,26.5719036 182.654022,26.0355586 L182.654022,9.06080802 C182.654022,8.52446296 182.922194,8.25629043 183.424304,8.25629043 L185.187396,8.25629043 C185.689506,8.25629043 185.917738,8.52446296 185.917738,9.06080802 M207.964944,18.1273218 L207.964944,18.7777829 C207.964944,21.2769226 207.314483,23.5421246 205.773917,25.116925 C204.50723,26.4235529 202.744138,27.2280704 200.553111,27.2280704 C195.024193,27.2280704 191.606419,23.0400143 191.606419,17.5510362 C191.606419,11.7482391 194.75602,7.86829613 200.667227,7.86829613 C202.436025,7.86829613 204.895224,8.21634984 206.5442,8.98663264 C206.852313,9.1406892 207.00637,9.25480517 207.00637,9.48303711 C207.00637,9.5229777 207.00637,9.59715308 206.966429,9.67703426 L206.5442,11.0977781 C206.470025,11.3659506 206.276027,11.4458318 206.08203,11.4458318 C205.967914,11.4458318 205.853798,11.4058912 205.699742,11.3659506 C204.433054,10.8638403 202.664257,10.561433 201.089457,10.561433 C197.209514,10.561433 195.138309,13.4029207 195.024193,17.0489259 L206.812372,17.0489259 C207.810887,17.0489259 207.964944,17.2429231 207.964944,18.1273218 M204.735462,19.2798931 L195.098368,19.2798931 C195.406481,22.1213808 197.209514,24.6946959 200.399055,24.6946959 C203.320424,24.6946959 204.735462,22.4294939 204.735462,19.8162382 L204.735462,19.2798931 L204.735462,19.2798931 Z M228.62564,9.06080802 L228.62564,20.3525832 C228.62564,24.5406393 226.936724,27.2280704 222.520436,27.2280704 C220.295174,27.2280704 217.990032,26.4235529 216.221234,24.9229278 L216.186999,26.1154397 C216.186999,26.6118442 215.913121,26.8058414 215.456657,26.8058414 L213.762035,26.8058414 C213.22569,26.8058414 213.031693,26.5719036 213.031693,26.0355586 L213.031693,9.02086743 C213.031693,8.52446296 213.305571,8.25629043 213.762035,8.25629043 L215.570773,8.25629043 C216.067178,8.25629043 216.301115,8.52446296 216.301115,9.06080802 L216.301115,22.2754373 C217.641978,23.502184 219.833005,24.5006988 221.596096,24.5006988 C224.671522,24.5006988 225.361923,22.5436099 225.361923,19.8162382 L225.361923,9.06080802 C225.361923,8.52446296 225.595861,8.25629043 226.092266,8.25629043 L227.901004,8.25629043 C228.437349,8.25629043 228.62564,8.52446296 228.62564,9.06080802 M248.447584,9.48303711 C248.447584,9.59715308 248.407643,9.75120964 248.367703,9.9052662 L248.019649,10.9836621 C247.945474,11.2518346 247.831358,11.3659506 247.637361,11.3659506 C247.563185,11.3659506 247.449069,11.3317158 247.334953,11.2917752 C246.102501,10.7497244 244.681757,10.3674359 243.027076,10.3674359 C238.918901,10.3674359 237.229984,13.7452686 237.229984,17.6651522 C237.229984,21.9673242 239.535127,24.6946959 243.186838,24.6946959 C244.681757,24.6946959 245.988385,24.2724668 247.175191,23.730416 C247.295013,23.6562406 247.449069,23.6163 247.523245,23.6163 C247.751477,23.6163 247.865593,23.8102971 247.945474,24.0784697 L248.253587,25.3109221 C248.293528,25.4250381 248.327762,25.4992135 248.327762,25.6133295 C248.327762,25.8472672 248.213646,26.0013238 247.945474,26.1154397 C246.604611,26.8058414 244.681757,27.2280704 243.027076,27.2280704 C237.269925,27.2280704 233.852152,23.1541303 233.852152,17.5110956 C233.852152,11.7881797 236.767815,7.86829613 242.798844,7.86829613 C244.567641,7.86829613 246.330733,8.21634984 247.985414,8.98663264 C248.327762,9.1406892 248.447584,9.25480517 248.447584,9.48303711 M268.149706,18.1273218 L268.149706,18.7777829 C268.149706,21.2769226 267.493539,23.5421246 265.95868,25.116925 C264.691992,26.4235529 262.923195,27.2280704 260.732168,27.2280704 C255.20325,27.2280704 251.785476,23.0400143 251.785476,17.5510362 C251.785476,11.7482391 254.935077,7.86829613 260.85199,7.86829613 C262.615082,7.86829613 265.074281,8.21634984 266.723257,8.98663264 C267.03137,9.1406892 267.185426,9.25480517 267.185426,9.48303711 C267.185426,9.5229777 267.185426,9.59715308 267.145486,9.67703426 L266.723257,11.0977781 C266.649081,11.3659506 266.455084,11.4458318 266.266793,11.4458318 C266.152677,11.4458318 266.032855,11.4058912 265.878799,11.3659506 C264.612111,10.8638403 262.849019,10.561433 261.274219,10.561433 C257.394276,10.561433 255.317365,13.4029207 255.20325,17.0489259 L266.997135,17.0489259 C267.99565,17.0489259 268.149706,17.2429231 268.149706,18.1273218 M264.920224,19.2798931 L255.283131,19.2798931 C255.591244,22.1213808 257.394276,24.6946959 260.583817,24.6946959 C263.499481,24.6946959 264.920224,22.4294939 264.920224,19.8162382 L264.920224,19.2798931 L264.920224,19.2798931 Z M284.548171,13.5969178 C284.548171,16.0504112 282.819314,17.585271 280.702463,18.4696697 L277.706919,19.736357 C276.097884,20.4324644 275.327601,21.0429849 275.327601,22.3496127 C275.327601,23.6562406 276.440232,24.7289307 278.477202,24.7289307 C279.709654,24.7289307 281.512686,24.2724668 282.511201,23.8102971 C282.625317,23.7703566 282.739433,23.730416 282.819314,23.730416 C283.007606,23.730416 283.161662,23.8502377 283.241543,24.1184103 L283.663772,25.4592729 C283.698007,25.5733889 283.737948,25.6932106 283.737948,25.767386 C283.737948,25.9214426 283.623832,26.0355586 283.3956,26.1496745 C281.666743,26.9598979 280.052002,27.2280704 278.403026,27.2280704 C275.019488,27.2280704 271.949768,25.4992135 271.949768,22.1213808 C271.949768,19.7021222 273.638684,18.1672624 275.903886,17.2828637 L278.477202,16.2843489 C280.245999,15.5882415 281.35863,14.7837239 281.35863,13.2888047 C281.35863,11.4800666 279.858005,10.4073765 277.632743,10.4073765 C276.326116,10.4073765 274.483143,10.9437215 273.062399,11.5599478 C272.988223,11.5941826 272.908342,11.5941826 272.834167,11.5941826 C272.64017,11.5941826 272.486113,11.4458318 272.406232,11.2118941 L271.909828,9.83109082 C271.869887,9.75120964 271.869887,9.67703426 271.869887,9.59715308 C271.869887,9.40886173 271.984003,9.21486458 272.257881,9.10074861 C273.524568,8.52446296 275.561539,7.86829613 277.518627,7.86829613 C281.586862,7.86829613 284.548171,10.0593228 284.548171,13.5969178 M316.574818,8.7526949 L316.574818,10.0593228 C316.574818,10.4815518 316.380821,10.561433 316.038473,10.561433 L315.770301,10.561433 C315.462187,10.561433 315.26819,10.6356084 315.11984,10.9037809 C314.960077,11.1377187 314.925842,11.7482391 314.925842,12.6326379 L314.925842,26.0754991 C314.925842,26.5719036 314.691905,26.8058414 314.229735,26.8058414 L312.506584,26.8058414 C312.084355,26.8058414 311.776242,26.6118442 311.776242,26.1496745 L311.736301,24.8886931 C310.58373,26.4235529 308.512525,27.2280704 306.589671,27.2280704 C302.213323,27.2280704 298.407556,23.6163 298.407556,17.2029825 C298.407556,12.3644653 300.752639,7.86829613 306.053326,7.86829613 C308.398409,7.86829613 310.931783,9.40886173 311.810476,11.0977781 L311.890358,11.0977781 C311.890358,9.56291829 312.694875,8.25629043 314.389497,8.25629043 L315.998533,8.25629043 C316.380821,8.25629043 316.574818,8.3704064 316.574818,8.7526949 M311.662126,14.4756108 C310.971724,12.5584625 309.008929,10.6013736 306.54973,10.6013736 C303.788124,10.6013736 301.831035,13.2089235 301.831035,17.4369202 C301.831035,22.0072648 304.056296,24.6148147 307.0119,24.6148147 C308.854873,24.6148147 310.737786,23.5763594 311.662126,21.8532083 L311.662126,14.4756108 Z M337.087164,9.06080802 L337.087164,20.3525832 C337.087164,24.5406393 335.398247,27.2280704 330.976254,27.2280704 C328.750992,27.2280704 326.44585,26.4235529 324.677052,24.9229278 L324.642817,26.1154397 C324.642817,26.6118442 324.368939,26.8058414 323.912475,26.8058414 L322.223559,26.8058414 C321.681508,26.8058414 321.493216,26.5719036 321.493216,26.0355586 L321.493216,9.02086743 C321.493216,8.52446296 321.761389,8.25629043 322.223559,8.25629043 L324.026591,8.25629043 C324.528701,8.25629043 324.756933,8.52446296 324.756933,9.06080802 L324.756933,22.2754373 C326.097796,23.502184 328.288822,24.5006988 330.05762,24.5006988 C333.12734,24.5006988 333.817741,22.5436099 333.817741,19.8162382 L333.817741,9.06080802 C333.817741,8.52446296 334.051679,8.25629043 334.548083,8.25629043 L336.356822,8.25629043 C336.893167,8.25629043 337.087164,8.52446296 337.087164,9.06080802 M359.014547,9.06080802 L359.014547,34.9080752 C359.014547,35.3702449 358.82055,35.5642421 358.438262,35.5642421 L358.244265,35.5642421 L356.367057,35.2903637 C355.864947,35.2161883 355.750831,34.9879564 355.750831,34.4858461 L355.750831,25.116925 C354.632494,26.4577876 352.521349,27.268011 350.758257,27.268011 C345.685802,27.268011 342.382145,23.0799549 342.382145,17.4369202 C342.382145,12.4044059 344.767169,7.86829613 350.290382,7.86829613 C352.481408,7.86829613 354.712375,8.90675146 355.939122,10.3674359 L355.979063,8.98663264 C355.979063,8.48452237 356.207295,8.25629043 356.78358,8.25629043 L358.438262,8.25629043 C358.786315,8.25629043 359.014547,8.56440355 359.014547,9.06080802 M355.750831,13.0149264 C354.786551,11.6341231 352.715346,10.4815518 350.906608,10.4815518 C347.568716,10.4815518 345.759978,13.5170366 345.759978,17.585271 C345.759978,21.8132677 347.762713,24.6547553 351.220427,24.6547553 C353.097634,24.6547553 354.946313,23.4280086 355.750831,21.9673242 L355.750831,13.0149264 L355.750831,13.0149264 Z M395.919652,8.67851952 C395.919652,8.79263549 395.885417,8.90675146 395.845477,9.06080802 L386.356734,34.2519084 C386.242618,34.5600215 386.014386,34.7197839 385.666332,34.7197839 L383.635068,34.7197839 C383.281308,34.7197839 383.053076,34.4858461 382.938961,34.177733 L373.301867,9.02086743 C373.261926,8.86681087 373.221986,8.7526949 373.221986,8.63857893 C373.221986,8.41034699 373.336102,8.25629043 373.644215,8.25629043 L375.915123,8.25629043 C376.445762,8.25629043 376.599818,8.41034699 376.799521,8.90675146 L379.441306,16.0903518 L389.392219,16.0903518 L391.931299,8.94669205 C392.11959,8.3704064 392.307882,8.25629043 392.964048,8.25629043 L395.343366,8.25629043 C395.771301,8.25629043 395.919652,8.41034699 395.919652,8.67851952 M388.467879,18.7378423 L380.365645,18.7378423 L383.520952,27.4563024 C384.011651,28.8770462 384.285529,29.647329 384.479526,30.2635552 L384.513761,30.2635552 C384.667817,29.7272102 384.93599,28.8770462 385.39816,27.5361836 L388.467879,18.7378423 Z M409.094341,26.4577876 L409.094341,26.6517848 C409.094341,26.8800167 409.01446,27.0740139 408.786228,27.1139545 C408.403939,27.1881299 407.94177,27.2280704 407.673597,27.2280704 C405.636627,27.2280704 404.175943,26.0754991 403.257309,24.8088119 L403.217368,26.1154397 C403.217368,26.6118442 402.949196,26.8058414 402.452791,26.8058414 L400.79811,26.8058414 C400.33594,26.8058414 400.073473,26.6118442 400.073473,26.0355586 L400.073473,9.06080802 C400.073473,8.52446296 400.301705,8.25629043 400.79811,8.25629043 L402.601142,8.25629043 C403.103252,8.25629043 403.331484,8.56440355 403.331484,9.06080802 L403.331484,22.1556156 C404.329999,23.5763594 405.830624,24.4607582 407.171487,24.4607582 C407.559481,24.4607582 407.94177,24.4208176 408.284117,24.3466422 L408.403939,24.3466422 C408.632171,24.3466422 408.786228,24.4607582 408.820463,24.7289307 L409.094341,26.4577876 L409.094341,26.4577876 Z M423.649833,9.17492399 C423.649833,9.21486458 423.609892,9.25480517 423.609892,9.32898055 L423.301779,10.561433 C423.221898,10.8296056 423.033607,10.9437215 422.845315,10.9437215 C422.765434,10.9437215 422.691259,10.9437215 422.617083,10.9037809 C422.000857,10.7154896 421.076518,10.4416113 420.192119,10.4416113 C419.193604,10.4416113 418.503203,10.7497244 418.080973,11.2118941 C417.504688,11.8680609 417.430512,12.8665756 417.430512,14.1332629 L417.430512,24.5006988 L421.920976,24.5006988 C422.303264,24.5006988 422.497262,24.6148147 422.497262,25.002809 L422.497262,26.3037311 C422.497262,26.731666 422.303264,26.8058414 421.960916,26.8058414 L417.430512,26.8058414 L417.430512,31.5302425 C417.430512,31.9524716 417.23081,32.2206441 416.854227,32.2206441 L416.70017,32.2206441 L414.817257,31.9524716 C414.320852,31.8725904 414.16109,31.7242397 414.16109,31.1821888 L414.16109,26.8058414 L411.970063,26.8058414 C411.627715,26.8058414 411.473659,26.6517848 411.473659,26.2694963 L411.473659,25.0769844 C411.473659,24.5805799 411.55354,24.5006988 412.049944,24.5006988 L414.16109,24.5006988 L414.16109,14.441376 C414.16109,12.0563522 414.235265,10.5214924 415.353602,9.28903996 C416.238001,8.33046581 417.886976,7.86829613 419.541658,7.86829613 C420.84258,7.86829613 422.229089,8.17640925 423.113488,8.56440355 C423.421601,8.67851952 423.649833,8.86681087 423.649833,9.17492399 M439.317956,13.5969178 C439.317956,16.0504112 437.589099,17.585271 435.477953,18.4696697 L432.482409,19.736357 C430.873374,20.4324644 430.103091,21.0429849 430.103091,22.3496127 C430.103091,23.6562406 431.215722,24.7289307 433.252692,24.7289307 C434.479438,24.7289307 436.288177,24.2724668 437.280985,23.8102971 C437.395101,23.7703566 437.514923,23.730416 437.589099,23.730416 C437.783096,23.730416 437.937152,23.8502377 438.011328,24.1184103 L438.439263,25.4592729 C438.479203,25.5733889 438.513438,25.6932106 438.513438,25.767386 C438.513438,25.9214426 438.399322,26.0355586 438.165384,26.1496745 C436.436527,26.9598979 434.827492,27.2280704 433.178516,27.2280704 C429.794978,27.2280704 426.719552,25.4992135 426.719552,22.1213808 C426.719552,19.7021222 428.408469,18.1672624 430.673671,17.2828637 L433.252692,16.2843489 C435.015783,15.5882415 436.128414,14.7837239 436.128414,13.2888047 C436.128414,11.4800666 434.633495,10.4073765 432.408234,10.4073765 C431.101606,10.4073765 429.252927,10.9437215 427.837889,11.5599478 C427.758008,11.5941826 427.678127,11.5941826 427.603951,11.5941826 C427.41566,11.5941826 427.261603,11.4458318 427.187428,11.2118941 L426.685318,9.83109082 C426.645377,9.75120964 426.645377,9.67703426 426.645377,9.59715308 C426.645377,9.40886173 426.759493,9.21486458 427.027666,9.10074861 C428.294353,8.52446296 430.331323,7.86829613 432.288412,7.86829613 C436.362352,7.86829613 439.317956,10.0593228 439.317956,13.5969178" id="path182"></path>
            </g>
        </g>
    </g>
</svg>