<svg height="340" viewBox="0 0 1478 340" width="1478" xmlns="http://www.w3.org/2000/svg" xmlns:xlink="http://www.w3.org/1999/xlink"><mask id="a" fill="#fff"><path d="m0 0h1143.58v332.761h-1143.58z" fill="#fff" fill-rule="evenodd"/></mask><mask id="b" fill="#fff"><path d="m0 0h1143.58v332.761h-1143.58z" fill="#fff" fill-rule="evenodd"/></mask><mask id="c" fill="#fff"><path d="m0 0h1143.58v332.761h-1143.58z" fill="#fff" fill-rule="evenodd"/></mask><g fill="#000" fill-rule="evenodd" transform="translate(.06 .374)"><path d="m532.231 237.99 49.174 69.402h-21.216l-40.621-57.561-20.393 19.571v37.99h-17.597v-117.095h17.597v58.712l59.863-58.712h22.367z"/><path d="m664.614 222.531v84.861h-15.788v-12.663c-5.427 8.386-14.637 14.636-26.642 14.636-18.255 0-29.767-10.525-29.767-29.931v-56.903h16.446v54.6c0 12.17 6.413 17.762 17.926 17.762 10.196 0 21.379-7.401 21.379-24.504v-47.858z"/><path d="m683.191 307.392h16.447v-117.095h-16.447z"/><path d="m741.243 236.016v50.983c0 4.934 2.466 7.236 9.703 7.236h7.401v13.157c-3.618.329-7.072.493-10.033.493-15.294 0-23.517-5.263-23.517-19.406v-52.463h-13.651v-13.485h13.651v-24.34h16.446v24.34h17.104v13.485z"/><path d="m843.698 222.531v84.861h-15.788v-12.663c-5.428 8.386-14.638 14.636-26.642 14.636-18.256 0-29.768-10.525-29.768-29.931v-56.903h16.446v54.6c0 12.17 6.414 17.762 17.926 17.762 10.196 0 21.379-7.401 21.379-24.504v-47.858z"/><path d="m909.31 221.38v15.623h-4.111c-16.282 0-26.479 8.059-26.479 24.34v46.049h-16.445v-84.861h15.788v15.13c4.604-9.21 12.992-16.446 26.478-16.446 1.48 0 2.959 0 4.769.165"/><path d="m988.247 264.304c0-19.407-9.704-29.603-24.833-29.603-15.13 0-24.833 10.854-24.833 30.26s9.703 30.261 24.833 30.261c15.129 0 24.833-11.513 24.833-30.918zm17.103.657c0 27.136-15.294 44.404-38.811 44.404-12.17 0-21.545-5.098-27.63-13.814v44.075h-16.446v-117.095h15.788v12.828c6.085-9.374 15.624-14.802 28.288-14.802 23.517 0 38.811 17.268 38.811 44.404z"/><path d="m1066.85 221.38v15.623h-4.11c-16.28 0-26.48 8.059-26.48 24.34v46.049h-16.44v-84.861h15.79v15.13c4.6-9.21 12.99-16.446 26.47-16.446 1.48 0 2.96 0 4.77.165"/><path d="m1142.99 264.961c0-19.406-9.86-30.26-24.83-30.26-15.13 0-25 10.854-25 30.26s9.87 30.261 25 30.261c14.97 0 24.83-10.855 24.83-30.261zm-66.93 0c0-27.136 17.27-44.404 42.1-44.404 24.67 0 41.94 17.268 41.94 44.404s-17.27 44.404-41.94 44.404c-24.83 0-42.1-17.268-42.1-44.404z"/><path d="m1240.84 293.906v13.486h-70.06v-11.512l36.51-46.542c3.46-4.441 7.07-9.046 10.86-13.486-5.92.164-11.84.164-17.76.164h-28.29v-13.485h66.77v11.512l-36.51 46.542c-3.45 4.441-7.07 9.045-10.85 13.485 5.92-.164 11.84-.164 17.76-.164z"/><path d="m1268.3 257.396h46.87c-1.48-13.157-9.54-23.024-23.35-23.024-12.34 0-21.38 7.401-23.52 23.024zm63.81 12.993h-63.97c1.48 17.267 10.69 25.162 24.34 25.162 11.02 0 18.09-5.592 21.05-14.144h16.61c-4.28 16.446-17.6 27.958-37.99 27.958-24.01 0-40.62-17.103-40.62-44.404 0-26.642 16.11-44.404 40.29-44.404 25.66 0 40.29 19.571 40.29 45.062z"/><path d="m1418.94 250.489v56.903h-16.45v-54.601c0-12.17-6.41-17.762-17.92-17.762-10.03 0-21.38 7.401-21.38 24.505v47.858h-16.45v-84.861h15.79v12.663c5.59-8.387 14.64-14.637 26.64-14.637 18.42 0 29.77 10.526 29.77 29.932"/><path d="m1460.71 236.016v50.983c0 4.934 2.46 7.236 9.7 7.236h7.4v13.157c-3.62.329-7.07.493-10.03.493-15.3 0-23.52-5.263-23.52-19.406v-52.463h-13.65v-13.485h13.65v-24.34h16.45v24.34h17.1v13.485z"/><path d="m585.096 141.094v-67.57l-28.981 67.57h-16.087l-28.5-67.57v67.57h-29.952v-117.04h40.085l27.543 66.089 28.816-66.089h37.021v117.04z"/><path d="m638.077 141.082v-117.039h25.601c2.259 0 4.488 2.251 4.488 4.681v112.358z"/><path d="m751.259 73.693h38.042c3.006 0 4.71 2.453 4.71 5.337v60.464c-10.708 2.395-27.428 3.847-39.862 3.847-43.651 0-66.664-20.782-66.664-60.932 0-35.813 23.013-60.623 61.379-60.623 16.885 0 31.692 4.509 41.235 10.945l-11.801 20.136c-8.234-3.689-19.345-6.271-27.198-6.271-22.056 0-32.361 14.635-32.361 35.813 0 22.631 11.93 36.604 33.958 36.604 4.041 0 9.047-.158 13.052-.777v-20.631h-14.49z"/><path d="m882.957 141.082-13.88-32.217c-2.841-6.559-4.826-9.817-10.837-9.817h-12.175v42.034h-29.42v-112.358c0-2.43 2.675-4.681 4.58-4.681h41.538c22.559 0 41.904 4.681 41.904 33.828 0 13.045-7.227 26.406-20.761 29.103 6.738 2.294 13.534 10.952 17.222 20.33l13.376 33.778zm-22.171-94.488h-14.721v29.348h14.721c8.795 0 15.713-4.688 15.713-15.813 0-11.284-6.918-13.535-15.713-13.535z"/><path d="m979.534 143.344c-38.324 0-58.596-27.061-58.596-60.939 0-33.562 20.272-60.616 58.596-60.616 35.896 0 56.196 27.054 56.196 60.616 0 33.878-20.3 60.939-56.196 60.939m0-96.752c-15.785 0-27.019 11.283-27.019 35.813 0 24.896 11.234 36.137 27.019 36.137 13.541 0 24.626-11.241 24.626-36.137 0-24.53-11.085-35.813-24.626-35.813"/><path d="m1093.36 143.344c-19.78 0-38.17-7.09-46.36-12.721l13.34-23.659c7.44 4.501 21.92 11.426 35.27 11.426 7.55 0 17.1-1.459 17.1-9.852 0-7.874-10.66-10.291-24.66-14.289-16.88-4.847-36.54-11.571-36.54-34.288 0-24.487 21.74-38.172 50.06-38.172 18.69 0 33.17 6.616 40.55 13.685l-16.23 18.503c-8.04-4.804-16.26-8.536-25.46-8.536-11.09 0-17.37 4.207-17.37 10.334 0 6.07 8.05 9.169 18.18 12.218 17.9 5.516 42.34 11.176 42.34 34.619 0 24.149-19.31 40.732-50.22 40.732" mask="url(#a)"/><path d="m383.857 25.668c-34.224-34.224-89.712-34.224-123.936 0l-41.228 41.228 61.968 61.968c38.553 37.539 34.037 85.081 33.045 90.993l70.201-70.203c34.224-34.224 34.174-89.762-.05-123.986" mask="url(#b)"/><path d="m263.277 146.858-113.732-113.732-.003-.004c-34.224-34.223-89.711-34.223-123.935 0-34.223 34.224-34.223 89.711 0 123.934l175.705 175.705 61.965-61.968c34.223-34.223 34.223-89.712 0-123.935l-15.258926-400.942953" mask="url(#c)"/></g></svg>