<?xml version="1.0" encoding="UTF-8"?>
<svg width="600px" height="278px" viewBox="0 0 600 278" version="1.1" xmlns="http://www.w3.org/2000/svg" xmlns:xlink="http://www.w3.org/1999/xlink">
    <title>uzhifi</title>
    <g id="Page-1" stroke="none" stroke-width="1" fill="none" fill-rule="evenodd">
        <g id="uzhifi" transform="translate(0.000000, 0.012500)" fill="#000000" fill-rule="nonzero">
            <path d="M62,260.7375 L62,243.4875 L65.25,243.4875 L68.5,243.4875 L68.5,245.0875 L68.5,246.6375 L69.65,245.6375 C73,242.5375 78.15,242.1375 81.95,244.6375 C85.9,247.2375 87.85,253.8375 86.55,260.0875 C84.8,268.3875 76.4,272.0875 70.5,267.1375 L69,265.8875 L69,271.9375 L69,277.9875 L65.5,277.9875 L62,277.9875 L62,260.7375 L62,260.7375 Z M77.05,263.1875 C79,262.1875 80,259.7875 80,256.2375 C80,251.2375 78.05,248.4875 74.5,248.4875 C71,248.4875 69,251.1375 69,255.7375 C69,259.0875 69.9,261.4375 71.75,262.8875 C73.4,264.1875 75,264.2875 77.05,263.1875 Z" id="Shape"></path>
            <path d="M41.35,268.8375 C38.8,268.0375 36.2,265.8375 34.85,263.3375 C33.9,261.5875 33.75,260.4875 33.75,256.2375 C33.75,250.7375 34.5,248.5875 37.35,245.8875 C40.4,242.9875 46.2,242.0875 50.25,243.9375 C54.25,245.7375 57,250.5875 57,255.8375 L57,257.9875 L48.75,257.9875 C40.55,257.9875 40.5,257.9875 40.5,259.1375 C40.5,263.8875 47.4,266.0875 49.35,261.9375 C49.95,260.6875 50,260.6875 53.25,261.1875 C56.65,261.6875 56.85,261.8875 55.95,263.6375 C53.5,268.3375 47.15,270.6375 41.35,268.8375 L41.35,268.8375 Z M50.15,253.6375 C50.25,253.3875 50.15,252.4875 49.9,251.5875 C49.35,249.4875 46.85,247.8375 44.75,248.2375 C42.9,248.5375 40.5,251.0875 40.5,252.7375 C40.5,253.9875 40.55,253.9875 45.2,253.9875 C47.8,253.9875 50.05,253.8375 50.15,253.6375 L50.15,253.6375 Z" id="Shape"></path>
            <path d="M94.65,268.4875 C91.6,267.1375 90.4,264.9875 90.65,261.3375 C90.95,256.5875 92.9,255.1875 102.15,253.2375 C105.55,252.5375 106,252.2875 106,251.2875 C106,249.1375 104.8,248.2375 102,248.2375 C99.75,248.2375 99.25,248.4375 98.2,249.6875 C97,251.0375 96.8,251.0875 94.4,250.7875 C91.1,250.3375 90.95,250.2375 91.55,248.5875 C92.3,246.5375 95,244.0375 97,243.4875 C100.25,242.5875 106.45,242.8875 108.85,244.0375 C112.15,245.6375 112.5,246.7375 112.5,255.3375 C112.55,262.1375 112.8,264.7375 113.8,267.8875 C114.1,269.0375 114.05,269.0375 110.7,268.8875 C107.55,268.7375 107.25,268.6375 107.1,267.6375 C107,266.9875 106.9,266.4875 106.85,266.4875 C106.8,266.4875 105.4,267.1875 103.8,267.9875 C100.35,269.7375 97.7,269.8875 94.65,268.4875 L94.65,268.4875 Z M103.15,263.9375 C105.05,262.9375 106,261.3875 106,259.0375 L106,256.8875 L104.4,257.1875 C100.8,257.8875 98.9,258.5875 97.95,259.5375 C96.75,260.7375 96.75,261.5375 98.05,263.1875 C99.15,264.5875 101.25,264.9375 103.15,263.9375 L103.15,263.9375 Z" id="Shape"></path>
            <path d="M142,268.8375 C139,267.8375 138.5,266.0375 138.5,256.8875 L138.5,248.9875 L137.05,248.9875 C135.65,248.9875 135.55,248.8375 135.4,246.8875 L135.25,244.7375 L134.3,247.3875 C133.6,249.5375 133.25,249.9875 132.55,249.6875 C130.9,248.9875 128.95,248.8875 128.2,249.5375 C126.35,251.0375 125.95,252.9375 125.7,260.8875 L125.45,268.7375 L122.25,268.8875 L119,269.0375 L119,256.2375 L119,243.4875 L122,243.4875 L125,243.4875 L125,245.0375 L125,246.5875 L127,244.7875 C128.6,243.3375 129.4,242.9875 131.05,242.9875 C132.15,242.9875 133.45,243.1875 133.9,243.4375 C134.35,243.6375 135.6,243.7375 136.65,243.6375 L138.5,243.3875 L138.5,240.7875 L138.5,238.2375 L141.65,236.4875 C143.35,235.5375 144.9,234.6875 145.15,234.5875 C145.35,234.4875 145.5,236.4375 145.5,238.9375 L145.5,243.4875 L147.8,243.4875 L150.05,243.4875 L149.9,246.1375 L149.75,248.7375 L147.6,248.8875 L145.45,249.0375 L145.6,256.1375 L145.75,263.2375 L147.6,263.2875 C148.65,263.2875 149.55,263.3875 149.7,263.5375 C149.8,263.6375 150,264.7875 150.2,266.0875 L150.55,268.4375 L148.65,268.9375 C146.25,269.6375 144.2,269.5875 142,268.8375 L142,268.8375 Z" id="Path"></path>
            <path d="M203.65,268.7875 C200.45,267.7375 198.7,266.1875 197.2,263.1375 C196,260.7375 195.8,259.6875 195.8,256.2375 C195.8,252.6875 196,251.7375 197.3,249.1875 C198.3,247.1375 199.4,245.7875 200.9,244.7375 C202.95,243.3375 203.4,243.2375 207.5,243.2375 C211.6,243.2375 212.05,243.3375 214.1,244.7375 C216.85,246.6375 218.9,250.5875 219.3,254.8375 L219.65,257.9875 L211.2,258.0875 L202.75,258.2375 L202.9,259.4875 C203.55,264.1375 209.75,265.8875 211.75,261.9875 L212.45,260.6375 L215.55,261.1875 C217.25,261.4875 218.75,261.9875 218.85,262.2875 C219.2,263.2875 216,266.9375 213.9,268.0375 C211.3,269.3875 206.5,269.7375 203.65,268.7875 L203.65,268.7875 Z M212.5,252.7875 C212.5,251.1875 210.35,248.6875 208.65,248.2875 C206.55,247.7375 204.5,248.8875 203.45,251.1875 C202.95,252.2875 202.7,253.3875 202.8,253.5875 C202.95,253.7875 205.2,253.9875 207.8,253.9875 C212.45,253.9875 212.5,253.9875 212.5,252.7875 L212.5,252.7875 Z" id="Shape"></path>
            <path d="M258.2,268.7875 C255.35,267.5375 255,266.4875 255,258.9375 C255,250.1875 254.8,249.0875 253.05,248.8875 C251.85,248.7375 251.75,248.5875 251.75,246.2375 C251.75,243.8375 251.8,243.7375 253.25,243.4875 C254.65,243.2375 254.75,243.0875 254.75,240.7875 C254.8,239.4375 255,238.2375 255.25,238.1375 C255.55,238.0375 257,237.1875 258.5,236.2375 L261.25,234.5375 L261.5,238.8875 L261.75,243.2375 L263.85,243.3875 L265.9,243.5375 L266.1,246.0375 C266.15,247.4375 266.15,248.6875 266.05,248.7875 C265.95,248.8875 264.85,248.9875 263.65,248.9875 L261.5,248.9875 L261.5,255.6375 C261.5,259.2375 261.7,262.5375 261.95,262.9375 C262.35,263.5875 263.9,263.7875 265.45,263.4375 C266,263.2875 266.25,263.8875 266.4,265.7875 C266.55,268.2875 266.55,268.3875 264.95,268.9375 C262.85,269.6875 260.1,269.5875 258.2,268.7875 L258.2,268.7875 Z" id="Path"></path>
            <path d="M291.25,268.5875 C287.55,267.3375 285.7,265.7875 284.3,262.8375 C281.9,257.7875 282.15,252.8375 285,248.2875 C287.05,245.0875 290.2,243.3875 294.75,243.0875 C300.7,242.7375 304.6,244.7375 307.2,249.5375 C308.45,251.8375 308.7,252.7375 308.7,255.9875 C308.7,260.6375 307.4,263.6375 304.35,266.2375 C300.75,269.3375 295.9,270.1875 291.25,268.5875 L291.25,268.5875 Z M298.85,262.6875 C300.9,261.3875 301.75,259.4875 301.75,256.2375 C301.7,252.6875 300.65,250.3375 298.5,249.2375 C295.65,247.7875 292.15,248.7375 290.75,251.4375 C287.75,257.3375 291.2,264.6375 296.5,263.6375 C297.2,263.5375 298.25,263.0875 298.85,262.6875 Z" id="Shape"></path>
            <path d="M410.25,268.5875 C408.85,268.0875 406.95,267.1875 406.05,266.5375 C401.9,263.5875 400.35,254.8875 403.1,249.7375 C405.55,245.0875 409.05,243.0375 414.65,242.9875 C420.25,242.9875 424.05,245.2375 426.35,249.8875 C430,257.3875 426.35,266.4875 418.8,268.7375 C415.6,269.6875 413.35,269.6375 410.25,268.5875 Z M417.55,262.8375 C419.8,261.3375 420.65,259.3875 420.65,255.9375 C420.6,252.5875 419.55,250.2875 417.5,249.2375 C414.35,247.5875 411,248.8375 409.45,252.1375 C407.95,255.5375 408.4,259.4875 410.6,261.8875 C412.8,264.2375 415.05,264.5375 417.55,262.8375 Z" id="Shape"></path>
            <path d="M497.65,268.4875 C494.6,267.1375 493.4,264.9875 493.65,261.3375 C493.8,259.0375 494.1,258.1875 495.25,256.9875 C496.6,255.5375 499.45,254.3875 503,253.7375 C507.65,252.9375 509,252.3875 509,251.2875 C509,249.1375 507.8,248.2375 505,248.2375 C502.75,248.2375 502.25,248.4375 501.2,249.6875 C500,251.0375 499.8,251.0875 497.4,250.7875 C494.1,250.3375 493.95,250.2375 494.55,248.5875 C495.3,246.5375 498,244.0375 500,243.4875 C503.15,242.5875 509.45,242.8875 511.75,243.9875 C515.1,245.6375 515.5,246.7875 515.5,255.3375 C515.55,262.1375 515.8,264.7375 516.8,267.8875 C517.1,269.0375 517.05,269.0375 513.7,268.8875 C510.55,268.7375 510.25,268.6375 510.1,267.6375 C510,266.9875 509.9,266.4875 509.85,266.4875 C509.8,266.4875 508.4,267.1875 506.8,267.9875 C503.35,269.7375 500.7,269.8875 497.65,268.4875 L497.65,268.4875 Z M506.5,263.7375 C508.35,262.7875 509,261.5875 509,258.9875 L509,256.8875 L507.4,257.2375 C503.5,258.0375 501.9,258.5875 500.95,259.5375 C499.7,260.7875 499.75,261.7875 501.25,263.2375 C502.65,264.6875 504.4,264.8375 506.5,263.7375 Z" id="Shape"></path>
            <path d="M525.4,268.4875 C522.9,267.1375 522.5,265.4875 522.5,256.3875 L522.5,248.9875 L521,248.9875 C519.5,248.9875 519.5,248.9375 519.5,246.2375 C519.5,243.5375 519.5,243.4875 520.95,243.4875 C522.4,243.4875 522.45,243.3875 522.6,240.8875 C522.75,238.3375 522.75,238.2875 525.75,236.4375 C527.4,235.3875 528.9,234.5375 529.15,234.5375 C529.35,234.4875 529.5,236.5375 529.5,238.9875 L529.5,243.4875 L531.75,243.4875 L534,243.4875 L534,246.2375 L534,248.9875 L531.75,248.9875 L529.45,248.9875 L529.6,256.1375 L529.75,263.2375 L531.6,263.2875 C532.65,263.2875 533.55,263.3875 533.7,263.5375 C533.8,263.6375 534,264.7875 534.2,266.0875 L534.55,268.4375 L532.65,268.9375 C529.85,269.7375 527.5,269.5875 525.4,268.4875 L525.4,268.4875 Z" id="Path"></path>
            <path d="M558.35,268.6875 C553.05,266.9875 550.15,261.8375 550.6,254.7875 C550.9,250.6375 552.1,247.8375 554.7,245.5875 C556.85,243.7375 559.25,242.9875 563.25,242.9875 C568,243.0375 572.1,245.4875 573.5,249.1875 C574.15,250.9875 573.85,251.2375 570.3,251.7375 C568.2,251.9875 567.65,251.8875 567.25,251.1875 C566.05,249.1375 565,248.4875 562.75,248.4875 C559.15,248.4875 557.5,250.7375 557.5,255.7375 C557.5,259.5375 558.65,262.2375 560.75,263.1875 C561.65,263.6375 562.65,263.9875 563,263.9875 C564.4,263.9875 566.65,262.2875 567.3,260.6375 C567.9,259.2375 568.25,258.9375 569.15,259.1875 C569.75,259.3375 571.2,259.5875 572.4,259.7875 C574.85,260.1875 574.9,260.6375 572.55,264.4875 C570.05,268.6875 563.95,270.4875 558.35,268.6875 L558.35,268.6875 Z" id="Path"></path>
            <path d="M584.75,269.0375 C582.25,268.4375 580.15,267.0875 578.55,265.1375 C576.6,262.7875 576.55,261.6375 578.4,261.2875 C583.2,260.3375 583.4,260.3375 583.75,261.4875 C584.2,262.8375 586.85,264.4875 588.65,264.4875 C589.4,264.4875 590.8,264.1375 591.75,263.7875 C593.1,263.1875 593.5,262.7375 593.5,261.7875 C593.5,260.6875 593.15,260.4375 590.65,259.7375 C582.35,257.4375 581,256.9375 579.6,255.4875 C575.75,251.6375 577.85,245.0375 583.4,243.4875 C586.45,242.6375 592.45,242.8875 594.8,243.9375 C596.9,244.8875 598.75,246.9875 599.1,248.7375 C599.25,249.5875 598.85,249.7875 596.4,250.1875 C593.65,250.6375 593.45,250.5875 592.3,249.3375 C591.25,248.1875 590.65,247.9875 588.35,247.9875 C586.8,247.9875 585.3,248.2875 584.7,248.6875 C582.95,250.0375 584.4,251.1375 589.8,252.5875 C595.7,254.1375 598.65,255.5875 599.45,257.2875 C599.75,257.9875 600,259.7875 600,261.3375 C600,263.9375 599.85,264.2375 597.9,266.2375 C596.25,267.8875 595.15,268.4875 593.1,268.9375 C590.2,269.5375 587.05,269.5875 584.75,269.0375 L584.75,269.0375 Z" id="Path"></path>
            <path d="M-1.77635684e-15,251.5375 L-1.77635684e-15,233.9875 L9.4,233.9875 C18.2,233.9875 18.9,234.0875 21.25,235.1875 C24.4,236.6875 26.1,238.4375 27.85,242.2375 C29.1,244.9875 29.25,245.7375 29.25,251.2375 C29.25,258.2875 28.25,261.4375 25.15,264.6875 C21.8,268.0875 20,268.5875 9.4,268.8875 L-1.77635684e-15,269.1375 L-1.77635684e-15,251.5375 L-1.77635684e-15,251.5375 Z M18.35,261.7375 C21.1,260.1375 21.75,258.0875 21.75,251.2375 C21.75,245.8875 21.65,245.0375 20.6,243.4375 C19,240.7875 16.9,239.9875 11.8,239.9875 L7.5,239.9875 L7.5,251.5375 L7.5,263.0875 L12.15,262.8875 C15.5,262.7375 17.2,262.4375 18.35,261.7375 L18.35,261.7375 Z" id="Shape"></path>
            <path d="M154,256.2375 L154,243.4875 L157,243.4875 L160,243.4875 L160,244.9875 C160,246.5375 160.7,246.9875 161.15,245.7375 C161.65,244.4875 165.3,242.9875 168,242.9875 C170.85,242.9875 173.05,243.9375 174.2,245.5875 L175,246.6875 L176.1,245.6375 C179.25,242.7375 184.45,242.0375 187.55,244.1375 C190.7,246.2375 191,247.4875 191,258.8875 L191,268.9875 L187.8,268.9875 L184.6,268.9875 L184.4,259.8875 C184.2,250.0375 183.85,248.7375 181.65,248.1875 C179.85,247.7375 177.95,248.8375 176.9,250.9875 C176.15,252.4375 176,254.1375 176,260.8875 L176,269.0375 L172.65,268.8875 L169.25,268.7375 L169,259.2375 C168.85,254.0375 168.6,249.4875 168.35,249.1375 C167.7,248.0875 165.15,247.8875 163.55,248.6875 C160.9,250.0875 160.55,251.6375 160.5,262.1375 L160.5,268.9875 L157.25,268.9875 L154,268.9875 L154,256.2375 L154,256.2375 Z" id="Path"></path>
            <path d="M224.75,268.3875 C224.6,268.0375 224.55,262.3375 224.6,255.7375 L224.75,243.7375 L227.9,243.5875 L231,243.4375 L231,244.9375 L231,246.4375 L233.55,244.6875 C235.7,243.2375 236.55,242.9875 238.9,242.9875 C242.4,242.9875 245.4,244.3875 246.75,246.5875 C247.65,248.0875 247.75,249.1375 247.75,258.4875 L247.75,268.7375 L244.4,268.8875 L241,269.0375 L241,260.2875 C241,250.9375 240.7,249.4875 238.65,248.5375 C237.05,247.7875 236.25,247.8375 234.5,248.7375 C232.05,249.9875 231.8,251.0375 231.5,260.2375 L231.25,268.7375 L228.1,268.8875 C225.9,268.9875 224.9,268.8375 224.75,268.3875 L224.75,268.3875 Z" id="Path"></path>
            <path d="M314.85,268.6375 C314.65,268.4875 314.5,263.9875 314.5,258.6375 L314.5,248.9875 L312.75,248.9875 L311,248.9875 L311,246.2375 L311,243.4875 L312.7,243.4875 C314.35,243.4875 314.35,243.4375 314.7,240.7875 C315.25,235.7875 316.4,234.3375 320.4,233.4375 C322.25,233.0375 327.2,233.4875 327.85,234.1375 C328,234.3375 327.95,235.4375 327.7,236.5875 C327.25,238.6875 327.25,238.7375 325.2,238.5875 C322.65,238.3875 321.5,239.3875 321.5,241.7875 L321.5,243.4875 L324,243.4875 L326.5,243.4875 L326.5,246.2375 L326.5,248.9875 L324,248.9875 L321.5,248.9875 L321.5,258.9875 L321.5,268.9875 L318.35,268.9875 C316.6,268.9875 315,268.8375 314.85,268.6375 L314.85,268.6375 Z" id="Path"></path>
            <polygon id="Path" points="343.5 251.4875 343.5 233.9875 347 233.9875 350.5 233.9875 350.5 251.4875 350.5 268.9875 347 268.9875 343.5 268.9875"></polygon>
            <path d="M357.35,268.6375 C357.15,268.4875 357,262.7375 357,255.8875 L357,243.4875 L360.25,243.4875 L363.5,243.4875 L363.5,244.9875 L363.5,246.4875 L365.75,244.8875 C370.3,241.6875 377.25,242.6875 379.3,246.8875 C380.1,248.4875 380.25,250.0875 380.25,258.7375 L380.25,268.7375 L376.9,268.8875 L373.5,269.0375 L373.5,260.5375 C373.5,255.8875 373.3,251.4875 373,250.7875 C372.75,250.0875 371.95,249.1375 371.2,248.6875 C370,247.8875 369.7,247.8875 367.8,248.5375 C364.45,249.6875 364,251.1375 364,260.8875 L364,268.9875 L360.85,268.9875 C359.1,268.9875 357.5,268.8375 357.35,268.6375 Z" id="Path"></path>
            <path d="M387.85,268.6375 C387.65,268.4875 387.5,263.8875 387.5,258.4875 L387.5,248.6875 L385.75,248.8875 L384,249.0875 L384,246.2875 L384,243.4875 L385.7,243.4875 C387.45,243.4875 387.45,243.4875 387.8,240.6375 C388,239.0375 388.3,237.2375 388.55,236.6375 C389.45,234.1875 393.7,232.7375 397.9,233.4375 C399.35,233.6375 400.65,233.9875 400.8,234.1375 C400.95,234.2875 400.95,235.3375 400.75,236.4375 C400.4,238.4875 400.4,238.4875 398.25,238.4875 C395.6,238.4875 394.5,239.4375 394.5,241.7875 L394.5,243.4875 L397,243.4875 L399.5,243.4875 L399.5,246.2375 L399.5,248.9875 L397,248.9875 L394.5,248.9875 L394.5,258.9875 L394.5,268.9875 L391.35,268.9875 C389.6,268.9875 388,268.8375 387.85,268.6375 Z" id="Path"></path>
            <path d="M432.85,268.6375 C432.65,268.4875 432.5,262.7375 432.5,255.8875 L432.5,243.4875 L435.75,243.4875 L439,243.4875 L439,244.9375 L439,246.3875 L440.75,244.6375 C442.45,242.9375 442.65,242.8875 445.3,243.0875 C446.8,243.2375 448.3,243.5875 448.55,243.8375 C449.3,244.5875 447.35,249.8375 446.4,249.5375 C440.85,247.8375 439.5,250.2375 439.5,261.9375 L439.5,268.9875 L436.35,268.9875 C434.6,268.9875 433,268.8375 432.85,268.6375 L432.85,268.6375 Z" id="Path"></path>
            <path d="M451.5,256.2375 L451.5,243.4875 L454.5,243.4875 L457.5,243.4875 L457.5,245.0875 L457.5,246.6375 L458.65,245.6375 C462.4,242.1375 469.25,242.0875 471.65,245.5375 L472.5,246.6875 L473.6,245.6375 C476.75,242.7375 481.95,242.0375 485.05,244.1375 C488.2,246.2375 488.5,247.4875 488.5,258.8875 L488.5,268.9875 L485.3,268.9875 L482.1,268.9875 L481.9,259.8875 C481.8,253.7375 481.55,250.3875 481.1,249.6375 C479.85,247.3875 476.35,247.7375 474.65,250.3375 C473.9,251.4375 473.7,253.1375 473.5,260.2375 L473.25,268.7375 L469.9,268.8875 L466.5,269.0375 L466.5,260.0375 C466.5,255.0875 466.3,250.4875 466,249.7875 C465.4,248.1875 463.5,247.6875 461.45,248.4875 C458.6,249.6875 458.3,250.7875 458.1,260.3375 L457.9,268.9875 L454.7,268.9875 L451.5,268.9875 L451.5,256.2375 L451.5,256.2375 Z" id="Path"></path>
            <polygon id="Path" points="538.5 256.2375 538.5 243.4375 541.9 243.5875 545.25 243.7375 545.25 256.2375 545.25 268.7375 541.9 268.8875 538.5 269.0375 538.5 256.2375"></polygon>
            <polygon id="Path" points="538.5 236.9875 538.5 233.9875 542 233.9875 545.5 233.9875 545.5 236.9875 545.5 239.9875 542 239.9875 538.5 239.9875"></polygon>
            <path d="M90.75,188.1375 C73.25,187.2875 56.55,181.9375 42.7,172.6875 C26.6,161.9375 14.8,147.5875 7.3,129.6875 C4.15,122.0875 1,109.0375 1,103.4875 C1,102.2375 0.75,100.9375 0.45,100.6375 C-0.15,100.0375 0.1,90.2875 0.95,83.8375 C4.6,55.2875 19,31.6375 42.3,15.8875 C52,9.3375 66.7,3.4375 77.5,1.7875 C80.4,1.3375 83.7,0.7375 84.9,0.4875 C87.7,-0.1625 100.45,-0.1625 103.95,0.4875 C105.5,0.7875 109.25,1.4375 112.25,1.9875 C128.05,4.7875 144.7,13.0875 157.25,24.3875 C166.15,32.3875 172.7,41.1375 178.2,52.2375 C183.5,62.9375 186.2,71.5375 187.5,82.1875 C188.45,89.5375 187.9,106.3875 186.5,112.7375 C181.1,137.8375 167.1,158.4875 146,172.6875 C133.7,180.9875 116.4,186.9375 102.15,187.7375 C99.45,187.8875 96.45,188.0875 95.5,188.1375 C94.55,188.2375 92.4,188.2375 90.75,188.1375 Z M107.45,184.6875 C133.85,181.0375 157.85,165.3375 172,142.4375 C192.5,109.3375 190,67.4875 165.6,36.7875 C152.9,20.7375 133,8.6375 112.75,4.4875 C104.3,2.7875 95,2.1875 87.45,2.9375 C63.25,5.1875 43.4,14.7875 27.3,32.0875 C17.1,43.0375 9.3,57.2375 5.85,71.2375 C3.45,80.8375 3.25,82.7875 3.25,94.4875 C3.3,104.7375 3.4,106.2875 4.65,112.0375 C9.25,133.6375 20.25,151.8875 36.7,165.1875 C56.85,181.4875 81.55,188.2875 107.45,184.6875 Z" id="Shape"></path>
            <path d="M83.7,181.4375 C75.25,180.4375 65.1,177.4875 57.1,173.7375 C31.6,161.6875 14,139.1375 8.15,111.0375 C7,105.5375 6.85,103.4875 6.8,94.7375 C6.75,84.2375 7.1,81.1875 9.35,72.2375 C17.75,38.5375 46.5,12.5375 81.25,7.2375 C90.35,5.8375 103.6,6.2875 113.05,8.2375 C125.45,10.8375 139.65,17.6875 149.75,25.9875 C165.45,38.8875 176.15,56.4875 180.3,76.1875 C181.9,83.7875 182.45,97.2875 181.5,104.7375 C176.45,145.2375 144.6,176.8375 104.25,181.4875 C99.05,182.0375 88.85,182.0375 83.7,181.4375 Z M99.1,180.1875 C100.9,179.8875 100.9,179.8375 101.45,176.5375 C101.8,174.7375 102.15,172.5875 102.3,171.7875 C102.6,170.3875 102.6,170.3375 101.75,171.1875 C101.2,171.6875 100.3,171.9875 99.35,171.8875 C97.25,171.6875 97.05,170.5875 99.05,170.3875 C100.45,170.2375 100.75,169.9375 101.65,167.5875 C102.55,165.1375 102.6,164.8875 101.85,164.1375 C101.2,163.4875 100.9,163.4375 100.3,163.9875 C99.85,164.3375 99.5,164.9875 99.5,165.4875 C99.5,165.9375 99.05,166.9375 98.5,167.6375 C97.95,168.3375 97.5,169.1375 97.5,169.4375 C97.5,169.7875 96.45,169.9875 95,169.9875 C93.15,169.9875 92.5,170.1875 92.5,170.6875 C92.5,171.6375 90.8,172.1875 89.2,171.7875 C87.5,171.3375 87.7,170.4875 89.5,170.4875 C90.75,170.4875 91,170.2875 91,169.2875 C91,168.6375 90.65,167.9875 90.25,167.7875 C89.85,167.6375 89.5,167.0875 89.5,166.5375 C89.5,166.0375 89.1,165.0875 88.6,164.4875 C87.75,163.4375 87.65,163.4375 86.85,164.1875 C86.1,164.9875 86.05,165.1875 86.8,166.8875 C87.25,167.8875 87.7,168.9875 87.8,169.2875 C87.95,169.5875 87.65,169.9875 87.1,170.0875 C86.2,170.3375 86.2,170.4875 86.95,175.0375 C87.7,179.2875 87.85,179.7375 89,180.0375 C90.6,180.4875 96.7,180.5875 99.1,180.1875 L99.1,180.1875 Z M119.9,176.4375 C129.55,173.3375 137.75,169.1375 146,163.0875 C150.45,159.7875 161,149.4375 161,148.3375 C161,147.8875 160.5,147.0875 159.9,146.4875 C158.4,145.0875 155.9,145.1875 154.15,146.6875 C152.9,147.7875 152.75,148.2375 152.75,150.9375 L152.75,153.9875 L149.95,153.9875 L147.1,153.9875 L146.9,150.8875 C146.7,148.3375 146.45,147.6375 145.3,146.6375 C141.95,143.7875 138,146.2375 138,151.2375 L138,153.8875 L135.2,154.0875 C133.65,154.1375 132.3,154.1375 132.2,154.0375 C132.1,153.9375 132,152.5375 132,150.9875 C132,148.5375 131.8,147.9375 130.7,146.7875 C129.25,145.3875 127.2,145.0875 125.4,146.0375 C124.1,146.7375 123,149.4375 123,151.9875 L123,153.9875 L120.3,153.9875 L117.6,153.9875 L117.4,150.8875 C117.2,148.3375 116.95,147.6375 115.8,146.6375 C113.8,144.9375 111.45,145.0875 109.8,147.0375 C108.75,148.2875 108.5,149.0875 108.5,151.2875 C108.5,153.9375 108.45,153.9875 107.05,153.9875 C104,153.9875 104,153.9375 104,161.5375 L104,168.4875 L106.9,168.4875 C111.3,168.4875 119.05,169.0875 118.75,169.4375 C118.6,169.5875 115.25,169.8375 111.35,169.9875 L104.25,170.2375 L104.1,174.4375 C104,176.7375 104.05,178.9375 104.2,179.2875 C104.5,180.0875 113.45,178.4875 119.9,176.4375 L119.9,176.4375 Z M84.5,174.7375 L84.5,169.9875 L82.5,169.9875 C81.05,169.9875 80.5,169.7875 80.5,169.2375 C80.5,168.6875 81.05,168.4875 82.5,168.4875 L84.55,168.4875 L84.4,161.3875 L84.25,154.2375 L82.65,154.0875 C81,153.9375 81,153.8875 81,151.1875 C81,148.7875 80.8,148.1875 79.55,146.9375 C78.55,145.9375 77.6,145.4875 76.5,145.4875 C75.4,145.4875 74.45,145.9375 73.45,146.9375 C72.2,148.2375 72,148.7875 72,151.1875 L72,153.9875 L69.05,153.9875 C66.2,153.9875 66.15,153.9375 66.4,152.7375 C67.1,148.9875 64.85,145.4875 61.75,145.4875 C58.85,145.4875 57.5,147.2375 57.5,150.9875 L57.5,153.9875 L54.5,153.9875 L51.5,153.9875 L51.5,151.1875 C51.5,148.7875 51.3,148.2375 50.05,146.9375 C48.2,145.1375 46.1,145.0375 44.2,146.6375 C43.05,147.6375 42.8,148.3375 42.6,150.8875 L42.4,153.9875 L39.7,153.9875 L37,153.9875 L37,151.9875 C37,149.4375 35.9,146.7375 34.6,146.0375 C32.75,145.0375 30.55,145.3875 29.25,146.7875 C28.55,147.5375 28,148.3375 28,148.5875 C28,149.4875 32.35,154.1875 37,158.3375 C48.25,168.3375 62.25,175.4375 76.5,178.4375 C79.1,178.9875 82,179.4375 82.9,179.4375 L84.5,179.4875 L84.5,174.7375 L84.5,174.7375 Z M98.05,164.3875 L99.7,162.7375 L94.75,162.5875 C92.1,162.5375 89.75,162.5875 89.55,162.7375 C89.4,162.9375 90,163.7375 90.9,164.5375 C93.2,166.6375 95.85,166.5375 98.05,164.3875 Z M102,160.2375 C102,159.4375 100.1,157.4875 99.25,157.4875 C98.95,157.4875 98.35,157.9375 97.85,158.4875 C97.4,159.0375 96.4,159.4875 95.6,159.4875 C94.8,159.4875 93.75,159.0375 93.25,158.4875 C92.7,157.8875 91.7,157.4875 90.75,157.4875 C89,157.4875 86.5,159.1375 86.5,160.2875 C86.5,160.8375 87.85,160.9875 94.25,160.9875 C100.7,160.9875 102,160.8875 102,160.2375 Z M96.9,156.0875 L98.55,154.7375 L97.75,152.8375 C97,151.0375 96.9,150.9875 94.55,150.9875 C91.9,150.9875 91.15,151.5375 90.75,153.7875 C90.5,154.9875 90.7,155.4375 92.1,156.3875 C94.2,157.7875 94.9,157.7875 96.9,156.0875 Z M39.7,151.6875 C40.25,151.4875 40.5,150.7375 40.5,149.4375 C40.5,146.6875 42.95,144.0375 45.8,143.6375 C49.55,143.1375 52.45,145.5875 53,149.6875 C53.35,152.5375 54.6,152.4375 55.1,149.5375 C55.55,146.7875 56.6,145.2375 58.6,144.1875 C62.4,142.2375 67.5,145.2375 67.5,149.4375 C67.5,150.7375 67.75,151.4875 68.3,151.6875 C69.55,152.1875 70,151.5875 70,149.4375 C70,147.8875 70.35,147.0875 71.65,145.6875 C75.7,141.2875 82.5,144.2375 82.5,150.3875 C82.5,152.4375 84.5,152.3875 85.05,150.3375 C86,146.7375 90.35,143.4875 94.15,143.4875 C98.1,143.4875 101.9,146.0875 103.55,149.8875 C104.65,152.3875 105.5,152.4375 106.1,149.9375 C106.9,146.7375 107.6,145.4875 109.25,144.4875 C113.4,141.9375 118.2,144.5375 118.6,149.5875 C118.85,152.2875 121,152.6375 121,149.9375 C121,146.6875 124.05,143.4875 127.15,143.4875 C130.4,143.4875 133.5,146.3875 133.5,149.4875 C133.5,150.7375 133.75,151.4875 134.3,151.6875 C135.5,152.1375 135.85,151.6875 135.85,149.5875 C135.85,144.9875 140.2,142.2875 144.65,144.1875 C146.75,145.0375 147.95,146.8375 148.35,149.7375 C148.75,152.9375 150.1,152.6375 150.6,149.2875 C151.4,143.7375 157.2,141.6375 161.05,145.4875 L162.5,146.8875 L164.55,144.0875 L166.55,141.2375 L94.7,141.0875 C55.2,141.0375 22.7,141.0875 22.6,141.2375 C22.4,141.4375 24.3,144.4875 25.85,146.4375 C25.95,146.5875 26.5,146.1875 27.15,145.6375 C29.65,143.3375 31.9,142.9375 34.7,144.2375 C36.5,145.0875 38,147.2875 38,149.1375 C38,150.3375 38.45,151.9875 38.75,151.9875 C38.85,151.9875 39.25,151.8375 39.7,151.6875 L39.7,151.6875 Z M96.9,149.3375 C97.2,149.0875 97.5,148.3375 97.45,147.5875 C97.45,146.8375 97.3,146.5375 97.15,146.8875 C96.75,147.8875 95.7,147.5875 95.1,146.1875 C94.5,144.9375 93.5,144.9375 93.5,146.2375 C93.5,147.2875 92.55,147.6375 91.65,146.8875 C90.9,146.2875 90.85,146.3875 91.2,147.7375 C91.4,148.5375 91.75,149.3375 92,149.4875 C92.65,149.8875 96.15,149.7375 96.9,149.3375 L96.9,149.3375 Z M168.5,138.2875 C168.5,138.1875 168.65,137.7375 168.8,137.2875 C169.1,136.5375 162.3,136.4875 94.3,136.4875 C19.6,136.4875 19.45,136.4875 20,137.4875 C20.55,138.4875 21.05,138.4875 94.5,138.4875 C135.2,138.4875 168.5,138.3875 168.5,138.2875 Z M65.9,90.0875 C66,45.6375 66,45.0875 67,44.8375 C67.95,44.5875 68,44.1375 68,38.6375 C68.05,34.4875 68.25,32.3875 68.75,31.4875 C69.15,30.7875 69.45,28.8875 69.5,27.0875 C69.5,24.9875 69.8,23.3375 70.5,21.9875 C71.55,19.9375 73.85,17.9875 75.25,17.9875 C76.7,17.9875 78.9,19.4375 80.3,21.2875 C81.45,22.7875 81.75,23.7875 82,27.1875 C82.2,29.3875 82.6,31.8875 82.9,32.6375 C83.25,33.4375 83.5,36.4875 83.5,39.5375 C83.5,44.6375 83.55,44.9875 84.5,44.9875 C85.5,44.9875 85.5,45.3375 85.5,60.8375 L85.5,76.6875 L88,74.2375 L90.5,71.7875 L90.5,67.2375 C90.5,64.5875 90.85,61.7375 91.3,60.2375 C92,57.9875 93.95,42.3875 94,38.7875 C94,35.4375 94.65,38.4875 95.8,47.3375 C96.45,52.4875 97.45,58.2375 98,60.0875 C98.7,62.3875 99,64.8375 99,68.0875 L99,72.7875 L101.5,75.2375 L104,77.6875 L104,61.3375 C104,45.3375 104,44.9875 105,44.9875 C105.95,44.9875 106,44.6375 106,39.4875 C106,35.6875 106.25,33.3875 106.75,32.1375 C107.15,31.1875 107.5,29.1875 107.5,27.7875 C107.5,26.3875 107.75,24.4375 108,23.4375 C108.6,21.3375 111.75,17.9875 113.1,17.9875 C115.1,17.9875 118.05,20.2375 119.3,22.6375 C120.25,24.4375 121.05,30.7375 121.35,38.6375 C121.55,44.4875 121.65,44.9875 122.55,44.9875 C123.5,44.9875 123.5,45.8375 123.6,89.9875 L123.75,134.9875 L146.9,135.0375 C159.65,135.0375 170.15,134.9875 170.2,134.8875 C170.7,134.3875 172.75,129.9375 174.25,126.1375 C183,104.4875 182.35,79.0375 172.5,58.0875 C167.9,48.4375 163.35,41.8375 156.05,34.2875 C146.4,24.3875 135.6,17.3875 123.25,12.9875 C75.4,-3.9125 24.05,23.3875 11.05,72.5875 C9.05,80.0875 8.4,85.6875 8.4,94.7375 C8.4,107.7875 11.35,120.6875 16.8,131.5875 C18.4,134.7375 18.6,134.9375 20.35,135.0875 C21.4,135.1875 32.05,135.1875 44,135.1375 L65.75,135.0375 L65.9,90.0875 L65.9,90.0875 Z M82.9,125.0875 L83,114.9875 L75.25,114.9875 L67.5,114.9875 L67.5,124.9875 L67.5,134.9375 L74.4,135.1375 C78.15,135.1875 81.6,135.2875 82,135.2375 C82.65,135.2375 82.75,133.6875 82.9,125.0875 L82.9,125.0875 Z M104,125.1375 L104,114.9875 L94.25,114.9875 L84.5,114.9875 L84.5,124.9375 C84.5,131.1875 84.7,134.9875 85,135.0875 C85.3,135.1875 89.65,135.2375 94.75,135.2375 L104,135.2375 L104,125.1375 Z M120.9,125.0375 L121,114.9875 L113.5,114.9875 L106,114.9875 L106,124.9375 C106,133.8375 106.1,134.9375 106.85,135.0875 C107.3,135.1875 110.6,135.1875 114.2,135.1875 L120.75,135.0875 L120.9,125.0375 L120.9,125.0375 Z M83,107.4875 L83,101.4875 L75.25,101.4875 L67.5,101.4875 L67.5,107.4875 L67.5,113.4875 L75.25,113.4875 L83,113.4875 L83,107.4875 Z M104,107.4875 L104,101.4875 L101,101.4875 L98.05,101.4875 L97.9,105.3875 L97.75,109.2375 L94.25,109.2375 L90.75,109.2375 L90.6,105.3875 L90.45,101.4875 L87.5,101.4875 L84.5,101.4875 L84.5,107.4875 L84.5,113.4875 L94.25,113.4875 L104,113.4875 L104,107.4875 L104,107.4875 Z M121,107.4875 L121,101.4875 L113.5,101.4875 L106,101.4875 L106,107.4875 L106,113.4875 L113.5,113.4875 L121,113.4875 L121,107.4875 Z M83,90.7375 L83,81.4875 L75.25,81.4875 L67.5,81.4875 L67.5,90.7375 L67.5,99.9875 L75.25,99.9875 L83,99.9875 L83,90.7375 Z M90.5,98.7375 C90.5,95.5875 93.05,93.4375 95.65,94.4375 C97.2,95.0375 98,96.3875 98,98.4375 L98,99.9875 L101,99.9875 L104,99.9875 L104,95.7375 L104,91.4875 L94.25,91.4875 L84.5,91.4875 L84.5,95.7375 L84.5,99.9875 L87.5,99.9875 C90.35,99.9875 90.5,99.9375 90.5,98.7375 Z M121,90.7375 L121,81.4875 L113.5,81.4875 L106.05,81.4875 L105.9,90.5375 C105.8,95.4875 105.85,99.6875 105.95,99.7875 C106.05,99.8875 109.5,99.9875 113.6,99.9875 L121,99.9875 L121,90.7375 Z M104,85.2375 L104,81.4875 L94.25,81.4875 L84.5,81.4875 L84.5,85.2375 L84.5,88.9875 L94.25,88.9875 L104,88.9875 L104,85.2375 Z M71,74.9375 L71,69.8875 L72.7,68.1875 C73.65,67.2375 74.8,66.4875 75.25,66.4875 C75.7,66.4875 76.85,67.2375 77.8,68.1875 L79.5,69.8875 L79.5,74.9375 L79.5,79.9875 L81.25,79.9875 L83.05,79.9875 L82.9,72.3875 L82.75,64.7375 L75.25,64.7375 L67.75,64.7375 L67.6,72.3875 L67.45,79.9875 L69.25,79.9875 L71,79.9875 L71,74.9375 L71,74.9375 Z M78,75.2875 C78,71.3375 77.85,70.4375 76.95,69.2875 C76.4,68.5875 75.6,67.9875 75.25,67.9875 C74.9,67.9875 74.1,68.5875 73.55,69.2875 C72.65,70.4375 72.5,71.3375 72.5,75.2875 L72.5,79.9875 L75.25,79.9875 L78,79.9875 L78,75.2875 Z M103.5,79.8375 C103.5,79.7875 101.4,77.6375 98.85,75.0875 L94.25,70.4875 L89.5,75.2375 L84.75,79.9875 L94.15,79.9875 C99.3,79.9875 103.5,79.9375 103.5,79.8375 Z M109,75.6375 C109,70.6875 109.85,68.2375 112.1,67.0375 C113.25,66.3875 113.6,66.3875 114.75,66.9875 C116.95,68.1375 117.7,70.1875 117.7,75.2375 L117.75,79.7375 L119.4,79.8875 L121.05,80.0375 L120.9,72.3875 L120.75,64.7375 L113.4,64.5875 L106,64.4375 L106,72.2375 L106,79.9875 L107.5,79.9875 L109,79.9875 L109,75.6375 Z M116.4,75.2375 C116.25,70.9375 116.15,70.3875 114.95,69.2375 C112.35,66.5875 110.5,69.2375 110.5,75.7375 L110.5,79.9875 L113.55,79.9875 L116.6,79.9875 L116.4,75.2375 L116.4,75.2375 Z M93.5,68.7375 C94.25,68.0375 94.4,68.0375 95,68.7375 C96.05,70.0375 96.5,69.5875 96.5,67.2375 L96.5,64.9875 L94.4,64.9875 L92.25,64.9875 L92.15,67.2375 C92.05,69.6875 92.25,69.8875 93.5,68.7375 Z M115.9,59.6375 C116.05,56.4375 115.9,55.9375 114.75,54.6875 L113.5,53.2375 L112.25,54.6375 C111.15,55.8375 111,56.5375 111,59.4875 L111,62.9375 L112.9,63.1375 C113.9,63.2375 115,63.2875 115.25,63.2375 C115.55,63.1875 115.8,61.5875 115.9,59.6375 Z M71.1,59.2875 C71.35,55.2375 72.25,53.2875 74.3,52.3875 C75.3,51.8875 75.75,51.9875 76.9,52.8375 C78.6,54.0875 79.45,56.4375 79.45,60.1375 L79.5,62.9875 L81.25,62.9875 L83,62.9875 L83,56.9875 L83,50.9375 L75.4,51.0875 L67.75,51.2375 L67.6,57.1375 L67.45,62.9875 L69.15,62.9875 L70.85,62.9875 L71.1,59.2875 L71.1,59.2875 Z M78,60.2875 C78,57.0875 77.2,54.6375 75.95,53.9875 C74.25,53.0375 72.5,56.0375 72.5,59.9875 C72.5,62.5875 72.9,62.9875 75.55,62.9875 L78,62.9875 L78,60.2875 Z M96,62.1375 C96,61.6375 95.75,60.3375 95.45,59.2875 C95.15,58.1875 94.75,55.8375 94.5,54.0375 L94.15,50.7375 L94.05,53.4875 C94,54.9875 93.65,57.5875 93.25,59.2375 C92.3,63.1875 92.25,62.9875 94.25,62.9875 C95.6,62.9875 96,62.7875 96,62.1375 L96,62.1375 Z M109.5,59.2375 C109.5,55.7875 109.6,55.3875 111.05,53.7375 C111.9,52.7875 112.9,51.9875 113.3,51.9875 C113.65,51.9875 114.7,52.6375 115.6,53.4375 C117.15,54.8375 117.25,55.0875 117.4,58.9375 L117.6,62.9875 L119.3,62.9875 L121,62.9875 L121,56.9875 L121,50.9875 L113.5,50.9875 L106,50.9875 L106,56.9875 L106,62.9875 L107.75,62.9875 L109.5,62.9875 L109.5,59.2375 Z M83,47.9875 L83,46.4875 L75.25,46.4875 L67.5,46.4875 L67.5,47.9875 L67.5,49.4875 L75.25,49.4875 L83,49.4875 L83,47.9875 Z M121,47.9875 L121,46.4875 L113.5,46.4875 L106,46.4875 L106,47.9875 L106,49.4875 L113.5,49.4875 L121,49.4875 L121,47.9875 Z M72,39.3375 C72,35.2375 71.8,33.4375 71.3,32.6875 C70.6,31.7875 70.55,31.7875 70.05,33.1375 C69.75,33.9375 69.5,36.8875 69.5,39.7875 L69.5,44.9875 L70.75,44.9875 L72,44.9875 L72,39.3375 L72,39.3375 Z M77,39.2875 C77,34.5375 76.85,33.4375 76.1,32.4875 L75.15,31.3375 L74.35,32.5375 C73.7,33.4375 73.5,34.8875 73.5,39.3375 L73.5,44.9875 L75.25,44.9875 L77,44.9875 L77,39.2875 Z M81,39.3375 C81,35.2375 80.8,33.4375 80.3,32.6875 C79.6,31.7875 79.55,31.7875 79.05,33.1375 C78.75,33.9375 78.5,36.8875 78.5,39.7875 L78.5,44.9875 L79.75,44.9875 L81,44.9875 L81,39.3375 L81,39.3375 Z M110,39.1375 C110,33.2875 109.6,31.5375 108.55,32.1875 C108.2,32.4375 108,34.7375 108,38.7875 C108,44.6375 108.05,44.9875 109,44.9875 C109.95,44.9875 110,44.6375 110,39.1375 Z M115.05,39.0375 C114.95,33.3375 114.45,31.2375 113.35,31.6375 C112.05,32.0375 111.5,34.3375 111.5,39.6375 L111.5,45.0375 L113.3,44.8875 L115.15,44.7375 L115.05,39.0375 Z M118.9,38.7875 C118.8,35.3375 118.55,32.3875 118.35,32.1875 C117.45,31.2875 117,33.5375 117,39.1375 C117,44.7375 117.05,44.9875 118.05,44.9875 C119.05,44.9875 119.1,44.7875 118.9,38.7875 Z M74.1,30.1875 L75.15,28.9375 L76.5,30.2375 L77.9,31.5875 L78.7,30.0875 C79.15,29.2375 79.5,28.4375 79.5,28.2375 C79.5,28.0875 77.6,27.9875 75.25,27.9875 C72.9,27.9875 71,28.0875 71,28.2375 C71,28.7875 72.55,31.4875 72.8,31.4875 C73,31.4875 73.55,30.8875 74.1,30.1875 L74.1,30.1875 Z M112.4,30.1375 L113.4,28.7375 L114.55,30.1875 L115.7,31.6375 L116.6,30.4875 C118.3,28.3875 117.85,27.9875 113.5,27.9875 C109.2,27.9875 108.75,28.3375 110.1,30.4875 C110.95,31.7875 111.2,31.7375 112.4,30.1375 L112.4,30.1375 Z M79.15,26.1375 C79.6,25.2875 78.45,22.5375 77,20.9875 C75.6,19.4875 75.5,19.4375 74.3,20.2375 C73.1,21.0375 71,24.6375 71,25.8875 C71,26.5375 78.8,26.7875 79.15,26.1375 L79.15,26.1375 Z M117.5,25.7875 C117.5,23.5375 115.05,19.9875 113.5,19.9875 C112.2,19.9875 110,22.6875 109.65,24.6375 L109.35,26.4875 L113.45,26.4875 C116.65,26.4875 117.5,26.3375 117.5,25.7875 Z" id="Shape"></path>
            <path d="M107.7,162.0375 L109.1,160.5375 L108.05,159.0875 C106.8,157.2875 106.75,156.9875 107.75,156.9875 C108.15,156.9875 108.7,157.4375 109,157.9875 C109.6,159.1375 110.5,159.3375 110.5,158.2875 C110.5,157.4875 111.4,156.7375 111.85,157.1875 C112,157.3375 111.75,158.0375 111.3,158.6875 C110.25,160.3375 110.25,160.4875 111.75,162.1375 C113,163.4375 113,163.4875 112,163.4875 C111.4,163.4875 110.5,162.9875 110,162.3875 L109.15,161.2875 L108.8,162.3875 C108.55,163.0875 108.05,163.4875 107.35,163.4875 C106.35,163.4875 106.4,163.3875 107.7,162.0375 L107.7,162.0375 Z" id="Path"></path>
            <path d="M114.7,161.9375 L116,160.3875 L115,158.9875 C113.7,157.1875 114.7,156.2375 116,157.9875 L116.9,159.1375 L117.45,158.0375 C117.8,157.4375 118.25,157.0875 118.55,157.2375 C118.8,157.4375 118.7,157.9875 118.25,158.6375 C117.25,160.0875 117.3,160.6375 118.75,162.1875 C119.9,163.4375 119.9,163.4875 118.95,163.4875 C118.35,163.4875 117.5,162.9875 116.95,162.3875 L116,161.2375 L115.7,162.3875 C115.5,163.0375 115,163.4875 114.4,163.4875 C113.5,163.4875 113.5,163.3875 114.7,161.9375 Z" id="Path"></path>
            <path d="M121.55,161.9875 C122.55,160.6375 122.6,160.3875 122,159.1375 C121.6,158.3375 121.2,157.5875 121.1,157.3875 C120.65,156.4375 122.55,157.0875 123.05,158.0875 L123.6,159.1375 L124.55,157.9375 C125.75,156.2875 126.25,156.9875 125.15,158.8875 C124.3,160.3875 124.3,160.4875 125.4,161.9375 C126.45,163.3875 126.5,163.4875 125.6,163.4875 C125.05,163.4875 124.25,162.9875 123.85,162.3875 L123.05,161.2375 L122.7,162.3875 C122.5,163.0375 122,163.4875 121.45,163.4875 C120.5,163.4875 120.5,163.4375 121.55,161.9875 L121.55,161.9875 Z" id="Path"></path>
            <path d="M128.75,160.3375 C128.75,157.7875 128.9,157.1875 129.55,157.1875 C130.2,157.1875 130.3,157.6375 130.1,159.5875 C129.95,161.0875 130.1,162.2875 130.5,162.7375 C131,163.3875 130.95,163.4875 129.95,163.4875 C128.8,163.4875 128.75,163.3375 128.75,160.3375 L128.75,160.3375 Z" id="Path"></path>
            <path d="M133.5,160.3375 C133.5,157.6375 133.65,157.1875 134.4,157.1875 C135.2,157.1875 135.3,157.5375 135.1,159.5875 C134.95,161.0875 135.1,162.2875 135.5,162.7375 C136.05,163.3875 135.9,163.4875 134.8,163.4875 C133.55,163.4875 133.5,163.3875 133.5,160.3375 Z" id="Path"></path>
            <path d="M138.65,160.3375 C138.65,157.8375 138.85,157.1875 139.45,157.1875 C140.1,157.1875 140.25,157.8375 140.25,160.3375 C140.25,162.9375 140.1,163.4875 139.4,163.4875 C138.75,163.4875 138.6,162.9375 138.65,160.3375 L138.65,160.3375 Z" id="Path"></path>
            <path d="M76.6,170.3875 C75.7,169.4875 75.85,168.5875 77.05,167.9875 C78.35,167.2875 79.6,168.1875 79.4,169.6875 C79.25,170.8875 77.55,171.3375 76.6,170.3875 L76.6,170.3875 Z" id="Path"></path>
            <path d="M46.7,160.5375 C47,158.8875 47.4,157.4375 47.55,157.2875 C47.7,157.0875 48.25,157.8875 48.75,158.9875 C49.25,160.0875 49.8,160.9875 50,160.9875 C50.15,160.9875 50.7,160.1875 51.15,159.2375 C52.1,157.2375 53,156.9375 53,158.6875 C53,161.3375 53.6,162.9875 54.6,162.9875 C55.5,162.9875 55.55,162.6875 55.4,160.2375 L55.25,157.4875 L57.75,157.4875 C60.7,157.4875 61.5,158.0875 61.5,160.2375 C61.5,162.8375 60.2,163.5375 55.95,163.3875 C52.3,163.2375 52.25,163.2375 52,161.7375 L51.7,160.2375 L50.8,161.9375 C49.8,163.7875 49.85,163.7875 48.15,161.1375 C47.65,160.3375 47.55,160.4375 47.55,161.8875 C47.5,162.8875 47.25,163.4875 46.85,163.4875 C46.3,163.4875 46.25,162.9375 46.7,160.5375 L46.7,160.5375 Z M59.95,162.1875 C60.5,161.6875 60,159.2375 59.2,158.6375 C57.55,157.4375 57,157.8375 57,160.1375 C57,161.3375 57.15,162.4875 57.35,162.6375 C57.65,162.9375 59.45,162.6375 59.95,162.1875 Z" id="Shape"></path>
            <path d="M63.6,162.6875 C62.35,161.8375 62.15,159.6875 63.15,158.3375 C63.85,157.2875 66.95,156.7375 68,157.4375 C68.6,157.8375 68.6,158.0875 68.1,158.5875 C67.65,159.0375 67.5,159.0375 67.5,158.5375 C67.5,158.1375 66.95,157.9875 65.9,158.0875 C64.45,158.2375 64.25,158.4375 64.1,159.7375 C63.95,161.8875 64.65,162.6875 66.7,162.6375 C67.7,162.5875 68.35,162.7875 68.2,163.0375 C67.75,163.7875 64.8,163.5375 63.6,162.6875 L63.6,162.6875 Z" id="Path"></path>
            <path d="M69.85,162.5875 C68.2,160.7375 69.05,157.9875 71.55,157.2375 C73.05,156.7375 75,157.3875 75,158.3375 C75,158.9875 74.85,159.0375 74.4,158.5875 C74.05,158.2375 73.15,157.9875 72.4,157.9875 C71.35,157.9875 70.95,158.2875 70.7,159.1875 C70.55,159.8875 70.55,160.8375 70.7,161.3875 C71.1,162.5375 72.95,163.1875 73.8,162.4375 C74.15,162.1375 74.55,162.1375 74.7,162.3875 C75.55,163.7875 71.05,163.9375 69.85,162.5875 L69.85,162.5875 Z" id="Path"></path>
            <path d="M76.65,162.7375 C73.7,160.6375 76.6,156.2875 80.3,157.1875 C81.45,157.4875 82.05,158.9875 81,158.9875 C80.75,158.9875 80.5,158.7875 80.5,158.4875 C80.5,157.7875 78.35,157.8375 77.6,158.5875 C75.8,160.3875 78.3,163.6875 80.5,162.4875 C81.4,161.9875 81.55,162.0375 81.4,162.5875 C81.05,163.5375 77.95,163.6375 76.65,162.7375 L76.65,162.7375 Z" id="Path"></path>
            <path d="M94.7,154.3375 C94.25,153.1875 94.8,151.9875 95.75,151.9875 C96.35,151.9875 96.5,152.2875 96.25,153.1375 C95.75,154.7875 95.1,155.2875 94.7,154.3375 Z" id="Path"></path>
            <path d="M23.05,129.2875 C22.75,128.4875 22.35,127.6375 22.15,127.3375 C21.95,127.0375 22.15,126.9375 22.6,127.0875 C23,127.2875 25,126.5875 27.05,125.5875 C30.1,124.0375 30.8,123.4875 30.9,122.4375 C31.1,120.8875 29.85,119.4875 28.35,119.4875 C26.5,119.4875 21,122.0375 21,122.9375 C21,123.8875 20.2,123.0875 19.8,121.6875 C19.6,121.0375 19.7,120.6375 20.1,120.6375 C20.45,120.6375 22.3,120.0375 24.25,119.2375 C28.15,117.6875 29.5,117.8375 31.15,120.0875 C32.4,121.7875 32.45,124.1375 31.3,125.4375 C30.8,125.9875 28.95,127.0375 27.2,127.7875 C25.45,128.5875 23.95,129.5375 23.85,129.9875 C23.7,130.4875 23.45,130.2375 23.05,129.2875 L23.05,129.2875 Z" id="Path"></path>
            <path d="M164.75,127.8375 C163.8,127.2875 163.8,127.2875 165,126.9875 C165.8,126.7875 166.3,126.2875 166.4,125.5375 C166.65,123.7875 165.6,123.4375 163.45,124.5375 C160.7,125.9375 158.25,125.7875 157.2,124.2375 C156.3,122.8375 156.5,121.1875 157.85,119.5375 C158.65,118.5375 158.85,118.4875 159.75,119.1875 C160.75,119.9375 160.75,119.9375 159.6,119.9875 C158.9,119.9875 158.25,120.4375 157.9,121.2875 C157.4,122.3875 157.4,122.6875 158.2,123.2875 C159,123.8375 159.4,123.8375 160.95,123.1375 C165.35,121.1875 167.85,122.0875 167.3,125.4375 C166.95,127.7875 166.05,128.5875 164.75,127.8375 L164.75,127.8375 Z" id="Path"></path>
            <path d="M169.7,116.9875 C169.35,116.6375 167.25,115.8875 165,115.1875 C161.9,114.2875 160.65,114.1375 160.15,114.5375 C159.65,114.9875 159.5,114.9375 159.5,114.4375 C159.55,113.4875 160.9,110.5875 160.95,111.3375 C161,111.6375 162.95,112.5375 165.35,113.2375 C168.75,114.2875 169.9,114.4875 170.6,114.0375 C171.65,113.3875 171.65,113.5875 170.85,115.8875 C170.4,117.0875 170.1,117.3875 169.7,116.9875 Z" id="Path"></path>
            <path d="M17.6,115.6375 C17.7,115.3875 19.05,113.2375 20.7,110.8375 C22.3,108.4375 23.55,106.3375 23.4,106.2375 C23.1,105.9375 17.35,107.4875 16.65,108.0875 C16.15,108.4875 16,108.3875 16,107.8375 C16,107.4375 15.85,106.7375 15.7,106.3375 C15.5,105.7875 15.75,105.6875 16.65,105.8375 C17.35,105.9875 19.6,105.6875 21.65,105.2375 C27.4,103.9875 27.45,104.0375 24,109.3875 C22.35,111.8875 21.25,113.9875 21.55,113.9875 C22.9,113.9875 26.85,112.7375 27.65,112.0875 C28.35,111.4375 28.5,111.4375 28.5,112.0375 C28.5,112.4375 28.65,113.2875 28.8,113.9875 C29,114.8375 28.95,115.0375 28.6,114.5875 C28.2,113.9875 27.25,114.0875 23,114.9375 C17.15,116.1375 17.35,116.0875 17.6,115.6375 L17.6,115.6375 Z" id="Path"></path>
            <path d="M170.5,108.2375 C170.5,108.0375 171,107.4875 171.55,107.0375 C172.45,106.2875 172.55,105.9875 172.05,105.0875 C171.25,103.6375 170.95,103.6875 168.5,105.7375 C165,108.6875 161.7,107.8375 161.8,103.9875 C161.9,101.5375 162.5,100.7375 164,101.2375 L165.1,101.5875 L163.95,102.1875 C162.55,102.8375 162.15,104.2375 163,105.2375 C163.95,106.3375 164.7,106.1375 167,104.2375 C168.15,103.2875 169.6,102.4875 170.2,102.4875 C171.95,102.4875 173.1,104.0875 172.9,106.3375 C172.8,107.8875 172.55,108.2875 171.65,108.3875 C171,108.4875 170.5,108.3875 170.5,108.2375 L170.5,108.2375 Z" id="Path"></path>
            <path d="M15,99.3875 L15,97.7375 L20,97.7375 C23.95,97.7375 25.15,97.5875 25.5,96.9875 C25.9,96.3875 26,96.5375 26,97.5875 C26,98.2875 26.15,99.2875 26.35,99.7375 C26.6,100.4375 26.5,100.5375 25.7,100.1375 C24.55,99.5375 16,99.9375 16,100.5375 C16,100.7875 15.8,100.9875 15.5,100.9875 C15.25,100.9875 15,100.2375 15,99.3875 L15,99.3875 Z" id="Path"></path>
            <path d="M168.15,96.6375 C165.05,96.5375 162.5,96.2875 162.5,96.0875 C162.5,95.8875 164.2,94.0375 166.25,91.9875 C168.3,89.9375 170,88.1375 170,87.9875 C170,87.7875 168.6,87.7875 166.9,87.8875 C164.8,88.0375 163.55,88.3375 163.15,88.8875 C162.6,89.5375 162.5,89.4375 162.5,87.9375 L162.5,86.2375 L168,86.3875 C171,86.4875 173.5,86.6875 173.5,86.8875 C173.5,87.0875 171.8,88.9375 169.75,90.9875 C167.7,93.0375 166,94.8375 166,94.9875 C166,95.1375 167.5,95.1875 169.4,95.0875 C171.7,94.9375 172.95,94.6375 173.4,94.0875 C173.9,93.4375 174,93.5875 174,95.1375 C174,96.1375 173.95,96.9375 173.9,96.8875 C173.8,96.8375 171.2,96.6875 168.15,96.6375 Z" id="Path"></path>
            <path d="M14.9,92.7375 C15,91.7875 15.25,91.0875 15.45,91.1875 C15.65,91.3375 17.5,90.9375 19.55,90.2875 L23.25,89.1375 L19.7,87.3375 C17.7,86.3375 16,85.6875 15.8,85.8375 C15.65,86.0375 15.5,85.4375 15.5,84.5875 C15.5,83.0375 15.55,83.0375 16.4,83.8875 C16.9,84.3875 19.4,85.8875 21.95,87.1875 C25.3,88.9375 26.45,89.7375 25.95,90.0375 C25.55,90.2875 23.15,91.1875 20.65,92.0375 C18.1,92.8875 15.9,93.7875 15.75,94.0375 C15.1,95.0375 14.7,94.3875 14.9,92.7375 L14.9,92.7375 Z" id="Path"></path>
            <path d="M26.4,82.4375 C26.05,81.4875 17.45,79.6375 16.45,80.2875 C16,80.5375 15.9,80.3875 16.15,79.8375 C16.3,79.4375 16.6,78.1875 16.75,77.1375 C17.25,74.2875 17.4,73.9875 18.2,74.2875 C18.8,74.5375 18.8,74.7375 18.15,76.0375 C17.75,76.8875 17.5,77.6375 17.55,77.7375 C17.65,77.8375 18.6,78.0375 19.65,78.2375 C21.55,78.5875 21.7,78.4375 21.65,76.1375 C21.6,75.7875 22.05,75.4875 22.55,75.4875 C23.7,75.4875 23.7,75.6875 22.7,77.2375 C21.9,78.4375 21.95,78.4875 23.3,78.9875 C24.05,79.2875 25.15,79.4875 25.7,79.3875 C26.55,79.2875 26.75,78.8875 26.7,77.3875 C26.65,75.7375 26.75,75.5875 27.5,75.9875 C28.25,76.3875 28.3,76.7875 27.95,78.3375 C27,82.4375 26.7,83.2375 26.4,82.4375 L26.4,82.4375 Z" id="Path"></path>
            <path d="M161.3,81.1375 C160.45,76.7875 160.4,75.8375 160.95,76.1875 C161.6,76.5875 169.5,75.0875 170.25,74.4375 C171.05,73.6375 171.35,73.9375 171.7,75.8875 C171.85,76.8875 172.15,78.2375 172.3,78.7875 C172.5,79.5875 172.3,79.9375 171.6,80.0875 C170.7,80.3375 170.6,80.1875 170.85,78.7375 C171.15,76.7875 170.75,76.4875 168.65,77.0875 C167.15,77.4875 167.05,77.6375 167.5,78.7875 C168.2,80.5875 168.1,80.9875 167.05,80.9875 C166.35,80.9875 166.15,80.7375 166.35,79.9875 C166.85,78.0375 166.25,77.5375 164.05,78.1375 C161.8,78.7375 161.35,79.9375 162.85,81.5875 C163.6,82.4375 163.6,82.4875 162.6,82.4875 C161.9,82.4875 161.5,82.0875 161.3,81.1375 L161.3,81.1375 Z" id="Path"></path>
            <path d="M28.8,72.5875 C28.3,71.7375 20.45,68.9375 19.45,69.2375 C18.6,69.5375 18.6,69.3875 19.6,67.1375 C21.55,62.6375 23.1,61.9375 25.5,64.4875 L26.9,65.9875 L29.15,65.1875 C32.15,64.1875 33.05,63.1375 31.75,62.1875 C30.85,61.5375 30.85,61.4875 32.05,61.4875 C33.55,61.4875 34.5,60.6375 34.5,59.3875 C34.5,58.0375 33.25,57.7875 30.2,58.4875 C26.55,59.3875 25,58.7375 25,56.2875 C25,55.3875 25.4,54.0875 25.95,53.4375 C26.8,52.3875 27,52.3375 27.75,52.9875 C28.6,53.6875 28.55,53.7375 27.45,53.9875 C26.05,54.3375 25.5,56.3375 26.7,56.7875 C27.15,56.9375 28.5,56.7375 29.75,56.2875 C31,55.8875 32.45,55.6875 32.9,55.8375 C35.65,56.8375 36.3,59.4375 34.35,61.8375 C33.7,62.5875 32.85,63.8875 32.45,64.6875 C31.9,65.8375 31.1,66.3875 28.9,67.1375 C27.3,67.6375 26,68.2875 26,68.5375 C26,68.8375 26.75,69.3375 27.65,69.7375 C28.85,70.2375 29.4,70.2875 29.95,69.8375 C30.5,69.3375 30.6,69.4375 30.25,70.4875 C29.65,72.4875 29.2,73.1875 28.8,72.5875 L28.8,72.5875 Z M25.55,67.6875 C26.1,66.9875 26.05,66.7375 25,65.8875 C23.5,64.6875 21.3,64.8375 21.1,66.2375 C21,66.9875 21.35,67.4375 22.35,67.8375 C24.35,68.6375 24.8,68.5875 25.55,67.6875 L25.55,67.6875 Z" id="Shape"></path>
            <path d="M158.55,70.9375 C157.15,68.6375 156.85,66.3375 157.7,64.2875 C158.65,62.0375 160.5,60.8375 163.1,60.8375 C164.85,60.8375 165.45,61.1375 166.8,62.6375 C168.95,64.9375 169.85,67.9875 168.65,68.8875 C168.2,69.1875 167.45,69.4875 167.05,69.4875 C166.4,69.4375 166.4,69.3875 167.15,68.9375 C168.55,68.1375 168.25,65.6375 166.55,63.9375 C164.85,62.2875 164.1,62.1875 161.7,63.2875 C160,64.0875 158.5,66.1875 158.5,67.6875 C158.5,69.0375 159.65,70.9875 160.65,71.2875 C161.45,71.5375 161.5,71.6875 160.95,72.0375 C159.85,72.7375 159.55,72.5875 158.55,70.9375 L158.55,70.9375 Z" id="Path"></path>
            <path d="M153.35,59.8875 C152.85,59.0375 152.55,58.3375 152.6,58.2875 C154.55,57.4875 159.9,54.4375 160.8,53.6375 L162,52.5375 L163,54.0375 L164.05,55.4875 L163,55.4875 C161.55,55.4875 155,59.4375 154.55,60.5375 C154.3,61.3375 154.1,61.2375 153.35,59.8875 Z" id="Path"></path>
            <path d="M150.7,55.2375 C149.95,54.0875 149.95,53.6375 150.5,51.2875 C150.85,49.7875 151,48.3375 150.8,48.0375 C150.35,47.3375 148.05,48.7875 147.55,50.1375 C147.2,51.0375 147.1,50.9875 146.05,49.5375 C145.1,48.1875 145.05,47.9875 145.75,47.9875 C146.85,47.9875 153,43.1375 153.4,41.9375 C153.7,41.1875 154.1,41.4875 155.65,43.5875 C156.65,44.9875 157.5,46.4375 157.5,46.7875 C157.5,47.9875 155.55,49.4875 154.05,49.4875 C152.65,49.4875 152.55,49.6875 152,52.1375 C151.7,53.6375 151.6,55.1875 151.8,55.6375 C152.25,56.8875 151.65,56.6375 150.7,55.2375 L150.7,55.2375 Z M154.4,47.6875 C155.5,46.9375 155.9,44.7875 155.05,44.2875 C154.65,43.9875 152.1,45.6875 151.4,46.6875 C151,47.2875 151.85,48.4875 152.7,48.4875 C153,48.4875 153.8,48.1375 154.4,47.6875 Z" id="Shape"></path>
            <path d="M37.65,54.8875 C37.8,54.1375 31.05,48.9875 29.85,48.9875 C29.05,48.9875 29.1,48.8375 30.1,47.4375 C30.8,46.4875 31.3,46.1375 31.4,46.5875 C31.6,47.5875 38.95,52.6375 39.75,52.3375 C40.15,52.1375 40,52.6875 39.35,53.7375 C38.25,55.4375 37.4,56.0375 37.65,54.8875 Z" id="Path"></path>
            <path d="M43.25,47.8875 C43.4,47.5375 41.95,45.8375 40.05,44.0875 L36.55,40.9875 L35.55,42.2875 C35,43.0375 34.65,43.7875 34.8,44.0375 C34.95,44.2875 34.85,44.4875 34.6,44.4875 C34.3,44.4875 33.95,44.1375 33.8,43.6875 C33.55,43.0875 34.4,41.8875 36.35,39.7375 C39.15,36.7375 40.6,35.9375 41.25,36.9875 C41.4,37.2875 41.25,37.4875 40.85,37.4875 C40.45,37.4875 39.75,37.9375 39.25,38.4875 C38.35,39.4875 38.35,39.5875 41.25,42.4875 C42.9,44.1375 44.6,45.4875 45.1,45.4875 C46.3,45.4875 46.25,46.0875 44.85,47.3875 C43.55,48.6375 42.9,48.7875 43.25,47.8875 L43.25,47.8875 Z" id="Path"></path>
            <path d="M47.5,43.1375 C47.5,42.6375 46.8,39.9875 46,37.2375 C45.2,34.4875 44.5,32.1875 44.5,32.1375 C44.5,31.6375 45.9,32.2875 49.8,34.4875 C52.25,35.8375 54.7,36.9875 55.25,36.9875 C56.2,36.9875 56.2,37.0375 55.1,38.0875 L54,39.1875 L52.15,38.1375 C50.3,37.0875 50.25,37.0875 49.1,38.0375 C48.15,38.7875 48,39.2875 48.25,40.4375 C48.4,41.2375 48.85,41.9875 49.25,42.0875 C49.7,42.1875 49.5,42.5375 48.7,43.1375 C47.55,43.9875 47.5,43.9875 47.5,43.1375 Z M49,36.5375 C49,36.1375 46.95,34.8875 46.7,35.1375 C46.55,35.2375 46.7,35.9875 47,36.7375 C47.45,37.8875 47.65,37.9875 48.25,37.4875 C48.65,37.1375 49,36.7375 49,36.5375 Z" id="Shape"></path>
            <path d="M140.65,43.5875 C139.1,43.3375 137,40.6875 137,38.9875 C137,37.9875 137.8,36.5875 139.5,34.5375 C141.25,32.4375 141.9,31.2875 141.65,30.6375 C141.45,29.9875 141.75,30.0875 142.8,31.0875 L144.3,32.4875 L141.65,35.2875 C140.2,36.8375 138.85,38.6375 138.7,39.2875 C138.15,41.4875 140.9,43.3375 142.8,42.0875 C144.1,41.2375 147.95,36.2875 147.65,35.8375 C147.35,35.3375 148.15,35.6875 149.3,36.5375 C149.95,37.0875 144.65,42.7875 142.95,43.3375 C142.3,43.5875 141.25,43.6875 140.65,43.5875 L140.65,43.5875 Z" id="Path"></path>
            <path d="M56.3,35.6875 C55.85,34.4875 55.9,34.3875 56.95,34.9875 C58.2,35.6375 59.35,35.1875 59.8,33.8375 C60.15,32.6875 58.95,31.4875 57.4,31.4875 C55.7,31.4875 53.1,30.0875 52.75,28.9875 C52.05,26.7375 55.2,23.6875 56.8,25.0375 C57.85,25.9375 57.65,26.5875 56.45,25.9875 C55.25,25.3375 54,26.0875 54,27.5375 C54,28.4375 54.5,28.6875 57.6,29.1875 C59.5,29.5375 61.5,31.3875 61.5,32.8375 C61.5,33.8875 58.75,36.4875 57.6,36.4875 C57.05,36.4875 56.45,36.1375 56.3,35.6875 Z" id="Path"></path>
            <path d="M128.75,35.2375 C127.65,34.5375 127.1,33.9875 127.6,33.9875 C128.3,33.9875 133,27.0875 133,25.9875 C133,25.4875 130.5,24.4375 129.95,24.7375 C129.2,25.2375 129.45,24.1875 130.2,23.5375 C130.65,23.1375 131,23.0875 131.25,23.4375 C131.4,23.7375 133.05,24.7875 134.9,25.7875 C136.75,26.8375 138.35,27.7375 138.45,27.7875 C138.55,27.8875 138.5,28.3375 138.3,28.7875 C138.05,29.4875 137.8,29.4375 136.65,28.2875 C135.1,26.7375 135.05,26.7375 132.2,31.5375 C130.6,34.2875 130.2,35.3375 130.6,35.8375 C131.35,36.7375 131.05,36.6375 128.75,35.2375 L128.75,35.2375 Z" id="Path"></path>
            <path d="M93.05,34.3375 C91.85,32.8875 93.9,30.8375 95.35,32.0375 C95.75,32.3875 96,33.1375 95.9,33.6875 C95.7,34.9375 93.9,35.3375 93.05,34.3375 Z" id="Path"></path>
            <path d="M74,16.2875 C72.65,14.6375 74.9,12.6875 76.4,14.1875 C77.05,14.8375 77.1,15.1875 76.7,15.8875 C75.95,17.0375 74.8,17.1875 74,16.2875 Z" id="Path"></path>
            <path d="M112.25,16.1875 C111.8,15.7375 111.55,15.1375 111.65,14.8375 C111.95,13.9375 113.3,13.2875 114.2,13.6375 C115.25,14.0375 115.25,16.2875 114.2,16.6875 C113.15,17.0875 113.2,17.0875 112.25,16.1875 Z" id="Path"></path>
            <path d="M74,121.5375 C74,119.9875 74.25,118.9875 74.65,118.8375 C76,118.3875 76.5,119.1375 76.5,121.5375 C76.5,123.8375 76.4,123.9875 75.25,123.9875 C74.1,123.9875 74,123.8375 74,121.5375 Z" id="Path"></path>
            <path d="M88.5,122.3375 C88.5,119.4375 89.25,118.2375 90.7,118.7875 C91.7,119.1375 92.15,120.7375 91.9,123.0375 C91.75,124.5375 91.55,124.7375 90.15,124.8875 L88.5,125.0375 L88.5,122.3375 Z" id="Path"></path>
            <path d="M97,122.2875 C97,119.4375 97.75,118.2375 99.2,118.7875 C99.8,119.0375 100,119.7875 100,122.0375 C100,124.9875 100,124.9875 98.5,124.9875 C97,124.9875 97,124.9375 97,122.2875 Z" id="Path"></path>
            <path d="M112,121.7875 C112,119.0875 113.2,117.7375 114.3,119.2375 C114.7,119.7375 115,121.0375 115,122.0875 C115,123.8875 114.9,123.9875 113.5,123.9875 C112.05,123.9875 112,123.8875 112,121.7875 Z" id="Path"></path>
            <path d="M74.85,109.1375 C74.65,108.9875 74.5,107.7375 74.5,106.3875 C74.5,104.5875 74.7,103.9875 75.25,103.9875 C75.85,103.9875 76,104.6375 76,106.7375 C76,109.2875 75.65,109.9875 74.85,109.1375 Z" id="Path"></path>
            <path d="M112.85,109.1875 C112.65,108.9875 112.5,107.7375 112.5,106.3875 C112.5,104.2875 112.65,103.9375 113.4,104.0875 C114.05,104.2375 114.25,104.7875 114.25,106.6875 C114.25,108.9875 113.65,109.9875 112.85,109.1875 Z" id="Path"></path>
            <path d="M74.6,93.3875 C74.8,90.0375 75.7,90.1375 75.9,93.4875 C76,95.4875 75.9,95.9875 75.25,95.9875 C74.6,95.9875 74.5,95.4875 74.6,93.3875 L74.6,93.3875 Z" id="Path"></path>
            <path d="M112.6,93.3875 C112.7,91.4375 112.95,90.7375 113.5,90.7375 C114.05,90.7375 114.3,91.4375 114.4,93.3875 C114.55,95.7375 114.45,95.9875 113.5,95.9875 C112.55,95.9875 112.45,95.7375 112.6,93.3875 Z" id="Path"></path>
            <path d="M73.85,77.6875 C73.35,77.1375 73.4,72.7375 74,71.2875 C75.2,68.1375 77.15,70.8375 76.9,75.1875 C76.75,77.4875 76.65,77.7375 75.5,77.8875 C74.8,77.9875 74.05,77.8875 73.85,77.6875 Z" id="Path"></path>
            <path d="M93.5,75.6875 C93.5,74.2875 93.65,73.9375 94.4,74.0875 C94.95,74.1875 95.3,74.7875 95.4,75.8875 C95.55,77.2375 95.4,77.4875 94.55,77.4875 C93.7,77.4875 93.5,77.1875 93.5,75.6875 L93.5,75.6875 Z" id="Path"></path>
            <path d="M112,74.5375 C112,71.9875 112.2,70.9375 112.8,70.4375 C114.1,69.3375 115,71.1375 115,74.8375 L115,77.9875 L113.5,77.9875 L112,77.9875 L112,74.5375 L112,74.5375 Z" id="Path"></path>
            <path d="M112,58.5375 C112,55.5875 113.15,54.1375 114.3,55.7375 C114.7,56.2375 115,57.6375 115,58.8375 C115,60.8875 114.95,60.9875 113.5,60.9875 C112.05,60.9875 112,60.9375 112,58.5375 Z" id="Path"></path>
            <path d="M73.85,60.6875 C73.35,60.1875 73.4,57.7875 74,56.2875 C75,53.5375 77.25,55.7875 76.9,59.1875 C76.8,60.4375 76.5,60.7875 75.5,60.8875 C74.8,60.9875 74.05,60.8875 73.85,60.6875 Z" id="Path"></path>
            <path d="M260,157.4375 C257.3,156.5875 255.45,155.0375 254.3,152.5375 C253.3,150.3875 253.25,149.2875 253.1,136.1375 L252.95,121.9875 L257.45,121.9875 C261.8,121.9875 262,122.0375 262.05,123.1375 C262.1,123.7375 262.2,129.0875 262.25,134.9875 C262.3,140.8875 262.4,146.2375 262.45,146.8875 C262.6,149.8875 266.85,150.9875 270,148.8875 C270.95,148.2375 272.25,146.6375 272.95,145.2375 C274.2,142.8375 274.25,142.3875 274.4,132.3875 L274.55,121.9875 L279.05,121.9875 L283.5,121.9875 L283.5,139.4875 L283.5,156.9875 L279.2,156.9875 L274.9,156.9875 L275.1,154.4875 C275.15,153.0875 275.2,151.9875 275.1,151.9875 C275.05,151.9875 274.3,152.7375 273.45,153.6875 C272.65,154.6375 271,155.8875 269.85,156.4375 C267.3,157.6875 262.45,158.1875 260,157.4375 L260,157.4375 Z" id="Path"></path>
            <path d="M346.55,157.3875 C343.05,156.8375 339.2,154.7375 337.45,152.3875 C334.15,147.7875 333.45,137.1875 336.1,131.3875 C337.85,127.6375 340.5,124.7875 343.9,123.1375 C346.5,121.8375 347.2,121.7375 352.6,121.7375 C356.45,121.7375 358.65,121.9375 359.05,122.3375 C359.95,123.2375 359,130.2875 358,130.0375 C357.6,129.9375 355.95,129.5875 354.4,129.2875 C351.9,128.8875 351.15,128.9375 349.15,129.7875 C347.1,130.5875 346.55,131.1375 345.4,133.4375 C344.25,135.6875 344,136.8375 344,139.6875 C344.05,147.1875 347.55,150.4375 354.55,149.4375 C356.05,149.2375 357.6,148.9375 358.1,148.7375 C358.95,148.3875 359.3,149.6875 359.6,154.1875 C359.75,156.1375 359.75,156.1875 357.4,156.7875 C354.2,157.5875 349.75,157.8375 346.55,157.3875 L346.55,157.3875 Z" id="Path"></path>
            <path d="M214.5,153.4875 L214.5,150.0375 L223.3,135.6375 C228.15,127.6875 232.65,120.4875 233.3,119.6375 L234.55,117.9875 L224.9,117.8875 L215.25,117.7375 L215.1,113.6375 L214.95,109.4875 L230.5,109.4875 L246,109.4875 L246,113.1375 L246,116.7875 L239.2,127.4875 C235.45,133.3875 230.95,140.4875 229.2,143.2375 L226.05,148.2375 L236,148.3875 L246,148.4875 L246,152.7375 L246,156.9875 L230.25,156.9875 L214.5,156.9875 L214.5,153.4875 L214.5,153.4875 Z" id="Path"></path>
            <path d="M293.15,139.6375 L293.25,122.2375 L297.55,122.0875 L301.9,121.9375 L301.65,125.0875 L301.4,128.2375 L302.95,125.8875 C304.55,123.3875 306.95,121.8375 310.1,121.2875 C311.15,121.0875 312.05,121.1875 312.2,121.4375 C312.4,121.7375 312.4,123.7375 312.2,125.8875 L311.85,129.8875 L309.4,130.0875 C307.6,130.2875 306.55,130.7375 305.45,131.7875 C303.05,134.0875 302.5,136.9375 302.5,147.5875 L302.5,156.9875 L297.75,156.9875 L293,156.9875 L293.15,139.6375 L293.15,139.6375 Z" id="Path"></path>
            <polygon id="Path" points="319 139.4875 319 121.9875 323.5 121.9875 328 121.9875 328 139.4875 328 156.9875 323.5 156.9875 319 156.9875"></polygon>
            <path d="M366.6,131.3875 L366.75,105.7375 L371.25,105.7375 L375.75,105.7375 L375.7,116.2875 L375.65,126.8375 L377.1,125.2375 C379.25,122.7375 382.55,121.3875 386.45,121.3875 C391.65,121.3875 394.25,122.8375 396.05,126.7375 C396.9,128.5375 397,130.1875 397,142.8875 L397,156.9875 L392.5,156.9875 L388.05,156.9875 L387.9,143.9375 C387.75,130.9375 387.75,130.8875 386.55,129.9375 C383.45,127.3875 378.3,130.1875 376.55,135.4375 C376.2,136.4875 376,140.9875 376,147.0375 L376,156.9875 L371.25,156.9875 L366.5,156.9875 L366.6,131.3875 L366.6,131.3875 Z" id="Path"></path>
            <path d="M407.2,123.2875 C404.3,121.9875 404,121.0875 404,112.8875 L404,105.4875 L406,105.4875 L408,105.4875 L408,111.9875 C408,117.8375 408.1,118.5875 409,119.4875 C409.55,120.0375 410.55,120.4875 411.25,120.4875 C411.95,120.4875 412.95,120.0375 413.5,119.4875 C414.4,118.5875 414.5,117.8375 414.5,111.9875 L414.5,105.4875 L416.5,105.4875 L418.5,105.4875 L418.5,112.3875 C418.5,118.3875 418.35,119.4375 417.5,120.8875 C415.75,123.7375 410.85,124.8375 407.2,123.2875 Z" id="Path"></path>
            <path d="M422,121.7875 C422,120.5875 422.95,118.5375 425.2,114.7875 L428.4,109.4875 L425.2,109.4875 L422,109.4875 L422,107.4875 L422,105.4375 L427.9,105.5875 L433.75,105.7375 L433.9,107.2375 C434,108.3375 433.2,110.0875 430.8,113.9875 L427.55,119.2375 L430.65,119.4875 L433.75,119.7375 L433.9,121.6375 L434.05,123.4875 L428.05,123.4875 L422,123.4875 L422,121.7875 L422,121.7875 Z" id="Path"></path>
            <path d="M437.6,114.6375 L437.75,105.7375 L439.75,105.7375 L441.75,105.7375 L441.9,109.1375 L442.05,112.4875 L445,112.4875 C447.75,112.4875 448,112.3875 448.05,111.3875 C448.05,110.7375 448.1,109.2375 448.15,107.9875 L448.25,105.7375 L450.4,105.5875 L452.5,105.4375 L452.5,114.4375 L452.5,123.4875 L450.3,123.4875 L448.05,123.4875 L448.15,119.8875 L448.25,116.2375 L445.15,116.0875 L442,115.9375 L442,119.7375 L442,123.4875 L439.75,123.4875 L437.5,123.4875 L437.6,114.6375 L437.6,114.6375 Z" id="Path"></path>
            <path d="M319.45,116.0375 C317.5,114.0375 317.4,110.7875 319.3,108.5375 C322.85,104.2875 329.85,107.6875 328.8,113.1375 C328,117.3375 322.45,119.0375 319.45,116.0375 Z" id="Path"></path>
            <path d="M491.75,100.0375 C489.55,99.6875 489.7,100.1375 489.9,94.5375 L490,92.0375 L493.5,92.3375 L497,92.6375 L498.9,90.6875 C500.7,88.7375 502.55,84.7375 502.5,82.7375 C502.45,82.1875 499.7,74.1875 496.3,64.9875 C492.9,55.7875 490.25,48.0375 490.45,47.8375 C490.65,47.6375 492.95,47.5375 495.5,47.5875 L500.15,47.7375 L503.55,57.7375 C505.45,63.2375 507,68.1375 507,68.6375 C507,70.9375 508,68.6375 511.2,58.9875 C513.1,53.2875 514.85,48.3375 515.15,48.0375 C515.85,47.3375 524.5,47.2875 524.5,47.9875 C524.5,48.9375 509.4,88.6875 507.95,91.5875 C506.05,95.3375 503.95,97.6375 501.35,98.8875 C498.95,99.9875 494.7,100.5375 491.75,100.0375 L491.75,100.0375 Z" id="Path"></path>
            <path d="M227.4,82.7875 C221.7,81.1375 218.15,77.4875 216.9,72.0875 C216.45,70.0875 216.3,64.1875 216.3,52.2875 L216.35,35.2875 L220.9,35.1375 L225.45,34.9375 L225.6,52.3375 C225.75,68.1875 225.85,69.8875 226.7,71.6375 C228.8,75.8875 237.05,77.3375 241.6,74.3375 C244.8,72.1875 244.9,71.6375 245.1,52.4875 L245.25,35.2375 L248.75,35.1375 C250.7,35.0375 252.75,35.0875 253.4,35.2375 L254.6,35.5375 L254.4,52.8875 C254.2,69.7375 254.2,70.3375 253.05,73.1875 C251.45,77.1375 248.15,80.4875 244.2,81.9875 C240.55,83.4375 231.2,83.8875 227.4,82.7875 L227.4,82.7875 Z" id="Path"></path>
            <path d="M365.65,82.7375 C359,80.8875 355.75,76.5375 354.8,68.2375 C354.4,64.7375 355.15,59.1375 356.45,56.1875 C358.8,50.9875 363.75,47.5875 369.7,47.1375 C379.35,46.3875 385.6,52.1875 385.7,61.9875 C385.8,67.3375 386.6,66.9875 374.5,66.9875 L364,66.9875 L364,68.3875 C364.05,70.5875 365.8,73.8875 367.55,74.9375 C370.65,76.8375 374.95,76.7875 382.8,74.6875 C383.75,74.4375 383.85,74.6375 384.15,77.7875 C384.35,79.6375 384.4,81.2375 384.3,81.3875 C384.2,81.4875 382.9,81.8875 381.45,82.2875 C377.45,83.3875 368.85,83.6375 365.65,82.7375 L365.65,82.7375 Z M376.75,59.1375 C376.1,56.3875 374.75,54.7375 372.65,54.0875 C370.8,53.4875 370.35,53.5375 368.3,54.3875 C366.15,55.3375 365.1,56.6375 364.3,59.3875 L363.95,60.4875 L370.5,60.4875 L377.1,60.4875 L376.75,59.1375 L376.75,59.1375 Z" id="Shape"></path>
            <path d="M418.4,83.1375 C417,82.9375 417,82.8875 417,79.1375 L417,75.3875 L418.65,75.6875 C423.95,76.8375 428.05,76.4375 429.5,74.6875 C430.4,73.6875 430.25,71.5875 429.3,70.5375 C428.85,70.0375 426.75,68.9875 424.65,68.2375 C420.05,66.5375 417.35,64.1875 416.5,61.0375 C415.9,58.7375 416.2,55.5375 417.25,53.4875 C419.65,48.8375 426.9,46.2375 434.7,47.1875 L437.55,47.5875 L437.4,51.1375 C437.3,54.0375 437.1,54.6875 436.5,54.5375 C436.1,54.4375 434.2,54.2875 432.25,54.1375 C428.2,53.8875 426.5,54.5375 425.8,56.6375 C425.1,58.5375 426.65,60.0375 431.6,62.0375 C437.45,64.4875 440,67.4875 440,71.9375 C440,76.1375 436.6,80.6375 432.2,82.1875 C429.75,83.0875 421.3,83.6875 418.4,83.1375 L418.4,83.1375 Z" id="Path"></path>
            <path d="M474.25,82.9875 C472.35,82.3875 470.3,80.2375 469.55,78.0375 C469.2,76.9875 469,72.2875 469,65.6875 L469,54.9875 L466,54.9875 L462.95,54.9875 L463.1,51.3875 L463.25,47.7375 L466.15,47.5875 L469,47.4375 L469,42.2375 L469,37.0375 L471.65,36.2875 C473.05,35.8875 475.1,35.3375 476.15,35.0375 L478,34.5875 L478,40.9875 L478,47.4375 L482.15,47.5875 L486.25,47.7375 L486.4,51.3875 L486.55,54.9875 L482.25,54.9875 L478,54.9875 L478,63.4375 C478,68.3375 478.25,72.4875 478.55,73.4375 C479.25,75.4375 480.7,76.0375 484,75.6375 L486.5,75.3375 L486.5,78.8875 C486.5,81.0375 486.25,82.5875 485.9,82.7875 C485,83.3375 475.9,83.4875 474.25,82.9875 L474.25,82.9875 Z" id="Path"></path>
            <path d="M547.75,82.8375 C542.85,81.1875 540.25,78.7875 538.6,74.3875 C534.75,64.0375 538.55,52.9875 547.4,48.6375 C549.95,47.3875 550.8,47.2375 555.25,47.2875 C559.65,47.2875 560.6,47.4375 563.1,48.6875 C569.05,51.5375 572.05,57.9875 571.3,66.4875 C570.7,73.4375 567.3,78.7875 561.65,81.5875 C558.85,82.9375 557.75,83.1875 554.05,83.3375 C551.45,83.4375 548.95,83.2375 547.75,82.8375 L547.75,82.8375 Z M559,73.5875 C561.15,71.4875 562,68.9875 562,64.9875 C562,61.0875 561.15,58.5375 559.25,56.6375 C557.8,55.1875 557.3,54.9875 554.85,54.9875 C551.55,54.9875 549.3,56.3375 547.8,59.2375 C546.95,60.8375 546.75,62.1375 546.75,65.4875 C546.8,72.5375 549,75.4375 554.45,75.4875 C556.9,75.4875 557.3,75.3375 559,73.5875 L559,73.5875 Z" id="Shape"></path>
            <path d="M264.1,65.3875 L264.25,47.7375 L268.25,47.7375 L272.25,47.7375 L272.4,50.2375 L272.55,52.7875 L274.7,50.6875 C277.6,47.9375 281.05,46.7875 285.3,47.1375 C289.2,47.4375 291.65,48.8375 293.15,51.6875 C294.2,53.6375 294.25,54.3875 294.4,68.3875 L294.55,82.9875 L290.05,82.9875 L285.5,82.9875 L285.5,70.4875 C285.5,57.0375 285.3,55.9375 282.95,54.9875 C280.05,53.7875 276.7,55.6875 274.65,59.6375 C273.35,62.1875 273.3,62.4375 273.4,70.4875 C273.45,75.0375 273.35,79.6875 273.2,80.8875 L272.95,82.9875 L268.45,82.9875 L264,82.9875 L264.1,65.3875 L264.1,65.3875 Z" id="Path"></path>
            <path d="M304.25,82.3875 C304.1,82.0375 304.05,74.0875 304.1,64.7375 L304.25,47.7375 L308.75,47.7375 L313.25,47.7375 L313.25,65.2375 L313.25,82.7375 L308.85,82.8875 C305.65,82.9875 304.4,82.8375 304.25,82.3875 Z" id="Path"></path>
            <path d="M331.15,82.3875 C330.9,82.0375 329.5,78.5875 328.1,74.7375 C326.7,70.8875 323.95,63.4375 322.05,58.1875 C320.1,52.8875 318.5,48.3375 318.5,48.0375 C318.5,47.6375 319.95,47.4875 323.3,47.5875 L328.15,47.7375 L331.55,57.3375 C333.4,62.6375 335.1,67.7375 335.3,68.7375 C335.7,71.0375 336.35,70.9875 336.75,68.6375 C336.95,67.5875 338.6,62.4875 340.45,57.2375 L343.8,47.7375 L348.25,47.5875 C350.65,47.4875 352.8,47.6375 353,47.8375 C353.35,48.1875 341.35,80.7875 340.35,82.3875 C340.1,82.7875 338.55,82.9875 335.8,82.9875 C333.05,82.9875 331.45,82.7875 331.15,82.3875 Z" id="Path"></path>
            <path d="M393.25,82.3875 C393.1,82.0375 393.05,74.0875 393.1,64.7375 L393.25,47.7375 L397.5,47.7375 L401.75,47.7375 L401.55,50.7375 L401.4,53.6875 L403.1,51.4875 C405,48.9375 408.4,46.9875 410.9,46.9875 L412.65,46.9875 L412.3,49.2875 C412.15,50.5875 412,52.5875 412,53.7375 L412,55.8375 L409.8,55.8375 C407,55.8375 405.35,56.8875 403.9,59.6375 C402.85,61.5875 402.75,62.5375 402.5,72.2375 L402.25,82.7375 L397.85,82.8875 C394.65,82.9875 393.4,82.8375 393.25,82.3875 L393.25,82.3875 Z" id="Path"></path>
            <polygon id="Path" points="447.5 65.2375 447.5 47.4875 452 47.4875 456.5 47.4875 456.5 65.2375 456.5 82.9875 452 82.9875 447.5 82.9875"></polygon>
            <path d="M580.85,82.6375 C580.65,82.4875 580.5,76.1875 580.5,68.6375 L580.5,54.9875 L577.5,54.9875 L574.45,54.9875 L574.6,51.3875 L574.75,47.7375 L577.55,47.5875 L580.35,47.4375 L580.65,43.6375 C581.15,37.0875 584,32.8875 588.95,31.4875 C589.95,31.2375 592.85,30.9875 595.4,30.9875 L600,30.9875 L600,34.7375 L600,38.4875 L596.25,38.4875 C592.8,38.4875 592.35,38.5875 591.25,39.7875 C590.1,40.9875 589.1,45.4875 589.6,47.0375 C589.7,47.3875 591.2,47.6375 593.75,47.6875 L597.75,47.7375 L597.75,51.2375 L597.75,54.7375 L593.65,54.8875 L589.5,55.0375 L589.5,68.9875 L589.5,82.9875 L585.35,82.9875 C583.05,82.9875 581,82.8375 580.85,82.6375 L580.85,82.6375 Z" id="Path"></path>
            <path d="M306.15,42.6875 C304.6,41.9375 303,39.3875 303,37.7375 C303,36.4875 304.35,34.1375 305.6,33.2875 C307.4,32.0375 310.65,32.2875 312.45,33.7875 C315.4,36.2375 314.75,41.0375 311.25,42.6875 C309.2,43.6875 308.2,43.6875 306.15,42.6875 L306.15,42.6875 Z" id="Path"></path>
            <path d="M449.15,42.4875 C447.25,41.3375 446.5,40.0875 446.5,37.9875 C446.5,34.6875 448.75,32.4875 452.05,32.4875 C455.25,32.4875 457.45,34.6375 457.5,37.7375 C457.5,40.0875 456.55,41.6875 454.5,42.7375 C452.55,43.7375 451.05,43.6875 449.15,42.4875 Z" id="Path"></path>
        </g>
    </g>
</svg>