<?xml version="1.0" encoding="UTF-8"?>
<svg width="567px" height="126px" viewBox="0 0 567 126" version="1.1" xmlns="http://www.w3.org/2000/svg" xmlns:xlink="http://www.w3.org/1999/xlink">
    <title>iart</title>
    <g id="Page-1" stroke="none" stroke-width="1" fill="none" fill-rule="evenodd">
        <g id="iart" fill-rule="nonzero">
            <rect id="Rectangle" fill="#000000" x="0" y="0" width="566.93" height="125.89"></rect>
            <rect id="Rectangle" fill="#FFFFFF" x="37.28" y="25.64" width="10.76" height="10.83"></rect>
            <path d="M418.16,75.01 L418.16,72.56 L398.88,74.37 C394.93,74.68 394.4,76.49 394.4,79.58 L394.4,84.38 C394.4,89.38 398.13,91.620011 404.2,91.620011 C412.82,91.63 418.16,84.81 418.16,75.01 M437.05,89.82 L437.05,98.03 L419.43,98.03 L419.21,88.02 L418.78,88.02 C415.8,95.69 409.84,99.31 401.74,99.31 C396.41,99.31 391.84,97.61 388.75,94.41 C385.98,91.54 384.27,87.38 384.27,83.12 C384.27,74.59 389.7,67.78 400.46,66.82 L418.15,65.22 L418.15,60.86 C418.15,52.44 413.56,50.1 406.86,50.1 C400.15,50.1 395.67,52.98 395.67,59.9 L386.09,59.9 C386.09,49.67 395.35,42.43 406.97,42.43 C418.69,42.43 427.53,48.18 427.53,60.97 L427.53,89.84 L437.05,89.84 L437.05,89.82 Z" id="Shape" fill="#FFFFFF"></path>
            <polygon id="Path" fill="#FFFFFF" points="459.76 43.7 488.39 43.7 488.39 52.01 469.34 52.01 469.34 98.02 459.76 98.02"></polygon>
            <polygon id="Path" fill="#FFFFFF" points="528.38 89.82 542.58 89.82 542.58 98.02 518.9 98.02 518.9 51.89 509.42 51.89 509.42 43.7 518.9 43.7 518.9 25.58 528.38 25.58 528.38 43.7 542.58 43.7 542.58 51.89 528.38 51.89"></polygon>
            <polygon id="Path" fill="#FFFFFF" points="48.03 89.82 48.03 51.89 48.03 43.7 38.55 43.7 24.31 43.7 24.31 51.89 38.55 51.89 38.55 89.82 24.31 89.82 24.31 98.02 62.7 98.02 62.7 89.82"></polygon>
        </g>
    </g>
</svg>